<svg version="1.1" id="Layer_1" xmlns="http://www.w3.org/2000/svg" xmlns:xlink="http://www.w3.org/1999/xlink" x="0px" y="0px"
	 viewBox="0 0 80 80" style="enable-background:new 0 0 80 80;" xml:space="preserve">
<style type="text/css">
	.ssrt0{fill:url(#SVG__ID_1_);}
	.ssrt1{fill:#FFFFFF;}
</style>
<defs>
    <filter id="cosearch_Filter3" x="-0.1" y="-0.1" width="200%" height="200%">
	  	<feDropShadow dx="-0.5" dy="0.5" stdDeviation="0.5" flood-color="#333" flood-opacity="0.9" />
    </filter>
</defs>
<g>
	<linearGradient id="SVG__ID_1_" gradientUnits="userSpaceOnUse" x1="-1.8575" y1="64.1664" x2="82.196" y2="15.6381">
		<stop  offset="1.299629e-02" style="stop-color:#94FFFF"/>
		<stop  offset="1" style="stop-color:#E5FFFF"/>
	</linearGradient>
	<path class="ssrt0" d="M68.5,77.5h-57c-5,0-9-4-9-9v-57c0-5,4-9,9-9h57c5,0,9,4,9,9v57C77.5,73.5,73.5,77.5,68.5,77.5z" filter = "url(#cosearch_Filter3)"/>
	<g>
		<path class="ssrt1" d="M65.2,33.1C65.2,33.1,65.2,33.1,65.2,33.1H14.8c-0.5,0-0.9-0.3-1.1-0.8c-0.2-0.5,0-1,0.4-1.3l25.2-18.3
			c0.4-0.3,0.9-0.3,1.3,0l25,18.1c0.4,0.2,0.7,0.6,0.7,1C66.3,32.6,65.8,33.1,65.2,33.1z"/>
		<path class="ssrt1" d="M65.1,67.4H14.9c-0.6,0-1.1-0.5-1.1-1.1v-4.6c0-0.6,0.5-1.1,1.1-1.1h50.2c0.6,0,1.1,0.5,1.1,1.1v4.6
			C66.3,66.9,65.8,67.4,65.1,67.4z"/>
		<path class="ssrt1" d="M24,58.3h-6.9c-0.6,0-1.1-0.5-1.1-1.1V36.6c0-0.6,0.5-1.1,1.1-1.1H24c0.6,0,1.1,0.5,1.1,1.1v20.6
			C25.2,57.8,24.7,58.3,24,58.3z"/>
		<path class="ssrt1" d="M62.9,58.3H56c-0.6,0-1.1-0.5-1.1-1.1V36.6c0-0.6,0.5-1.1,1.1-1.1h6.9c0.6,0,1.1,0.5,1.1,1.1v20.6
			C64,57.8,63.5,58.3,62.9,58.3z"/>
		<path class="ssrt1" d="M34.3,54.4c2.2,0,4.2,0.5,5.7,1.3c1.6-0.8,3.6-1.3,5.8-1.3c1.7,0,3.3,0.3,4.6,0.8V38.3
			c-1-0.5-2.6-0.8-4.3-0.8c-2,0-3.8,0.4-4.8,1v10.6c0,0.6-0.5,1.1-1.1,1.1c-0.6,0-1.1-0.5-1.1-1.1V38.5c-1-0.6-2.8-1-4.8-1
			c-1.8,0-3.4,0.3-4.3,0.8v16.9C31,54.7,32.6,54.4,34.3,54.4z"/>
	</g>
</g>
</svg>
