<svg version="1.1" id="Layer_1" xmlns="http://www.w3.org/2000/svg" xmlns:xlink="http://www.w3.org/1999/xlink" x="0px" y="0px"
	 viewBox="0 0 80 80" style="enable-background:new 0 0 80 80;" xml:space="preserve">
<style type="text/css">
	.sttt0{fill:url(#SVGID_1_);}
	.sttt1{fill:#FFFFFF;}
</style>
<g>
	<g>
		<g transform="translate(0,-952.36218)">
			<linearGradient id="SVGID_1_" gradientUnits="userSpaceOnUse" x1="74.938" y1="957.7485" x2="5.2101" y2="1027.4764">
				<stop  offset="0" style="stop-color:#ED9798"/>
				<stop  offset="1" style="stop-color:#EB5556"/>
			</linearGradient>
			<path class="sttt0" d="M68.6,1030.1h-57c-5,0-9-4-9-9v-57c0-5,4-9,9-9h57c5,0,9,4,9,9v57C77.6,1026.1,73.5,1030.1,68.6,1030.1z"/>
			<g transform="translate(-254.16013,-111.35431)">
				<path class="sttt1" d="M308.2,1087.5c-0.2,0-0.3,0.1-0.3,0.3v28.1c0,0.2,0.1,0.3,0.3,0.3h19.3h0c0,0,0.1,0,0.1,0
					c0,0,0.1,0,0.1-0.1c0,0,0,0,0,0c0,0,0,0,0,0c0,0,0,0,0-0.1c0,0,0,0,0,0c0,0,0,0,0-0.1c0,0,0,0,0,0c0,0,0,0,0,0c0,0,0,0,0-0.1
					l0-22.2c0,0,0-0.1,0-0.1c0-0.1,0-0.2-0.1-0.2l-5.6-5.7c-0.1-0.1-0.2-0.1-0.3-0.1c0,0,0,0-0.1,0L308.2,1087.5L308.2,1087.5z
					 M322.3,1088.6l4.5,4.5h-3.7h-0.8V1088.6z M311.2,1092.2C311.2,1092.2,311.2,1092.2,311.2,1092.2
					C311.2,1092.2,311.3,1092.2,311.2,1092.2h8.7c0.2,0,0.3,0.1,0.3,0.3c0,0.2-0.1,0.3-0.3,0.3c0,0,0,0,0,0h-8.6
					c-0.2,0-0.3-0.1-0.4-0.3C310.9,1092.4,311,1092.3,311.2,1092.2L311.2,1092.2z M311.2,1095.2
					C311.2,1095.2,311.2,1095.2,311.2,1095.2C311.2,1095.2,311.2,1095.2,311.2,1095.2h13.4c0.2,0,0.3,0.1,0.3,0.3
					c0,0.2-0.1,0.3-0.3,0.3c0,0,0,0,0,0h-13.3c-0.2,0-0.4-0.1-0.4-0.3C310.9,1095.4,311,1095.3,311.2,1095.2L311.2,1095.2z
					 M311.2,1098.4C311.2,1098.4,311.2,1098.4,311.2,1098.4C311.2,1098.4,311.3,1098.4,311.2,1098.4h13.4c0.2,0,0.3,0.1,0.3,0.3
					s-0.1,0.3-0.3,0.3c0,0,0,0,0,0h-13.3c-0.2,0-0.3-0.1-0.4-0.3C310.9,1098.6,311,1098.4,311.2,1098.4L311.2,1098.4L311.2,1098.4z
					 M311.2,1101.6C311.2,1101.6,311.2,1101.6,311.2,1101.6C311.2,1101.6,311.3,1101.6,311.2,1101.6h13.4c0.2,0,0.3,0.1,0.3,0.3
					s-0.1,0.3-0.3,0.3c0,0,0,0,0,0h-13.3c-0.2,0-0.3-0.1-0.4-0.3S311,1101.7,311.2,1101.6L311.2,1101.6z M311.2,1104.8
					C311.2,1104.8,311.2,1104.8,311.2,1104.8C311.2,1104.8,311.2,1104.8,311.2,1104.8h13.4c0.2,0,0.3,0.1,0.3,0.3
					c0,0.2-0.1,0.3-0.3,0.3c0,0,0,0,0,0h-13.3c-0.2,0-0.4-0.1-0.4-0.3C310.9,1105,311,1104.9,311.2,1104.8L311.2,1104.8z
					 M311.2,1108.3C311.2,1108.3,311.2,1108.3,311.2,1108.3C311.2,1108.3,311.2,1108.3,311.2,1108.3h13.4c0.2,0,0.3,0.1,0.3,0.3
					c0,0.2-0.1,0.3-0.3,0.3c0,0,0,0,0,0h-13.3c-0.2,0-0.4-0.1-0.4-0.3S311,1108.3,311.2,1108.3L311.2,1108.3z M311.2,1111.6
					C311.2,1111.6,311.3,1111.6,311.2,1111.6h13.3c0.2,0,0.3,0.1,0.3,0.3c0,0.2-0.1,0.3-0.3,0.3c0,0,0,0,0,0h-13.3
					c-0.2,0-0.3-0.1-0.3-0.3C310.9,1111.7,311,1111.6,311.2,1111.6z"/>
			</g>
		</g>
		<path class="sttt1" d="M48.2,38.1L44,33.9c-0.1-0.1-0.3-0.2-0.5-0.1c-0.2,0.1-0.3,0.2-0.3,0.4v2h-3.2c-0.2,0-0.4,0.2-0.4,0.4
			s0.2,0.4,0.4,0.4h3.6c0.2,0,0.4-0.2,0.4-0.4v-1.4l3.2,3.2l-3.2,3.2v-1.4c0-0.2-0.2-0.4-0.4-0.4h-6.9c0-0.2,0-0.5,0-0.8v-1.2
			c0-0.2-0.1-0.3-0.3-0.4c-0.2-0.1-0.3,0-0.5,0.1l-4.2,4.2c-0.2,0.2-0.2,0.4,0,0.6l4.2,4.2c0.1,0.1,0.2,0.1,0.3,0.1
			c0.1,0,0.1,0,0.2,0c0.2-0.1,0.3-0.2,0.3-0.4v-2h3.2c0.2,0,0.4-0.2,0.4-0.4s-0.2-0.4-0.4-0.4h-3.6c-0.2,0-0.4,0.2-0.4,0.4
			c0,0,0,0,0,0c0,0,0,0.8,0,1.4l-3.2-3.2l3.2-3.2c0,0.6,0,1.3,0,1.4c0,0,0,0.1,0,0.1c0,0.2,0.2,0.3,0.4,0.3h6.9v2
			c0,0.2,0.1,0.3,0.3,0.4c0.2,0.1,0.3,0,0.5-0.1l4.2-4.2C48.4,38.6,48.4,38.3,48.2,38.1z"/>
	</g>
	<g>
		<path class="sttt1" d="M29.8,45.7h-0.4v-3.2c0-1.8-1.1-3.2-2.4-3.2c-0.3,0-0.6,0.1-0.8,0.2V26.7c0-1.5-0.9-2.7-2-2.7H8.9
			c-1.1,0-2,1.2-2,2.7v21.7c0,1.5,0.9,2.7,2,2.7h14v3.8c0,0.9,0.5,1.6,1.2,1.6h5.6c0.7,0,1.2-0.7,1.2-1.6v-7.6
			C31,46.4,30.4,45.7,29.8,45.7z M28.6,42.4v3.2h-3.2v-3.2c0-0.1,0-0.3,0-0.4c0,0,0,0,0-0.1c0.2-1.2,1.1-1.9,1.9-1.6
			C28.1,40.5,28.6,41.4,28.6,42.4z M8.9,50c-0.7,0-1.2-0.7-1.2-1.6V26.7c0-0.9,0.5-1.6,1.2-1.6h15.3c0.7,0,1.2,0.7,1.2,1.6V40
			c0,0-0.1,0.1-0.1,0.1c-0.3,0.4-0.6,1-0.6,1.6c0,0,0,0,0,0c0,0.1,0,0.2,0,0.3c0,0,0,0,0,0.1c0,0.1,0,0.2,0,0.3v3.2h-0.4
			c-0.7,0-1.2,0.7-1.2,1.6V50H8.9z M30.2,54.9c0,0.3-0.2,0.5-0.4,0.5h-5.6c-0.2,0-0.4-0.2-0.4-0.5v-7.6c0-0.3,0.2-0.5,0.4-0.5h5.6
			c0.2,0,0.4,0.2,0.4,0.5V54.9z"/>
		<path class="sttt1" d="M27,47.8c-0.9,0-1.6,1-1.6,2.2c0,1,0.5,1.8,1.2,2.1v1.7c0,0.3,0.2,0.5,0.4,0.5c0.2,0,0.4-0.2,0.4-0.5v-1.7
			c0.9-0.3,1.4-1.5,1.2-2.6C28.3,48.5,27.7,47.8,27,47.8z M27,51.1c-0.4,0-0.8-0.5-0.8-1.1s0.4-1.1,0.8-1.1s0.8,0.5,0.8,1.1
			S27.4,51.1,27,51.1z"/>
		<path class="sttt1" d="M11.9,34.3c-0.8,0-1.4,0.8-1.4,1.9l0,0v2.7c0,1,0.6,1.9,1.4,1.9s1.4-0.8,1.4-1.9v-2.7
			C13.3,35.1,12.7,34.3,11.9,34.3L11.9,34.3z M12.5,38.9c0,0.4-0.3,0.8-0.6,0.8s-0.6-0.4-0.6-0.8l0,0v-2.7c0-0.4,0.3-0.8,0.6-0.8
			s0.6,0.4,0.6,0.8V38.9z"/>
		<path class="sttt1" d="M15.5,26.7c-0.8,0-1.4,0.8-1.4,1.9v2.7c0,1,0.6,1.9,1.4,1.9c0.8,0,1.4-0.8,1.4-1.9v-2.7
			C16.9,27.6,16.3,26.7,15.5,26.7z M16.1,31.3c0,0.4-0.3,0.8-0.6,0.8c-0.3,0-0.6-0.4-0.6-0.8v-2.7c0-0.4,0.3-0.8,0.6-0.8
			c0.3,0,0.6,0.4,0.6,0.8V31.3z"/>
		<path class="sttt1" d="M11.9,26.7c-0.8,0-1.4,0.8-1.4,1.9v2.7c0,1,0.6,1.9,1.4,1.9s1.4-0.8,1.4-1.9v-2.7
			C13.3,27.6,12.7,26.7,11.9,26.7z M12.5,31.3c0,0.4-0.3,0.8-0.6,0.8s-0.6-0.4-0.6-0.8v-2.7c0-0.4,0.3-0.8,0.6-0.8s0.6,0.4,0.6,0.8
			V31.3z"/>
		<path class="sttt1" d="M23.8,38.9v-2.7c0-1-0.6-1.9-1.4-1.9S21,35.1,21,36.2l0,0v2.7c0,1,0.6,1.9,1.4,1.9S23.8,39.9,23.8,38.9z
			 M23,38.9c0,0.4-0.3,0.8-0.6,0.8s-0.6-0.4-0.6-0.8l0,0v-2.7c0-0.4,0.3-0.8,0.6-0.8s0.6,0.4,0.6,0.8V38.9z"/>
		<path class="sttt1" d="M16.5,39.7h-0.4v-4.9c0-0.3-0.2-0.5-0.4-0.5c-0.1,0-0.2,0.1-0.3,0.2l-0.8,1.1c-0.2,0.2-0.1,0.6,0,0.8
			c0.2,0.2,0.4,0.2,0.6,0l0.1-0.2v3.6h-0.4c-0.2,0-0.4,0.2-0.4,0.5s0.2,0.5,0.4,0.5h1.6c0.2,0,0.4-0.2,0.4-0.5S16.8,39.7,16.5,39.7z
			"/>
		<path class="sttt1" d="M19.8,32.1h-0.4v-4.9c0-0.3-0.2-0.5-0.4-0.5c-0.1,0-0.2,0.1-0.3,0.2L17.9,28c-0.2,0.2-0.1,0.6,0,0.8
			c0.2,0.2,0.4,0.2,0.6,0l0.1-0.2v3.6h-0.4c-0.2,0-0.4,0.2-0.4,0.5s0.2,0.5,0.4,0.5h1.6c0.2,0,0.4-0.2,0.4-0.5S20,32.1,19.8,32.1z"
			/>
		<path class="sttt1" d="M21.4,32.1c-0.2,0-0.4,0.2-0.4,0.5s0.2,0.5,0.4,0.5H23c0.2,0,0.4-0.2,0.4-0.5s-0.2-0.5-0.4-0.5h-0.4v-4.9
			c0-0.3-0.2-0.5-0.4-0.5c-0.1,0-0.2,0.1-0.3,0.2L21.1,28c-0.2,0.2-0.1,0.6,0,0.8c0.2,0.2,0.4,0.2,0.6,0l0.1-0.2v3.6H21.4z"/>
		<path class="sttt1" d="M15.5,41.9c-0.8,0-1.4,0.8-1.4,1.9v2.7c0,1,0.6,1.9,1.4,1.9c0.8,0,1.4-0.8,1.4-1.9v-2.7
			C16.9,42.7,16.3,41.9,15.5,41.9z M16.1,46.5c0,0.4-0.3,0.8-0.6,0.8c-0.3,0-0.6-0.4-0.6-0.8v-2.7c0-0.4,0.3-0.8,0.6-0.8
			c0.3,0,0.6,0.4,0.6,0.8V46.5z"/>
		<path class="sttt1" d="M11.9,41.9c-0.8,0-1.4,0.8-1.4,1.9v2.7c0,1,0.6,1.9,1.4,1.9s1.4-0.8,1.4-1.9v-2.7
			C13.3,42.7,12.7,41.9,11.9,41.9z M12.5,46.5c0,0.4-0.3,0.8-0.6,0.8s-0.6-0.4-0.6-0.8v-2.7c0-0.4,0.3-0.8,0.6-0.8s0.6,0.4,0.6,0.8
			V46.5z"/>
		<path class="sttt1" d="M19.8,47.3h-0.4v-4.9c0-0.3-0.2-0.5-0.4-0.5c-0.1,0-0.2,0.1-0.3,0.2l-0.8,1.1c-0.2,0.2-0.1,0.6,0,0.8
			c0.2,0.2,0.4,0.2,0.6,0l0.1-0.2v3.6h-0.4c-0.2,0-0.4,0.2-0.4,0.5s0.2,0.5,0.4,0.5h1.6c0.2,0,0.4-0.2,0.4-0.5S20,47.3,19.8,47.3z"
			/>
		<path class="sttt1" d="M19.8,39.7h-0.4v-4.9c0-0.3-0.2-0.5-0.4-0.5c-0.1,0-0.2,0.1-0.3,0.2l-0.8,1.1c-0.2,0.2-0.1,0.6,0,0.8
			c0.2,0.2,0.4,0.2,0.6,0l0.1-0.2v3.6h-0.4c-0.2,0-0.4,0.2-0.4,0.5s0.2,0.5,0.4,0.5h1.6c0.2,0,0.4-0.2,0.4-0.5S20,39.7,19.8,39.7z"
			/>
		<path class="sttt1" d="M8.9,28.9c-0.2,0-0.4,0.2-0.4,0.5v18.9c0,0.3,0.2,0.5,0.4,0.5s0.4-0.2,0.4-0.5V29.4
			C9.3,29.1,9.1,28.9,8.9,28.9z"/>
		<path class="sttt1" d="M8.9,26.2c-0.2,0-0.4,0.2-0.4,0.5v0.5c0,0.3,0.2,0.5,0.4,0.5s0.4-0.2,0.4-0.5v-0.5
			C9.3,26.4,9.1,26.2,8.9,26.2z"/>
	</g>
</g>
</svg>
