<svg version="1.1" id="Layer_1" xmlns="http://www.w3.org/2000/svg" xmlns:xlink="http://www.w3.org/1999/xlink" x="0px" y="0px"
	 viewBox="0 0 80 80" style="enable-background:new 0 0 80 80;" xml:space="preserve">
<style type="text/css">
	.st0{fill:url(#SVG_gold_ID_1_);}
	.st1{fill-rule:evenodd;clip-rule:evenodd;fill:#FFFFFF;}
</style>
<g>
	<linearGradient id="SVG_gold_ID_1_" gradientUnits="userSpaceOnUse" x1="4.0144" y1="75.9856" x2="97.2564" y2="-17.2564">
		<stop  offset="1.299629e-02" style="stop-color:#AE9B0A"/>
		<stop  offset="4.227213e-02" style="stop-color:#B6A418"/>
		<stop  offset="0.148" style="stop-color:#CEC045"/>
		<stop  offset="0.2425" style="stop-color:#E0D565"/>
		<stop  offset="0.3213" style="stop-color:#EBE179"/>
		<stop  offset="0.3748" style="stop-color:#EFE680"/>
		<stop  offset="0.3844" style="stop-color:#EDE37B"/>
		<stop  offset="0.4631" style="stop-color:#DDCD59"/>
		<stop  offset="0.5469" style="stop-color:#D0BB3C"/>
		<stop  offset="0.6362" style="stop-color:#C6AD26"/>
		<stop  offset="0.7334" style="stop-color:#BFA316"/>
		<stop  offset="0.8445" style="stop-color:#BA9D0D"/>
		<stop  offset="1" style="stop-color:#B99B0A"/>
	</linearGradient>
	<path class="st0" d="M68.5,77.5h-57c-5,0-9-4-9-9v-57c0-5,4-9,9-9h57c5,0,9,4,9,9v57C77.5,73.5,73.5,77.5,68.5,77.5z"/>
	<g>
		<path class="st1" d="M24.3,44v-3.3h1.8v-8.2h-1.8v-1.7l-4.6-7.6v-2.7c2.7-2.6,4.7,1.3,7.4-1.5c-2.9,1.7-4.6-3.2-7.4-1.7v-0.2H19
			v6.2l-4.5,7.6v1.7h-1.8v8.2h1.8V44H24.3z"/>
		<path class="st1" d="M64.6,30.7L60,23.1v-2.7c2.7-2.6,4.7,1.3,7.4-1.5c-2.9,1.7-4.6-3.2-7.4-1.7v-0.2h-0.7v6.2l-4.5,7.6v1.7h-1.9
			v8.2h1.9V44h9.8v-3.3h1.8v-8.2h-1.8V30.7z"/>
		<path class="st1" d="M35,35.8h9.8v-3.2h1.9v-8.2h-1.9v-1.7l-4.6-7.7v-2.7c2.7-2.5,4.7,1.3,7.4-1.4c-2.9,1.7-4.6-3.2-7.4-1.7V8.7
			h-0.7V15L35,22.6v1.7h-1.8v8.2H35V35.8z"/>
		<path class="st1" d="M56,52.3H45.4V37.4H34.6v14.9H23v-6.7h-7.4v25.8c15.9,0,31.8,0,47.7,0V45.5H56V52.3z M25.9,68h-5.4v-7.2
			c0-3.6,5.4-3.6,5.4,0V68z M42.7,68h-5.4v-7.2c0-3.6,5.4-3.6,5.4,0V68z M59.5,60.8V68h-5.4v-7.2C54.1,57.2,59.5,57.2,59.5,60.8z"/>
	</g>
</g>
</svg>
