<svg version="1.1" id="Layer_1" xmlns="http://www.w3.org/2000/svg" xmlns:xlink="http://www.w3.org/1999/xlink" x="0px" y="0px"
	 viewBox="0 0 80 80" style="enable-background:new 0 0 80 80;" xml:space="preserve">
<style type="text/css">
	.st0{fill:url(#SVGID_1_);}
	.st1{fill:#FFFFFF;}
	.st2{fill:#eeeeee;}
	.st3{fill:#F05E5D;}
</style>
<defs>
    <filter id="f3" x="-0.1" y="-0.1" width="200%" height="200%">
	  	<feDropShadow dx="-0.5" dy="0.5" stdDeviation="0.5" flood-color="#000" flood-opacity="1" />
    </filter>
</defs>
<linearGradient id="SVGID_1_" gradientUnits="userSpaceOnUse" x1="74.7423" y1="5.136" x2="5.0144" y2="74.864">
	<stop  offset="0" style="stop-color:#FFFFFF"/>
	<stop  offset="1" style="stop-color:#bcaba1"/>
</linearGradient>
<path class="st0" d="M68.4,77.5h-57c-5,0-9-4-9-9v-57c0-5,4-9,9-9h57c5,0,9,4,9,9v57C77.4,73.5,73.3,77.5,68.4,77.5z" filter="url(#f3)"/>
<g>
	<g>
		<path class="st1" d="M53.4,12.5l-3.3-5.7L29.5,18.7c-1-1.1-2.7-1.4-4-0.7l-8,4.7c-1.4,0.8-1.9,2.4-1.4,3.8l-2.7,1.5l3.3,5.7
			l-1,0.6l14.1,21l36.5-21.2L54.9,11.6L53.4,12.5z M51.4,13.6L19.1,32.5l-1.6-2.8l1.5-0.9l-0.8-1.4l29.3-17.1l0.8,1.4l1.5-0.9
			L51.4,13.6z"/>
		<g>
			<path class="st2" d="M18.2,39.3c-2.1,0-3.8,1.7-3.8,3.8v9.4c0,2.1,1.7,3.8,3.8,3.8h43.3c2.1,0,3.8-1.7,3.8-3.8v-9.4
				c0-2.1-1.7-3.8-3.8-3.8H18.2z M58.7,50.6c-1.6,0-2.8-1.3-2.8-2.8c0-1.6,1.3-2.8,2.8-2.8s2.8,1.3,2.8,2.8
				C61.6,49.4,60.3,50.6,58.7,50.6z"/>
			<path class="st2" d="M22,56.3v15.1h-1.9V56.3H22 M23.9,54.4h-5.7v17c0,1,0.8,1.9,1.9,1.9H22c1,0,1.9-0.8,1.9-1.9V54.4L23.9,54.4z
				"/>
			<path class="st2" d="M29.5,56.3v15.1h-1.9V56.3H29.5 M31.4,54.4h-5.7v17c0,1,0.8,1.9,1.9,1.9h1.9c1,0,1.9-0.8,1.9-1.9V54.4
				L31.4,54.4z"/>
			<path class="st2" d="M37.1,56.3v15.1h-1.9V56.3H37.1 M38.9,54.4h-5.7v17c0,1,0.8,1.9,1.9,1.9h1.9c1,0,1.9-0.8,1.9-1.9V54.4
				L38.9,54.4z"/>
			<path class="st2" d="M44.6,56.3v15.1h-1.9V56.3H44.6 M46.5,54.4h-5.7v17c0,1,0.8,1.9,1.9,1.9h1.9c1,0,1.9-0.8,1.9-1.9V54.4
				L46.5,54.4z"/>
			<path class="st2" d="M52.1,56.3v15.1h-1.9V56.3H52.1 M54,54.4h-5.7v17c0,1,0.8,1.9,1.9,1.9h1.9c1,0,1.9-0.8,1.9-1.9V54.4L54,54.4
				z"/>
			<path class="st2" d="M59.7,56.3v15.1h-1.9V56.3H59.7 M61.6,54.4h-5.7v17c0,1,0.8,1.9,1.9,1.9h1.9c1,0,1.9-0.8,1.9-1.9V54.4
				L61.6,54.4z"/>
		</g>
	</g>
	<path class="st3" d="M42.9,46.2v-1.1c0-1.6-1.3-3-3-3s-3,1.3-3,3v1.1c-0.8,0.1-1.4,0.7-1.4,1.6v3.8c0,0.9,0.7,1.6,1.6,1.6h5.7
		c0.9,0,1.6-0.7,1.6-1.6v-3.8C44.3,46.9,43.7,46.3,42.9,46.2z M40.6,51.1c0,0.1-0.1,0.2-0.2,0.2h-1.1c-0.1,0-0.2-0.1-0.2-0.2
		l0.3-1.4c-0.3-0.1-0.5-0.4-0.5-0.8c0-0.5,0.4-0.8,0.8-0.8s0.8,0.4,0.8,0.8c0,0.3-0.2,0.6-0.5,0.8L40.6,51.1z M41.3,46.2h-2.9v-1.1
		c0-0.8,0.7-1.5,1.5-1.5s1.5,0.7,1.5,1.5V46.2z"/>
</g>
</svg>
