<?xml version="1.0" encoding="UTF-8" standalone="no"?>
<!DOCTYPE svg PUBLIC "-//W3C//DTD SVG 1.1//EN" "http://www.w3.org/Graphics/SVG/1.1/DTD/svg11.dtd">
<svg width="100%" height="100%" viewBox="0 0 318 202" version="1.1" xmlns="http://www.w3.org/2000/svg" xmlns:xlink="http://www.w3.org/1999/xlink" xml:space="preserve" xmlns:serif="http://www.serif.com/" style="fill-rule:evenodd;clip-rule:evenodd;stroke-linejoin:round;stroke-miterlimit:2;">
    <g transform="matrix(1,0,0,1,-261.15,-674.333)">
        <g transform="matrix(1,0,0,1,-54.22,276.333)">
            <g transform="matrix(0.845357,0,0,0.466863,-2.48416,302.055)">
                <path d="M655.446,638.186L476.112,638.186L496.362,334.9L635.195,334.9L655.446,638.186Z" style="fill:rgb(235,235,235);fill-opacity:0;"/>
                <path d="M655.446,638.186L476.112,638.186L496.362,334.9L635.195,334.9L655.446,638.186ZM501.605,345.609L482.784,627.476L648.773,627.476L629.953,345.609L501.605,345.609Z" style="fill:rgb(36,4,62);"/>
            </g>
            <g transform="matrix(0.587457,0,0,0.707965,170.387,181.593)">
                <path d="M460,391L420,391L424.249,365L455.751,365L460,391Z" style="fill:rgb(36,4,62);"/>
            </g>
            <g transform="matrix(0.587457,0,0,0.707965,264.252,181.593)">
                <path d="M460,391L420,391L424.249,365L455.751,365L460,391Z" style="fill:rgb(36,4,62);"/>
            </g>
            <g transform="matrix(0.587457,0,0,0.707965,217.32,181.593)">
                <path d="M460,391L420,391L424.249,365L455.751,365L460,391Z" style="fill:rgb(36,4,62);"/>
            </g>
            <g transform="matrix(0.822376,0,0,0.962832,238.545,128.212)">
                <path d="M309,457.342C309,447.771 299.902,440 288.696,440L288.304,440C277.098,440 268,447.771 268,457.342L268,490L309,490L309,457.342Z" style="fill:rgb(36,4,62);"/>
                <path d="M309,457.342C309,447.771 299.902,440 288.696,440L288.304,440C277.098,440 268,447.771 268,457.342L268,490L309,490L309,457.342ZM302.92,484.807L302.92,457.342C302.92,450.637 296.546,445.193 288.696,445.193L288.304,445.193C280.454,445.193 274.08,450.637 274.08,457.342L274.08,484.807L302.92,484.807Z" style="fill:rgb(36,4,62);"/>
            </g>
            <g transform="matrix(0.758009,0,0,0.707965,96.7965,175.221)">
                <path d="M577.415,400L422.585,400L400,600L463.768,600C463.768,600 463.392,560.773 464.269,550.563C464.525,547.587 465.3,544.27 466.518,540.675C482.383,493.874 577.415,400 577.415,400Z" style="fill:rgb(36,4,62);"/>
                <path d="M577.415,400L422.585,400L400,600L463.768,600C463.768,600 463.392,560.773 464.269,550.563C464.525,547.587 465.3,544.27 466.518,540.675C482.383,493.874 577.415,400 577.415,400ZM560.88,407.063L428.431,407.063L407.442,592.937L457.127,592.938C457.068,580.996 457.047,557.521 457.701,549.915C458.002,546.412 458.883,542.498 460.318,538.266C465.263,523.678 477.501,504.613 492.365,485.176C515.426,455.019 544.728,423.749 560.88,407.063Z" style="fill:rgb(36,4,62);"/>
            </g>
            <g transform="matrix(0.503192,0,0,0.8,237,86)">
                <rect x="470" y="390" width="5.962" height="50" style="fill:rgb(36,4,62);"/>
            </g>
            <g transform="matrix(0.27666,0.39334,-0.39334,0.27666,525.632,217.019)">
                <path d="M260.501,320.847L246.893,311.276C246.893,311.276 243.811,372.481 257.619,390.005C261.513,394.947 276.372,379.843 278.498,385.623C281.435,393.61 276.394,412.109 276.394,412.109C276.394,412.109 286.839,390.381 281.236,379.922C278.013,373.904 260.967,386.789 260.106,382.856C254.954,359.322 260.501,320.847 260.501,320.847Z" style="fill:rgb(36,4,62);"/>
            </g>
            <g transform="matrix(0.910313,0,0,1.50204,96.8954,-913.965)">
                <rect x="240" y="940" width="349" height="34.244" style="fill:white;"/>
            </g>
            <g transform="matrix(0.622529,0,0,0.622529,-38.0868,166.136)">
                <text x="560px" y="600px" style="font-family:'Copperplate-Bold', 'Copperplate';font-weight:700;font-size:96px;fill:rgb(36,4,62);">FORTRESS</text>
            </g>
        </g>
    </g>
</svg>
