<svg version="1.1" id="Layer_1" xmlns="http://www.w3.org/2000/svg" xmlns:xlink="http://www.w3.org/1999/xlink" x="0px" y="0px"
	 viewBox="0 0 80 80" style="enable-background:new 0 0 80 80;" xml:space="preserve">
<style type="text/css">
	.st0{fill:url(#SVGID_1_);}
	.st1{fill:none;stroke:#FFFFFF;stroke-width:2;stroke-miterlimit:10;}
	.st2{fill:#C2E8FF;}
</style>
<defs>
    <filter id="f3" x="-0.1" y="-0.1" width="200%" height="200%">
	  	<feDropShadow dx="-0.5" dy="0.5" stdDeviation="0.5" flood-color="#333" flood-opacity="0.9" />
    </filter>
</defs>
<g>
	<linearGradient id="SVGID_1_" gradientUnits="userSpaceOnUse" x1="74.864" y1="5.136" x2="5.136" y2="74.864">
		<stop  offset="0" style="stop-color:#67BFF6"/>
		<stop  offset="1" style="stop-color:#1DA1F2"/>
	</linearGradient>
	<path class="st0" d="M68.5,77.5h-57c-5,0-9-4-9-9v-57c0-5,4-9,9-9h57c5,0,9,4,9,9v57C77.5,73.5,73.5,77.5,68.5,77.5z" filter = "url(#f3)"/>
</g>
<path class="st1" d="M61.5,14.8c10.6,6.8,0,50.3,0,50.3" />
<path class="st1" d="M52.1,14.8c23.4,12.3,0,50.3,0,50.3"/>
<path class="st2" d="M37.4,58.9c-4.7,0-9.3-1.1-13.5-3.3c4.9-0.1,9.5-1.7,13.3-4.7l1.5-1.2l-1.9,0c-3.9-0.1-7.3-2.4-8.9-5.9
	c0.3,0,0.6,0,1,0c1,0,2-0.1,3-0.4l2.8-0.8L31.9,42c-4.3-0.9-7.5-4.5-7.9-8.8c1.3,0.5,2.7,0.9,4.1,0.9l2.4,0.1l-2-1.3
	c-2.8-1.9-4.4-5-4.4-8.3c0-1.4,0.3-2.9,0.9-4.2c5.5,6.4,13.4,10.2,21.7,10.6l0.9,0l-0.2-0.9c-0.2-0.7-0.3-1.5-0.3-2.3
	c0-5.5,4.5-10,9.9-10c2.7,0,5.4,1.2,7.3,3.2l0.3,0.3l0.4-0.1c1.8-0.4,3.6-0.9,5.2-1.8c-0.8,1.6-2,2.9-3.5,3.8L66,23.6l0.5,1l0.5,0
	c1.3-0.2,2.6-0.5,3.9-0.9c-1.1,1.3-2.4,2.5-3.7,3.5l-0.3,0.2l0,0.4c0,0.4,0,0.9,0,1.4c0,7.2-2.8,14.5-7.6,20.1
	C55.5,53.6,48.5,58.9,37.4,58.9z" filter = "url(#f3)" />
<g>
	<line class="st1" x1="14.5" y1="15" x2="14.5" y2="65.2"/>
	<path class="st1" d="M23.9,15c-9.4,10.4,0,50.3,0,50.3"/>
	<path class="st1" d="M33.3,14.8C14.5,35,33.3,65,33.3,65"/>
	<path class="st1" d="M42.7,14.8c-25.8,12.7,0,50.3,0,50.3"/>
</g>
</svg>
