<svg version="1.1" id="Layer_1" xmlns="http://www.w3.org/2000/svg" xmlns:xlink="http://www.w3.org/1999/xlink" x="0px" y="0px"
	 viewBox="0 0 80 80" style="enable-background:new 0 0 80 80;" xml:space="preserve">
<style type="text/css">
	.st0{fill:url(#SVGID_1_);}
	.st1{fill:#FFFFFF;}
	.st2{fill:none;stroke:#FFFFFF;stroke-miterlimit:10;}
	.st3{display:none;fill:none;stroke:#FFFFFF;stroke-miterlimit:10;}
	.st4{fill:url(#SVGID_2_);}
</style>
<defs>
    <filter id="f3" x="-0.1" y="-0.1" width="200%" height="200%">
	  	<feDropShadow dx="-0.5" dy="0.5" stdDeviation="0.5" flood-color="#333" flood-opacity="0.9" />
    </filter>
</defs>
<g>
	<linearGradient id="SVGID_1_" gradientUnits="userSpaceOnUse" x1="-1.31" y1="63.9666" x2="81.7128" y2="16.0334">
		<stop  offset="0" style="stop-color:#FF0000"/>
		<stop  offset="1" style="stop-color:#FF5555"/>
	</linearGradient>
	<path class="st0" d="M68.7,77.5h-57c-5,0-9-4-9-9v-57c0-5,4-9,9-9h57c5,0,9,4,9,9v57C77.7,73.5,73.7,77.5,68.7,77.5z" filter = "url(#f3)"/>
	<g>
		<rect x="8.6" y="13.8" class="st1" width="5.9" height="5.9"/>
		<rect x="18.1" y="13.8" class="st1" width="5.9" height="5.9"/>
		<rect x="27.6" y="13.8" class="st1" width="5.9" height="5.9"/>
		<rect x="37.1" y="13.8" class="st1" width="5.9" height="5.9"/>
		<rect x="46.6" y="13.8" class="st1" width="5.9" height="5.9"/>
		<rect x="56" y="13.8" class="st1" width="5.9" height="5.9"/>
		<rect x="65.5" y="13.8" class="st1" width="5.9" height="5.9"/>
	</g>
	<g>
		<rect x="8.6" y="60.4" class="st1" width="5.9" height="5.9"/>
		<rect x="18.1" y="60.4" class="st1" width="5.9" height="5.9"/>
		<rect x="27.6" y="60.4" class="st1" width="5.9" height="5.9"/>
		<rect x="37.1" y="60.4" class="st1" width="5.9" height="5.9"/>
		<rect x="46.6" y="60.4" class="st1" width="5.9" height="5.9"/>
		<rect x="56" y="60.4" class="st1" width="5.9" height="5.9"/>
		<rect x="65.5" y="60.4" class="st1" width="5.9" height="5.9"/>
	</g>
	<g>
		<line class="st3" x1="60" y1="23.1" x2="60" y2="55.9"/>
		<line class="st2" x1="69.9" y1="23.1" x2="69.9" y2="55.9"/>
		<line class="st2" x1="10.5" y1="23.1" x2="10.5" y2="55.9"/>
		<line class="st2" x1="50.1" y1="23.1" x2="50.1" y2="55.9"/>
		<linearGradient id="SVGID_2_" gradientUnits="userSpaceOnUse" x1="18.6698" y1="39.492" x2="55.4773" y2="39.492">
			<stop  offset="0" style="stop-color:#FFFFFF;stop-opacity:0.3"/>
			<stop  offset="0.9142" style="stop-color:#FFFFFF"/>
		</linearGradient>
		<path class="st4" d="M55.1,36.1L40.9,23.4c-0.3-0.3-0.8-0.4-1.2-0.2c-0.4,0.2-0.7,0.6-0.7,1v6c-8.3,0.1-12.2,3.6-12.6,3.9
			c-5,4.2-6.8,9.2-7.4,12.7c-0.7,3.9-0.2,6.8-0.2,6.8l0.3,1.7c0.1,0.3,0.3,0.5,0.6,0.6c0,0,0.1,0,0.1,0c0.3,0,0.5-0.1,0.6-0.4
			l0.9-1.5c2.9-4.8,6.5-8,10.8-9.5c2.9-1,5.4-1,6.7-0.8v6.2c0,0.4,0.3,0.9,0.7,1.1c0.4,0.2,0.9,0.1,1.2-0.2l14.2-12.9
			c0.2-0.2,0.4-0.5,0.4-0.9C55.5,36.6,55.3,36.3,55.1,36.1z" filter = "url(#f3)"/>
		

		
		<line class="st3" x1="20.4" y1="23.1" x2="20.4" y2="55.9"/>
		<line class="st2" x1="30.3" y1="23.1" x2="30.3" y2="55.9"/>
		<line class="st3" x1="40.2" y1="23.1" x2="40.2" y2="55.9"/>
		
	</g>
</g>
</svg>
