<svg id="Layer_1" data-name="Layer 1" xmlns="http://www.w3.org/2000/svg" xmlns:xlink="http://www.w3.org/1999/xlink" viewBox="0 0 374.27 244.41"><defs><style>.cls-1{fill:none;}.cls-2{clip-path:url(#clip-path);}.cls-3{fill:#35302e;}.cls-4{fill:#e6e7e8;}.cls-5{clip-path:url(#clip-path-2);}.cls-6{fill:#152b52;}.cls-7{fill:#fff;}.cls-8{isolation:isolate;}</style><clipPath id="clip-path" transform="translate(20.66 -22.09)"><rect class="cls-1" x="-116.66" y="-49.6" width="566.93" height="425.2"/></clipPath><clipPath id="clip-path-2" transform="translate(20.66 -22.09)"><rect class="cls-1" x="95.99" y="9.5" width="266" height="276"/></clipPath></defs><g class="cls-2"><path class="cls-3" d="M-20.37,31.6l.23-.09c0-.07,0-.17-.08-.32l-.44.22c0,.14.06.24.07.29l.45-.19-.23.09.22-.1c0-.06,0-.16-.07-.31l-.44.22c0,.14.06.24.07.29l.44-.2Z" transform="translate(20.66 -22.09)"/><path class="cls-3" d="M-20.36,31.65l.23-.1v0l-.45.2v0l.45-.2-.23.1.23-.1v0l-.45.2v0l.45-.2Z" transform="translate(20.66 -22.09)"/><path class="cls-3" d="M-20.36,31.62l.22-.09v0l-.45.18v0l.45-.18-.22.09.22-.09v0l-.45.18v0l.45-.18Z" transform="translate(20.66 -22.09)"/><path class="cls-3" d="M-20.44,31.3l.16-.23h0l-.33.46h0l.33-.46-.16.23.16-.23h0l-.33.46h0l.33-.46Z" transform="translate(20.66 -22.09)"/><path class="cls-3" d="M-10.74,74.39l-.22.09h0v0l.44-.23v0l-.44.2.22-.09-.22.12h0l.22-.11.22-.12h0l-.22.12.23-.09h0l-.23.09-.22.12Z" transform="translate(20.66 -22.09)"/><path class="cls-4" d="M228.08,22.44c4.81-.14,8.81,1.11,10.78,2.55s23.28,19.54,32.22,25.36,10.81,6,18,6.67q7.19.69,23-4l21-7.06q6.51-1.92,10-1c3.48,1,4.08,1.68,5.69,4s3.09,8.75,4.07,23-3.14,34.31-8.76,51-28.5,70.12-43,91-17.13,24.25-27,35-18.13,19.7-21.44,17-3.38-4.81-3.16-9.86S252,237.61,252.53,225s1.36-18.94-2.58-37-9.91-43.5-10.8-45.85-2.51-4.72-4.16-5.13-11.73-.84-13.91,1c-1.46,1.2-2.8,3.87-4,8l.74-120Q220.64,22.68,228.08,22.44Z" transform="translate(20.66 -22.09)"/><g class="cls-5"><path class="cls-1" d="M350,51.33l.21-.12a10,10,0,0,0-3.58-5.63A9.81,9.81,0,0,0,340.75,44c-3.37,0-7.4,1-11.88,2.5-3.18,1-6.58,2.29-10.13,3.54-8.54,3-17.94,6-27.05,6a32.74,32.74,0,0,1-13.42-2.68,67.3,67.3,0,0,1-10-5.61,156.26,156.26,0,0,1-15.43-12.21c-3.67-3.2-7-6.19-9.94-8.48s-5.48-3.89-7.61-4.3a35.44,35.44,0,0,0-6.67-.66,22.73,22.73,0,0,0-5.93.66l0,.32,0-.32c-2.12.46-4.66,2.09-7.6,4.39-8.8,6.91-21.18,19.92-35.38,26.21A32.74,32.74,0,0,1,166.29,56c-9.11,0-18.51-3-27.06-6s-16.24-6-22-6a9.79,9.79,0,0,0-5.83,1.61,10,10,0,0,0-3.59,5.63,84.57,84.57,0,0,0-3.44,23.54h0c0,10.79,2.16,20.53,4.54,31.35a108.05,108.05,0,0,0,2.63,10.67,19.58,19.58,0,0,0,2.8,5.53c3.69,5,10.64,8.92,27.16,18.21a193,193,0,0,0,67.1,23.23l0-.32,0,.32a2.88,2.88,0,0,0,.61.06,4.84,4.84,0,0,0,3.52-1.72c1.38-1.48,2.74-4.17,3.5-9a77.72,77.72,0,0,1,1.66-8.21c.21-.78.38-1.3.49-1.62s.1-.28.13-.35l0-.07v0h0l0,0v0l0-.06a11.61,11.61,0,0,1,1.34-3.27,5.11,5.11,0,0,1,4.3-2.75h9.54a5.26,5.26,0,0,1,4.47,3,12.19,12.19,0,0,1,.92,2.11,6.27,6.27,0,0,1,.2.69,1.37,1.37,0,0,1,.05.19l0,.06v0l0,0h0c0,.09,1.06,2.37,2.32,10.27.15,1,.33,1.82.52,2.61l.22-.1-.06-.31h0l-.24.1.12.45.22-.11-.22.1c.1.42.21.82.33,1.19l.21-.12-.22.11c5.76,21.15,10.29,37.87,10.29,59a170,170,0,0,1-1.74,23.68,121.49,121.49,0,0,0-1.41,16.16c0,3.57.35,6.16,1.09,7.91a4.76,4.76,0,0,0,1.4,2,3,3,0,0,0,1.94.64,8.3,8.3,0,0,0,4.17-1.54c4.79-3,11.51-10.17,20-20,39.2-44.91,61.84-110.86,67.34-126.3l-.21-.14.21.16c1.33-3.14,2.09-7,3.31-12.46,2.38-10.81,4.54-20.56,4.54-31.34a79.85,79.85,0,0,0-.79-11.21,90.43,90.43,0,0,0-2.66-12.34l-.21.12-.22.12a83.73,83.73,0,0,1,3.41,23.31c0,10.66-2.14,20.33-4.52,31.15-1.22,5.51-2,9.29-3.27,12.32h0c-5.49,15.43-28.11,81.3-67.21,126.09-5.69,6.52-10.57,11.87-14.58,15.58a39,39,0,0,1-5.36,4.28,8,8,0,0,1-4,1.48,2.72,2.72,0,0,1-1.71-.55,5.46,5.46,0,0,1-1.67-3.09,26.73,26.73,0,0,1-.58-6.22,121.79,121.79,0,0,1,1.4-16A171.8,171.8,0,0,0,253.4,216c0-21.23-4.56-38-10.32-59.19h0c-.11-.36-.21-.74-.32-1.15h0l0-.13-.22.11.06.31h0l.23-.09-.08-.32c-.18-.77-.36-1.61-.5-2.54-1.31-8.21-2.37-10.45-2.39-10.5l-.2.18.23-.09a13,13,0,0,0-1.28-3.27,5.67,5.67,0,0,0-4.83-3.28h-9.54a5.69,5.69,0,0,0-4.84,3.28,12.71,12.71,0,0,0-1.27,3.27l.23.09-.2-.18c0,.05-1.09,2.29-2.39,10.5-.74,4.69-2.05,7.22-3.33,8.59a4.41,4.41,0,0,1-3.23,1.59,1.92,1.92,0,0,1-.39,0h-.15a192.93,192.93,0,0,1-67-23.19c-14.67-8.25-21.79-12.3-25.69-16.49a18,18,0,0,1-4-6.93,106.77,106.77,0,0,1-2.61-10.58c-2.39-10.82-4.52-20.5-4.52-31.16a83.66,83.66,0,0,1,3.41-23.3,9.34,9.34,0,0,1,3.36-5.29,9.44,9.44,0,0,1,5.62-1.54c5.65,0,13.33,3,21.89,6s18,6,27.17,6A33.12,33.12,0,0,0,179.85,54c9.53-4.22,18.23-11.44,25.56-17.81,3.67-3.19,7-6.16,9.91-8.45s5.44-3.88,7.44-4.32h0l.09,0a23.38,23.38,0,0,1,5.74-.62,34.77,34.77,0,0,1,6.61.65c2,.38,4.53,1.95,7.44,4.23,8.77,6.83,21.17,20,35.47,26.35a33.12,33.12,0,0,0,13.56,2.7c9.18,0,18.61-3,27.17-6s16.24-6,21.89-6a9.4,9.4,0,0,1,5.61,1.54,9.3,9.3,0,0,1,3.37,5.29Z" transform="translate(20.66 -22.09)"/><path class="cls-6" d="M303.2,118.75c6.42-5.68,6-14.28,6-14.28,7.36-2.07,3.2-17,5-16.15s2.25,5.15,2.08,7,3-.5,3.72-6.58-2.11-9.09-2.11-9.09c1.47-2.43,1.29-6.17.71-8.85s-1.47-2.75-1.47-.24-3.05,4.87-9.62,3.65-7.15,3.49-7.15,3.49C282.09,72.5,268.06,82,258.8,92s-15.3.78-15.3.78c4.34-3.2,5.74-12.87,5.74-12.87-9,14.93-25.86,3.19-25.86,3.19,19.47-3.24,21.9-29.21,21.9-29.21-10.25,14.83-18.69,2.39-18.69,2.39,1.32,1.94,11.73,7.24,14.15-11.36,1.79-13.71-3.68-19.78-6.69-22a27.85,27.85,0,0,0-11.32.21c-8.25,1.81-23.95,22.17-42.95,30.59-28.26,12.53-65.57-24-71.75-2.33S105.16,88,109.14,106s3.09,17.71,32.45,34.21a193,193,0,0,0,67,23.21S214.1,164.87,216,153c1.3-8.18,2.36-10.38,2.36-10.38s1.32-6.31,5.88-6.31h7.43c-7.39-4.46-5.28-14.83-5.28-14.83,1.88,5,5.69,4.3,5.69,4.3-4.7-1.23-3.21-19.15,15.41-7.79s33.27,9.25,33.27,9.25c-1.61,4.09-.15,13.34,1.52,6.53s10.53-11.6,10.53-11.6S296.78,124.43,303.2,118.75Z" transform="translate(20.66 -22.09)"/><path class="cls-7" d="M252.74,116.77s6.7-46,58.14-31.88C310.88,84.89,306.49,144.11,252.74,116.77Z" transform="translate(20.66 -22.09)"/><path class="cls-7" d="M252.74,116.77s6.7-46,58.14-31.88C310.88,84.89,306.49,144.11,252.74,116.77Z" transform="translate(20.66 -22.09)"/><path class="cls-7" d="M205.24,116.77s-6.7-46-58.14-31.88C147.1,84.89,151.48,144.11,205.24,116.77Z" transform="translate(20.66 -22.09)"/><path class="cls-3" d="M239.63,142.6l.22-.1c0-.06,0-.16-.07-.31l-.44.22c0,.14.06.24.07.29l.44-.2-.22.1.22-.1c0-.06,0-.16-.07-.31l-.44.22c0,.14.06.24.07.29l.44-.2Z" transform="translate(20.66 -22.09)"/><path class="cls-3" d="M239.64,142.65l.23-.1v0l-.45.2v0l.45-.2-.23.1.23-.1v0l-.45.2v0l.45-.2Z" transform="translate(20.66 -22.09)"/><path class="cls-3" d="M239.63,142.62l.23-.09v0l-.45.18v0l.45-.18-.23.09.23-.09v0l-.45.18v0l.45-.18Z" transform="translate(20.66 -22.09)"/><path class="cls-3" d="M239.56,142.3l.16-.23h0l-.33.46h0l.33-.46-.16.23.16-.23h0l-.33.46h0l.33-.46Z" transform="translate(20.66 -22.09)"/><path class="cls-3" d="M249.26,185.39l-.22.09h0v0l.44-.23v0l-.44.2.22-.09-.22.11v0l.22-.11.22-.12h0l-.22.12.23-.09h0l-.23.09-.22.11Z" transform="translate(20.66 -22.09)"/><path class="cls-6" d="M345.55,118.4c1.32-3.09,2.08-6.89,3.29-12.4,1.1-5,2.15-9.74,3-14.47-2.87,11.91-8.39,30.82-16,35.68s-9.85,14.5-12.43,27.7S317,174.49,317,169.73s-7.35-31-5.39-4.87-13.61,17.53-14.7,26.51A26.35,26.35,0,0,0,299.78,207c-7.12,8.76-14.23,4.11-18.69,6.38s-5.32,12-5.32,12S269,230,264.9,219.82s6.57-14.93-.78-13.52-8,10.81-8,10.81c1.09-12.11-4.63-22.92-4.63-22.92h0c2,13.54,2.39,27.68-.1,45.54-5.32,38,4.59,30.37,26.86,4.86C317.42,199.74,340.05,133.83,345.55,118.4Z" transform="translate(20.66 -22.09)"/></g><g class="cls-8"><path class="cls-6" d="M7.71,265.18V165.5H22V211h.28l20.86-45.5H57.41L38,205.4l23.1,59.78H45.93L29.69,220.94,22,235.36v29.82Z" transform="translate(20.66 -22.09)"/><path class="cls-6" d="M65.67,165.5H80v79.66q0,4.07,1.47,5.53T87,252.58V266a46.19,46.19,0,0,1-8.82-.77,15.21,15.21,0,0,1-6.72-3,13,13,0,0,1-4.27-5.95,29,29,0,0,1-1.47-10.15Z" transform="translate(20.66 -22.09)"/><path class="cls-6" d="M91.29,218a51.86,51.86,0,0,1,.56-8,19,19,0,0,1,9.31-13.86,21.83,21.83,0,0,1,11.41-2.8,21.86,21.86,0,0,1,11.41,2.8,19.37,19.37,0,0,1,7.21,7.42,19.68,19.68,0,0,1,2.1,6.44,53.14,53.14,0,0,1,.56,8v23.38a53.14,53.14,0,0,1-.56,8,19.68,19.68,0,0,1-2.1,6.44,19.37,19.37,0,0,1-7.21,7.42,21.86,21.86,0,0,1-11.41,2.8,21.83,21.83,0,0,1-11.41-2.8,19,19,0,0,1-9.31-13.86,51.86,51.86,0,0,1-.56-8Zm14.28,25.62q0,4.06,1.89,6.09a7.45,7.45,0,0,0,10.22,0q1.89-2,1.89-6.09V215.76q0-4.06-1.89-6.09a7.45,7.45,0,0,0-10.22,0q-1.89,2-1.89,6.09Z" transform="translate(20.66 -22.09)"/><path class="cls-6" d="M171.37,265.18V257.9h-.28a26.55,26.55,0,0,1-5.67,6q-2.88,2.1-8,2.1a18,18,0,0,1-5.11-.77,13.12,13.12,0,0,1-5-2.87,13.7,13.7,0,0,1-3.85-5.67,26.37,26.37,0,0,1-1.47-9.59,50.17,50.17,0,0,1,1-10.57,16.77,16.77,0,0,1,3.64-7.63,15.19,15.19,0,0,1,6.86-4.41A35,35,0,0,1,164.51,223h1.54a8.16,8.16,0,0,1,1.54.14,8.87,8.87,0,0,0,1.68.14,17.75,17.75,0,0,1,2.1.14V216a10.94,10.94,0,0,0-1.54-6q-1.54-2.39-5.6-2.38a8.08,8.08,0,0,0-5.11,1.82,8.61,8.61,0,0,0-3,5.32H142.25q.56-9.53,6.44-15.4a20,20,0,0,1,6.72-4.41,23.07,23.07,0,0,1,8.82-1.61,24.93,24.93,0,0,1,8.4,1.4,19.11,19.11,0,0,1,6.86,4.2,20.66,20.66,0,0,1,4.48,7,26.29,26.29,0,0,1,1.68,9.8v49.42Zm0-30.52a23.54,23.54,0,0,0-3.92-.42,14,14,0,0,0-7.91,2.17c-2.2,1.45-3.29,4.08-3.29,7.91a10.39,10.39,0,0,0,2,6.58,6.51,6.51,0,0,0,5.46,2.52,7.06,7.06,0,0,0,5.67-2.38,10.08,10.08,0,0,0,2-6.72Z" transform="translate(20.66 -22.09)"/><path class="cls-6" d="M196.15,265.18V165.5h14.28v59.64h.28l17.22-30.94h14.28L225.27,223l20.44,42.14H230.17l-12.88-30.66-6.86,10.78v19.88Z" transform="translate(20.66 -22.09)"/></g></g></svg>