<?xml version="1.0" encoding="utf-8"?>
<!-- Generator: Adobe Illustrator 24.2.0, SVG Export Plug-In . SVG Version: 6.00 Build 0)  -->
<svg version="1.1" id="Layer_1" xmlns="http://www.w3.org/2000/svg" xmlns:xlink="http://www.w3.org/1999/xlink" x="0px" y="0px"
	 viewBox="0 0 80 80" style="enable-background:new 0 0 80 80;" xml:space="preserve">
<style type="text/css">
	.st0{fill:#F3B5DD;}
	.st1{fill:none;stroke:#F46D78;stroke-width:6;stroke-linecap:round;stroke-linejoin:round;stroke-miterlimit:10;}
	.st2{clip-path:url(#SVGID_2_);fill:url(#SVGID_3_);}
	.st3{clip-path:url(#SVGID_2_);}
	.st4{fill:#B4E4ED;}
	.st5{fill:url(#SVGID_4_);}
	.st6{fill:#FFFFFF;}
	.st7{opacity:0.52;}
	.st8{opacity:0.55;}
	.st9{fill:url(#SVGID_5_);}
	.st10{fill:url(#SVGID_6_);}
	.st11{fill:#295071;}
	.st12{fill:url(#SVGID_7_);}
	.st13{fill:#F5D1C4;}
	.st14{fill:url(#SVGID_8_);}
	.st15{fill:#A52A35;}
	.st16{fill:#DE9285;}
	.st17{fill:#112627;}
	.st18{fill:url(#SVGID_9_);}
	.st19{fill:#FD9F9B;}
	.st20{fill:none;stroke:#F46D78;stroke-width:0.1667;stroke-linecap:round;stroke-miterlimit:10;}
	.st21{fill:none;stroke:#4182B5;stroke-width:0.1111;stroke-linecap:round;stroke-miterlimit:10;}
	.st22{fill:none;}
	.st23{fill:#FAE69A;}
	.st24{fill:#689278;}
	.st25{fill:#FF5B45;}
	.st26{fill:#0B230D;}
	.st27{fill:#F46D78;}
	.st28{fill:#F1E993;}
	.st29{fill:#00838A;}
	.st30{fill:#014B6B;}
	.st31{opacity:0.5;}
	.st32{fill:#C7F0EF;}
	.st33{opacity:0.45;}
	.st34{fill:#5793C0;}
	.st35{fill:url(#SVGID_16_);}
	.st36{fill:url(#SVGID_17_);}
	.st37{fill:url(#SVGID_18_);}
	.st38{opacity:0.65;fill:#C7F0EF;enable-background:new    ;}
	.st39{fill:url(#SVGID_19_);}
	.st40{fill:url(#SVGID_20_);}
	.st41{opacity:0.75;}
	.st42{fill:#FAE7F4;}
	.st43{opacity:0.12;fill:#F5D1C4;enable-background:new    ;}
	.st44{opacity:0.15;fill:#F5D1C4;enable-background:new    ;}
	.st45{opacity:8.000000e-02;fill:#F5D1C4;enable-background:new    ;}
	.st46{opacity:0.15;fill:#FFF4F0;enable-background:new    ;}
	.st47{opacity:0.4;}
	.st48{fill:#FA3924;}
	.st49{fill:#EC8930;stroke:#EAB67C;stroke-width:8.333334e-02;stroke-linecap:round;stroke-linejoin:round;stroke-miterlimit:10;}
</style>
<symbol  id="RoundTree" viewBox="-51.5 -88.2 103 176.5">
	<circle class="st0" cx="0" cy="36.7" r="51.5"/>
	<g>
		<line class="st1" x1="0" y1="64.8" x2="0" y2="-85.2"/>
		<line class="st1" x1="-32" y1="35.7" x2="0" y2="9"/>
		<line class="st1" x1="0" y1="34.7" x2="21" y2="54.7"/>
	</g>
</symbol>
<defs>
    <filter id="f3" x="-0.1" y="-0.1" width="200%" height="200%">
	  	<feDropShadow dx="-0.5" dy="0.5" stdDeviation="0.5" flood-color="#333" flood-opacity="0.9" />
    </filter>
</defs>
<g>
	<defs>
		<path id="SVGID_1_" d="M68.5,77.5h-57c-5,0-9-4-9-9v-57c0-5,4-9,9-9h57c5,0,9,4,9,9v57C77.5,73.5,73.5,77.5,68.5,77.5z"/>
	</defs>
	<clipPath id="SVGID_2_">
		<use xlink:href="#SVGID_1_"  style="overflow:visible;"/>
	</clipPath>
	<path d="M68.5,77.5h-57c-5,0-9-4-9-9v-57c0-5,4-9,9-9h57c5,0,9,4,9,9v57C77.5,73.5,73.5,77.5,68.5,77.5z" filter="url(#f3)"/>
	<g id="all" class="st3">
		<g id="DayGroup">
			<g>
				<g>
					<rect x="-21.6" y="2.4" class="st4" width="121.4" height="75.9"/>
					
						<linearGradient id="SVGID_4_" gradientUnits="userSpaceOnUse" x1="1372.0389" y1="-618.6975" x2="1372.0389" y2="64.1636" gradientTransform="matrix(2.777778e-02 0 0 -2.777778e-02 0.9722 27.9181)">
						<stop  offset="8.862181e-02" style="stop-color:#FFECE6;stop-opacity:0.5"/>
						<stop  offset="1" style="stop-color:#F5D1C4;stop-opacity:0"/>
					</linearGradient>
					<rect x="-21.6" y="26.1" class="st5" width="121.4" height="19"/>
				</g>
				<g>
					<g>
						<path class="st6" d="M89,32.7c-0.8,1.4-1.8,2.7-3,3.9c0,0,0,0,0,0c-0.6,0.6-1.3,1.2-1.9,1.7c-0.5,0.4-0.4,1.2,0.2,1.5
							c0.5,0.3,1.1,0.7,1.4,1.3c0.2,0.5,0.3,1,0.3,1.2c0,0.2,0.1,1.3-0.3,2c-0.6,1-2.9,1.1-3.2,1.1c-6.6,0-14.3-0.2-14.6-0.2
							c0-0.5,0-1.2,0.1-2c0.1-1.1,0.4-2.9,1.4-4.8c0.3-0.5,1.6-2.9,3.3-3.6c0.5-0.2,0.9-0.4,1.4-0.6c0.6,0.1,1.3,0.2,1.9-0.2
							c0.4-0.3,0.3-0.7,0.7-1.8c0.5-1.2,0.8-1.7,1.3-2.1c0.9-0.6,1.4-0.2,1.9-0.8c0.3-0.4,0.4-0.8,1-1.4c0.1-0.1,0.1-0.1,0.2-0.2
							c0.5-0.4,1.3-0.7,1.9-0.4c0.4,0.1,0.6,0.4,0.8,0.7c0.4,0.6,1.2,0.7,1.7,0.2c0.4-0.4,0.9-0.7,1.5-0.9c1.2-0.5,2.6-0.4,3.6,0.5
							c0.1,0.1,0.3,0.3,0.3,0.5c0,0.1,0.1,0.4,0.1,0.6C91.1,29.8,90.3,30.3,89,32.7z"/>
					</g>
					<g>
						<path class="st6" d="M-1.4,38.3c0,2.6-1.2,5.2-3.3,6.7h-16.9v-4.2c0.9-0.4,1.8-0.7,2.7-0.6c0.8,0.1,1.5-0.5,1.6-1.2
							c0.1-0.6,0.4-1.2,0.9-1.6c0.4-0.4,0.9-0.6,1.5-0.7c1.2-0.2,2.2-1,2.6-2.1c0.6-1.6,1.4-3.2,2.4-4.7c1-1.6,2.7-3.3,4.6-3
							c0.2,0,0.5,0.1,0.8,0c0.3-0.1,0.5-0.2,0.7-0.4c0.7-0.5,1.7-1.1,2.6-1.3c0.4-0.1,1.1-0.2,1.6,0.2c0.4,0.3,0.5,0.9,0.5,1.1
							c0.3,1.9-3.7,6.4-4,6.8c-0.3,0.6-0.2,1.3,0.3,1.7C-1.9,35.7-1.4,37.1-1.4,38.3z"/>
					</g>
					<g>
						<path class="st6" d="M38.7,47.2c0-3.8,2.9-10.6,3.2-11.1c2.1-4.9,2.6-5.2,3.4-6c1.2-1.3,3-2.1,4.6-2c0.8,0.1,1.5-0.5,1.6-1.2
							c0.1-0.6,0.4-1.2,0.9-1.6c0.4-0.4,0.9-0.6,1.5-0.7c1.2-0.2,2.2-1,2.6-2.1c0.6-1.6,1.4-3.2,2.4-4.7c1-1.6,2.7-3.3,4.6-3
							c0.2,0,0.5,0.1,0.8,0c0.3-0.1,0.5-0.2,0.7-0.4c0.7-0.5,1.7-1.1,2.6-1.3c0.4-0.1,1.1-0.2,1.6,0.2c0.4,0.3,0.5,0.9,0.5,1.1
							c0.3,1.9-3.7,6.4-4,6.8c-0.3,0.6-0.2,1.3,0.3,1.7c0.9,0.7,1.4,2.1,1.4,3.3c0,2.6-1.3,5.2-3.4,6.8c-0.8,0.6-1.8,1.2-2.1,2.1
							c-0.1,0.4-0.1,0.8-0.1,1.2c0.2,4.4-1.3,8.9-4,12.3c-0.2,0.3-0.4,0.5-0.7,0.7c-0.2,0.1-0.5,0.2-0.7,0.2
							c-1.4,0.2-2.8,0.5-4.3,0.7c-1.6,0.3-3.3,0.5-4.9,0.5c-2.7,0-2.1-0.5-5.9-0.9c-0.5,0-1.4-0.1-1.9-0.7
							C38.7,48.5,38.7,47.7,38.7,47.2z"/>
					</g>
					<g>
						<path class="st6" d="M30.9,42.6c-0.9,1.1-1.8,1.9-2.7,2.6h-22c0,0,0-0.1,0-0.1c-0.4-0.9-0.3-2-0.2-3.1c0.2-2,0.8-3.4,1.2-4
							c1.5-2.4,3.7-4.4,6.3-5.5c1.8-0.7,3.8-1,5.6-0.6c1.4,0.3,2.8-0.6,3.4-1.9c0.7-1.7,1.9-3.8,3.9-4.6c0.7-0.3,2-0.8,3.3-0.2
							c0.3,0.2,0.6,0.4,0.9,0.6c0.5,0.4,1.1,0.6,1.7,0.3c0.5-0.2,1.2-0.5,1.9-0.6c0.8-0.1,2.4-0.4,3.2,0.2
							C39.5,27.4,36.2,36.6,30.9,42.6z"/>
					</g>
				</g>
				<g>
					<g class="st7">
						<g>
							<path class="st6" d="M89,57.5c-0.8-1.4-1.8-2.7-3-3.9c0,0,0,0,0,0c-0.6-0.6-1.3-1.2-1.9-1.7c-0.5-0.4-0.4-1.2,0.2-1.5
								c0.5-0.3,1.1-0.7,1.4-1.3c0.2-0.5,0.3-1,0.3-1.2c0-0.2,0.1-1.3-0.3-2c-0.6-1-2.9-1.1-3.2-1.1c-6.6,0-14.3,0.2-14.6,0.2
								c0,0.5,0,1.2,0.1,2c0.1,1.1,0.4,2.9,1.4,4.8c0.3,0.5,1.6,2.9,3.3,3.6c0.5,0.2,0.9,0.4,1.4,0.6c0.6-0.1,1.3-0.2,1.9,0.2
								c0.4,0.3,0.3,0.7,0.7,1.8c0.5,1.2,0.8,1.7,1.3,2.1c0.9,0.6,1.4,0.2,1.9,0.8c0.3,0.4,0.4,0.8,1,1.4c0.1,0.1,0.1,0.1,0.2,0.2
								c0.5,0.4,1.3,0.7,1.9,0.4c0.4-0.1,0.6-0.4,0.8-0.7c0.4-0.6,1.2-0.7,1.7-0.2c0.4,0.4,0.9,0.7,1.5,0.9c1.2,0.5,2.6,0.4,3.6-0.5
								c0.1-0.1,0.3-0.3,0.3-0.5c0-0.1,0.1-0.4,0.1-0.6C91.1,60.4,90.3,59.9,89,57.5z"/>
						</g>
						<g>
							<path class="st6" d="M-1.4,51.9c0-2.6-1.2-5.2-3.3-6.7h-16.9v4.2c0.9,0.4,1.8,0.7,2.7,0.6c0.8-0.1,1.5,0.5,1.6,1.2
								c0.1,0.6,0.4,1.2,0.9,1.6c0.4,0.4,0.9,0.6,1.5,0.7c1.2,0.2,2.2,1,2.6,2.1c0.6,1.6,1.4,3.2,2.4,4.7c1,1.6,2.7,3.3,4.6,3
								c0.2,0,0.5-0.1,0.8,0c0.3,0.1,0.5,0.2,0.7,0.4c0.7,0.5,1.7,1.1,2.6,1.3c0.4,0.1,1.1,0.2,1.6-0.2c0.4-0.3,0.5-0.9,0.5-1.1
								c0.3-1.9-3.7-6.4-4-6.8c-0.3-0.6-0.2-1.3,0.3-1.7C-1.9,54.5-1.4,53.1-1.4,51.9z"/>
						</g>
						<g>
							<path class="st6" d="M38.7,43.1c0,3.8,2.9,10.6,3.2,11.1c2.1,4.9,2.6,5.2,3.4,6c1.2,1.3,3,2.1,4.6,2c0.8-0.1,1.5,0.5,1.6,1.2
								c0.1,0.6,0.4,1.2,0.9,1.6c0.4,0.4,0.9,0.6,1.5,0.7c1.2,0.2,2.2,1,2.6,2.1c0.6,1.6,1.4,3.2,2.4,4.7c1,1.6,2.7,3.3,4.6,3
								c0.2,0,0.5-0.1,0.8,0c0.3,0.1,0.5,0.2,0.7,0.4c0.7,0.5,1.7,1.1,2.6,1.3c0.4,0.1,1.1,0.2,1.6-0.2c0.4-0.3,0.5-0.9,0.5-1.1
								c0.3-1.9-3.7-6.4-4-6.8c-0.3-0.6-0.2-1.3,0.3-1.7c0.9-0.7,1.4-2.1,1.4-3.3c0-2.6-1.3-5.2-3.4-6.8c-0.8-0.6-1.8-1.2-2.1-2.1
								c-0.1-0.4-0.1-0.8-0.1-1.2c0.2-4.4-1.3-8.9-4-12.3c-0.2-0.3-0.4-0.5-0.7-0.7c-0.2-0.1-0.5-0.2-0.7-0.2
								c-1.4-0.2-2.8-0.5-4.3-0.7c-1.6-0.3-3.3-0.5-4.9-0.5c-2.7,0-2.1,0.5-5.9,0.9c-0.5,0-1.4,0.1-1.9,0.7
								C38.7,41.7,38.7,42.5,38.7,43.1z"/>
						</g>
						<g>
							<path class="st6" d="M30.9,47.6c-0.9-1.1-1.8-1.9-2.7-2.6h-22c0,0,0,0.1,0,0.1c-0.4,0.9-0.3,2-0.2,3.1c0.2,2,0.8,3.4,1.2,4
								c1.5,2.4,3.7,4.4,6.3,5.5c1.8,0.7,3.8,1,5.6,0.6c1.4-0.3,2.8,0.6,3.4,1.9c0.7,1.7,1.9,3.8,3.9,4.6c0.7,0.3,2,0.8,3.3,0.2
								c0.3-0.2,0.6-0.4,0.9-0.6c0.5-0.4,1.1-0.6,1.7-0.3c0.5,0.2,1.2,0.5,1.9,0.6c0.8,0.1,2.4,0.4,3.2-0.2
								C39.5,62.8,36.2,53.6,30.9,47.6z"/>
						</g>
					</g>
					<g class="st8">
						<g>
							
								<linearGradient id="SVGID_5_" gradientUnits="userSpaceOnUse" x1="789.3308" y1="-1121.1849" x2="789.3308" y2="-539.4824" gradientTransform="matrix(2.777778e-02 0 0 2.777778e-02 0.9722 77.1375)">
								<stop  offset="0" style="stop-color:#295071"/>
								<stop  offset="1" style="stop-color:#41A0B5"/>
							</linearGradient>
							<path class="st9" d="M30.7,46c-1.3,4.9-2.1,8.7-2.6,11.4c-0.3,1.5-0.6,3.3-2.1,4.2c-1.4,0.9-3.6,0.8-4.7-0.3
								c-1.4-1.3-2-2.8-2.5-4.6c-0.7-2.5-1.8-5.9-3.5-10.3C20.3,46.2,25.5,46.1,30.7,46z"/>
						</g>
						<g>
							
								<linearGradient id="SVGID_6_" gradientUnits="userSpaceOnUse" x1="2015.4459" y1="-1112.0172" x2="2015.4459" y2="-527.3427" gradientTransform="matrix(2.777778e-02 0 0 2.777778e-02 0.9722 77.1375)">
								<stop  offset="0" style="stop-color:#295071"/>
								<stop  offset="1" style="stop-color:#41A0B5"/>
							</linearGradient>
							<path class="st10" d="M64.7,46.4c-1.3,4.9-2.1,8.6-2.6,11.3c-0.3,1.5-0.6,3.3-2.1,4.2c-1.4,0.9-3.6,0.8-4.7-0.3
								c-1.4-1.3-2-2.8-2.5-4.6c-0.7-2.5-1.8-6.4-3.5-10.8C54.4,46.2,59.4,46.4,64.7,46.4z"/>
						</g>
						<polygon class="st11" points="63.3,46.4 54.3,43.4 43.3,39.8 30.6,40.4 25,43 21,44.8 17.4,46.4 29.5,64.5 32.7,69.2 
							32.9,69.6 35.7,65.9 36,65.5 36.6,65.8 37.3,66 39.5,66.9 43.3,63.6 						"/>
						<g>
							
								<linearGradient id="SVGID_7_" gradientUnits="userSpaceOnUse" x1="1482.89" y1="-1342.7354" x2="1482.89" y2="-271.0988" gradientTransform="matrix(2.777778e-02 0 0 2.777778e-02 0.9722 77.1375)">
								<stop  offset="0" style="stop-color:#4182B5"/>
								<stop  offset="1" style="stop-color:#41A0B5"/>
							</linearGradient>
							<path class="st12" d="M63.3,46.4l-8.9-3l-11-3.5l-12.7,0.6L25,43l-4,1.8c2.8,3.3,7.9,3.3,11.7,5.4c0.7,0.4,1.4,0.9,1.4,1.7
								c0,1.3-1.8,1.7-2.3,2.9c-0.5,1.1,0.4,2.4,1.5,2.9c1.1,0.5,2.4,0.6,3.5,0.9c1.2,0.3,2.4,1.2,2.5,2.4c0.1,1.3-1,2.3-2.1,2.8
								c-1.1,0.5-2.4,0.8-3.4,1.6c-1.1,0.9-1.5,2.5-1.1,3.8l0.2,0.4l2.8-3.7l0.3-0.4l3.5,1.4L63.3,46.4z"/>
						</g>
						<polygon class="st13" points="25.8,42.6 30.6,40.3 43.3,39.8 60.3,45.3 56.8,44.9 44.7,42.9 28.5,42.9 23.3,43.7 						"/>
						
							<linearGradient id="SVGID_8_" gradientUnits="userSpaceOnUse" x1="1068.6211" y1="-612.8256" x2="1068.6211" y2="-460.2042" gradientTransform="matrix(2.777778e-02 0 0 2.777778e-02 0.9722 77.1375)">
							<stop  offset="0" style="stop-color:#295071"/>
							<stop  offset="1" style="stop-color:#41A0B5"/>
						</linearGradient>
						<path class="st14" d="M34.6,60.2c-0.3,0-0.7,0-1,0c-0.1,0-0.2,0-0.3,0h-2.6c0,0.1,0,0.1,0,0.2c0-0.1,0-0.1-0.1-0.2
							c0,0,0,0,0,0c-1.3,0-2.6-0.1-3.9,0c0.5,1.1,0.7,2.2,0.9,2.8c0.1,0.5,0.3,0.8,0.7,1.2c0.3,0.3,0.9,0.3,1.2,0.1
							c0.4-0.2,0.5-0.7,0.5-1.1c0-0.2,0.1-0.4,0.1-0.6c0.1-0.3,0.3-0.5,0.6-0.5l0,0c0.3,0,0.5,0.2,0.6,0.5c0.1,0.2,0.1,0.3,0.1,0.5
							c0.1,0.5,0.3,0.8,0.7,1.2c0.3,0.3,0.9,0.3,1.2,0.1c0.4-0.2,0.5-0.7,0.5-1.1C34.1,62.4,34.3,61.5,34.6,60.2z"/>
						<g>
							<path class="st15" d="M42.3,54.2h2.9c0.2,0,0.3,0.3,0.3,0.5c-0.2,0.7-0.4,1.6-0.6,2.4c-0.3,0.8-0.6,1.6-0.8,2.2
								c-0.1,0.3-0.4,0.3-0.5,0c-0.3-0.7-0.6-1.4-0.9-2.3c-0.3-0.9-0.5-1.7-0.6-2.4C41.9,54.4,42.1,54.2,42.3,54.2z"/>
							<circle class="st16" cx="43.7" cy="56.5" r="0.2"/>
							<circle class="st16" cx="43.8" cy="55.6" r="0.2"/>
							<circle class="st16" cx="44.4" cy="56" r="0.2"/>
							<circle class="st16" cx="44.4" cy="55" r="0.2"/>
							<circle class="st16" cx="42.8" cy="55.7" r="0.2"/>
							<rect x="43.2" y="51.4" class="st17" width="0.8" height="2.8"/>
						</g>
						<g>
							
								<linearGradient id="SVGID_9_" gradientUnits="userSpaceOnUse" x1="1772.443" y1="-1234.9951" x2="1772.443" y2="-872.8559" gradientTransform="matrix(2.777778e-02 0 0 2.777778e-02 0.9722 77.1375)">
								<stop  offset="0" style="stop-color:#295071"/>
								<stop  offset="1" style="stop-color:#41A0B5"/>
							</linearGradient>
							<path class="st18" d="M41.1,42.8c0,2.5-0.4,6.1,0.8,8.2c0.7,1.1,1.7,1.8,2.9,1.9c1.1,0,2.2-0.6,3-1.7c0.5-0.7,0.8-1.6,1.4-2
								c0.6-0.4,1.4-0.2,2,0.2s1.1,1,1.7,1.6c1.3,1.2,3.3,1.8,4.6,0.4c1.4-1.5,1.2-4.2,1.8-6.3"/>
						</g>
						<g>
							<polygon class="st19" points="27.6,63.3 26.8,61.1 28.7,61.8 							"/>
							<polygon class="st19" points="27.5,61.4 26.6,59.7 28.5,59.7 							"/>
							<polygon class="st19" points="27.6,59.7 26.4,57.7 28.8,57.8 							"/>
							<g>
								<line class="st20" x1="27.6" y1="62.4" x2="27.6" y2="57.1"/>
							</g>
						</g>
						<g>
							<defs>
								<rect id="SVGID_10_" x="21.2" y="46.4" width="4.3" height="7.4"/>
							</defs>
							<clipPath id="SVGID_11_">
								<use xlink:href="#SVGID_10_"  style="overflow:visible;"/>
							</clipPath>
							<g style="clip-path:url(#SVGID_11_);">
								
									<use xlink:href="#RoundTree"  width="103" height="176.5" x="-51.5" y="-88.2" transform="matrix(4.215192e-02 0 0 4.215192e-02 23.3407 50.1154)" style="overflow:visible;"/>
							</g>
						</g>
						<g>
							<defs>
								<rect id="SVGID_12_" x="52.5" y="44.8" width="4.3" height="7.4"/>
							</defs>
							<clipPath id="SVGID_13_">
								<use xlink:href="#SVGID_12_"  style="overflow:visible;"/>
							</clipPath>
							<g style="opacity:0.55;clip-path:url(#SVGID_13_);">
								
									<use xlink:href="#RoundTree"  width="103" height="176.5" x="-51.5" y="-88.2" transform="matrix(4.215192e-02 0 0 4.215192e-02 54.6595 48.4715)" style="overflow:visible;"/>
							</g>
						</g>
						<g>
							<polygon class="st19" points="34.8,72.5 34.1,70.3 35.9,70.9 							"/>
							<polygon class="st19" points="34.8,70.5 33.9,68.9 35.8,68.9 							"/>
							<polygon class="st19" points="34.8,68.9 33.6,66.8 36,66.9 							"/>
							<g>
								<line class="st20" x1="34.9" y1="71.5" x2="34.9" y2="64.1"/>
							</g>
						</g>
						<g>
							<line class="st21" x1="60.5" y1="50.7" x2="60.6" y2="48.4"/>
							<line class="st21" x1="60.1" y1="50.3" x2="60.5" y2="50.7"/>
							<line class="st21" x1="60" y1="49.7" x2="60.6" y2="50.1"/>
							<line class="st21" x1="60" y1="49.1" x2="60.6" y2="49.4"/>
							<line class="st21" x1="61" y1="50.3" x2="60.6" y2="50.7"/>
							<line class="st21" x1="61.1" y1="49.7" x2="60.6" y2="50.1"/>
							<line class="st21" x1="61.1" y1="49.1" x2="60.5" y2="49.4"/>
						</g>
						<g>
							<polygon class="st19" points="47.8,53.1 47,50.9 48.9,51.6 							"/>
							<polygon class="st19" points="47.7,51.1 46.8,49.5 48.7,49.5 							"/>
							<polygon class="st19" points="47.8,49.5 46.5,47.4 49,47.6 							"/>
							<g>
								<line class="st20" x1="47.8" y1="52.1" x2="47.8" y2="44.7"/>
							</g>
						</g>
						<g>
							<defs>
								<rect id="SVGID_14_" x="38.7" y="56.6" width="4.3" height="7.4"/>
							</defs>
							<clipPath id="SVGID_15_">
								<use xlink:href="#SVGID_14_"  style="overflow:visible;"/>
							</clipPath>
							<g transform="matrix(1 0 0 1 0 3.814697e-06)" style="opacity:0.55;clip-path:url(#SVGID_15_);">
								
									<use xlink:href="#RoundTree"  width="103" height="176.5" x="-51.5" y="-88.2" transform="matrix(4.215192e-02 0 0 4.215192e-02 40.8759 60.274)" style="overflow:visible;"/>
							</g>
						</g>
						<g>
							<line class="st21" x1="28.4" y1="65.8" x2="28.5" y2="63.6"/>
							<polyline class="st21" points="28,65.5 28.4,65.8 28.9,65.5 							"/>
							<polyline class="st21" points="27.9,64.8 28.4,65.2 29,64.9 							"/>
							<polyline class="st21" points="27.9,64.2 28.5,64.6 29.1,64.3 							"/>
						</g>
						<g>
							<rect x="30.2" y="62.3" class="st19" width="0.4" height="3.2"/>
							<path class="st22" d="M32,65.9c-0.1,0-0.1,0-0.2-0.1L32,65.9z"/>
							<path class="st22" d="M32.5,66.6c0-0.3-0.2-0.6-0.5-0.7l0,0l-0.2-0.1l-1.5-0.5l-1.5,0.4c-0.4,0.1-0.7,0.4-0.7,0.8
								c0,0.4,0.3,0.8,0.8,0.8c0,0,0.1,0,0.1,0c0,0.1,0,0.1,0,0.2c0,0.4,0.3,0.8,0.8,0.8c0.2,0,0.4-0.1,0.6-0.3
								c0.1,0.2,0.3,0.3,0.6,0.3c0.4,0,0.8-0.3,0.8-0.8c0-0.1,0-0.1,0-0.2c0,0,0,0,0,0C32.2,67.4,32.5,67.1,32.5,66.6z"/>
							<path class="st23" d="M32.5,66.6c0-0.3-0.2-0.6-0.5-0.7l0,0l-0.2-0.1l-1.5-0.5l-1.5,0.4c-0.4,0.1-0.7,0.4-0.7,0.8
								c0,0.4,0.3,0.8,0.8,0.8c0,0,0.1,0,0.1,0c0,0.1,0,0.1,0,0.2c0,0.4,0.3,0.8,0.8,0.8c0.2,0,0.4-0.1,0.6-0.3
								c0.1,0.2,0.3,0.3,0.6,0.3c0.4,0,0.8-0.3,0.8-0.8c0-0.1,0-0.1,0-0.2c0,0,0,0,0,0C32.2,67.4,32.5,67.1,32.5,66.6z"/>
							<path class="st24" d="M31.8,66.2c0-0.2-0.1-0.4-0.3-0.5l0,0l-0.1,0l-1-0.3l-1,0.3c-0.2,0-0.4,0.2-0.4,0.5
								c0,0.3,0.2,0.5,0.5,0.5c0,0,0,0,0,0c0,0,0,0.1,0,0.1c0,0.3,0.2,0.5,0.5,0.5c0.2,0,0.3-0.1,0.4-0.2c0.1,0.1,0.2,0.2,0.4,0.2
								c0.3,0,0.5-0.2,0.5-0.5c0,0,0-0.1,0-0.1c0,0,0,0,0,0C31.5,66.7,31.8,66.5,31.8,66.2z"/>
							<path class="st23" d="M29.9,66.1h1c0-0.1-0.1-0.2-0.2-0.3c-0.1-0.2-0.3-0.2-0.4-0.3c-0.1,0.1-0.2,0.1-0.3,0.3
								C30,65.9,29.9,66,29.9,66.1z"/>
						</g>
						<g>
							<path class="st15" d="M37.8,67.1h2.9c0.2,0,0.3,0.3,0.3,0.5c-0.2,0.7-0.4,1.6-0.6,2.4c-0.3,0.8-0.6,1.6-0.8,2.2
								c-0.1,0.3-0.4,0.3-0.5,0c-0.3-0.7-0.6-1.4-0.9-2.3c-0.3-0.9-0.5-1.7-0.6-2.4C37.5,67.3,37.6,67.1,37.8,67.1z"/>
							<circle class="st16" cx="39.3" cy="69.4" r="0.2"/>
							<circle class="st16" cx="39.4" cy="68.4" r="0.2"/>
							<circle class="st16" cx="40" cy="68.9" r="0.2"/>
							<circle class="st16" cx="40" cy="67.8" r="0.2"/>
							<circle class="st16" cx="38.4" cy="68.6" r="0.2"/>
							<path class="st17" d="M39.2,64.2L39.2,64.2c-0.2,0-0.4,0.2-0.4,0.4v2.4h0.8v-2.4C39.6,64.4,39.4,64.2,39.2,64.2z"/>
						</g>
						<g>
							<polygon class="st19" points="36.1,60.2 35.3,58 37.2,58.6 							"/>
							<polygon class="st19" points="36,58.2 35.2,56.6 37.1,56.6 							"/>
							<polygon class="st19" points="36.1,56.6 34.9,54.5 37.3,54.6 							"/>
							<g>
								<line class="st20" x1="36.1" y1="59.2" x2="36.1" y2="51.8"/>
							</g>
						</g>
						<g>
							<path class="st25" d="M43.9,72.3C43.9,72.3,43.9,72.3,43.9,72.3"/>
							<rect x="43.7" y="62.1" class="st26" width="0.3" height="2.3"/>
							<path class="st25" d="M43.9,68.4c0.2,0.2,0.4,0.3,0.5,0.2c0.1,0,0.1-0.1,0.3-0.2c0.1,0,0.2-0.1,0.3,0
								c0.1,0.1,0.2,0.2,0.2,0.2c0,0.2-0.1,0.3-0.1,0.3c-0.1,0.1-0.3,0.2-0.5,0.2c-0.1,0-0.2,0.1-0.4,0.2c-0.1,0.1-0.2,0.2-0.2,0.3
								c0,0.1,0,0.8,0,0.8c0,0-0.1,0-0.1,0C43.8,70.1,43.8,68.9,43.9,68.4L43.9,68.4L43.9,68.4z"/>
							<path class="st25" d="M43.8,68.6v-1.4c0,0.1,0,0.1,0.1,0.1c0.1,0,0.1,0,0.1-0.1c0.2-0.1,0.4-0.2,0.5-0.1
								c0.1,0,0.1,0.1,0.1,0.1c0,0,0.1,0.1,0.2,0c0.1,0,0.1-0.1,0.3-0.2c0.1,0,0.2-0.1,0.3,0c0.1,0,0.1,0.1,0.1,0.1
								c0.1,0.2-0.1,0.4-0.1,0.4c-0.1,0.1-0.2,0.1-0.4,0.2c-0.1,0.1-0.4,0.2-0.6,0.3C44.3,68.2,44.1,68.4,43.8,68.6L43.8,68.6z"/>
							<path class="st25" d="M43.9,65.4c0.2,0.2,0.4,0.3,0.5,0.2c0.1,0,0.1-0.1,0.3-0.2c0.1,0,0.2-0.1,0.3,0
								c0.1,0.1,0.2,0.2,0.2,0.2c0,0.2-0.1,0.3-0.1,0.3c-0.1,0.1-0.1,0.1-0.5,0.2c-0.2,0.1-0.3,0.1-0.4,0.2C44,66.6,44,66.8,44,66.8
								c0,0.2,0,0.3,0,0.3c0,0.1,0,0.2,0,0.2c0,0-0.1,0-0.1,0C43.9,66.8,43.9,65.9,43.9,65.4L43.9,65.4L43.9,65.4z"/>
							<path class="st25" d="M44.8,71.5L44.8,71.5c0-0.1-0.1-0.1-0.1-0.2c-0.1,0-0.2,0-0.2,0c-0.1,0.1-0.1,0.2-0.2,0.2
								c0,0,0,0-0.1,0c-0.1,0-0.1-0.1-0.1-0.2c0,0-0.1,0-0.1,0l0,0c-0.1,0-0.1,0-0.2,0c-0.1,0.1-0.1,0.1-0.2,0.2c0,0-0.1,0-0.1,0
								c-0.1,0-0.1-0.1-0.2-0.2c0,0-0.1-0.1-0.2,0c0,0-0.1,0.1-0.1,0.2c0,0.1,0.1,0.2,0.1,0.3c0.1,0.1,0.1,0.1,0.3,0.2
								c0.2,0.1,0.3,0.1,0.3,0.2c0.1,0.1,0.2,0.2,0.2,0.2c0,0,0,0,0,0c0,0,0,0,0,0c0-0.1,0.1-0.1,0.2-0.2c0,0,0.1-0.1,0.3-0.2
								c0.2-0.1,0.3-0.1,0.3-0.2C44.7,71.7,44.8,71.6,44.8,71.5z"/>
							<path class="st25" d="M43.9,72.3C43.9,72.3,43.9,72.3,43.9,72.3"/>
							<path class="st25" d="M43.8,68.4c-0.2,0.2-0.4,0.3-0.5,0.2c-0.1,0-0.1-0.1-0.3-0.2c-0.1,0-0.2-0.1-0.3,0
								c-0.1,0.1-0.2,0.2-0.2,0.2c0,0.2,0.1,0.3,0.1,0.3c0.1,0.1,0.3,0.2,0.5,0.2c0.1,0,0.2,0.1,0.4,0.2c0.1,0.1,0.2,0.2,0.2,0.3
								c0,0.1,0,0.8,0,0.8c0,0,0.1,0,0.1,0C43.9,70.1,43.9,68.9,43.8,68.4L43.8,68.4L43.8,68.4z"/>
							<path class="st25" d="M43.9,68.6v-1.4c0,0.1,0,0.1-0.1,0.1c-0.1,0-0.1,0-0.1-0.1c-0.2-0.1-0.4-0.2-0.5-0.1
								c-0.1,0-0.1,0.1-0.1,0.1c0,0-0.1,0.1-0.2,0c-0.1,0-0.1-0.1-0.3-0.2c-0.1,0-0.2-0.1-0.3,0c-0.1,0-0.1,0.1-0.1,0.1
								c-0.1,0.2,0.1,0.4,0.1,0.4c0.1,0.1,0.2,0.1,0.4,0.2c0.1,0.1,0.4,0.2,0.6,0.3C43.4,68.2,43.6,68.4,43.9,68.6L43.9,68.6z"/>
							<path class="st25" d="M43.8,65.4c-0.2,0.2-0.4,0.3-0.5,0.2c-0.1,0-0.1-0.1-0.3-0.2c0,0-0.2-0.1-0.3,0
								c-0.1,0.1-0.2,0.2-0.2,0.2c0,0.2,0.1,0.3,0.1,0.3c0.1,0.1,0.1,0.1,0.5,0.2c0.2,0.1,0.3,0.1,0.4,0.2c0,0,0.1,0.1,0.2,0.3
								c0,0.1,0,0.2,0,0.4c0,0.1,0,0.2,0,0.2c0,0,0.1,0,0.1,0C43.8,66.8,43.8,65.9,43.8,65.4L43.8,65.4L43.8,65.4z"/>
							<rect x="43.8" y="64.2" class="st25" width="0.2" height="7.5"/>
							<path class="st25" d="M43.8,70.2c0,0-0.1,0.1-0.2,0.1c-0.1,0-0.1,0.1-0.2,0.1c-0.1,0-0.1-0.2-0.2-0.2c-0.1,0-0.2,0-0.3,0
								c0,0-0.1,0.1-0.1,0.2c0,0.1,0.1,0.3,0.1,0.3c0.1,0.1,0.3,0.1,0.4,0.2c0,0,0.2,0.1,0.3,0.2c0.1,0.1,0.2,0.2,0.2,0.3
								c0,0.1,0,0.1,0,0.2c0,0,0.1,0,0.1,0C43.8,71,43.8,70.6,43.8,70.2C43.8,70.2,43.8,70.2,43.8,70.2z"/>
							<path class="st25" d="M44,70.2c0,0,0.1,0.1,0.2,0.1c0.1,0,0.1,0.1,0.2,0c0.1,0,0.1-0.1,0.2-0.2c0,0,0.2-0.1,0.3,0
								c0.1,0.1,0.1,0.2,0.1,0.2c0,0.1-0.1,0.3-0.1,0.3c-0.1,0.1-0.3,0.1-0.4,0.2c0,0-0.2,0.1-0.3,0.2c-0.1,0.1-0.2,0.2-0.2,0.3
								c0,0.1,0,0.1,0,0.2c0,0-0.1,0-0.1,0C43.9,71,43.9,70.6,44,70.2L44,70.2z"/>
							<path class="st25" d="M43.8,64.3c0,0-0.1,0.1-0.2,0.1c-0.1,0-0.1,0.1-0.2,0.1c-0.1,0-0.1-0.2-0.2-0.2c-0.1,0-0.2,0-0.3,0
								c0,0-0.1,0.1-0.1,0.2c0,0.1,0.1,0.3,0.1,0.3c0.1,0.1,0.3,0.1,0.4,0.2c0,0,0.2,0.1,0.3,0.2c0.1,0.1,0.2,0.2,0.2,0.3
								c0,0.1,0,0.1,0,0.2c0,0,0.1,0,0.1,0C43.8,65.1,43.8,64.7,43.8,64.3C43.8,64.3,43.8,64.3,43.8,64.3z"/>
							<path class="st25" d="M44,64.3c0,0,0.1,0.1,0.2,0.1c0.1,0,0.1,0.1,0.2,0c0.1,0,0.1-0.1,0.2-0.2c0,0,0.2-0.1,0.3,0
								c0.1,0.1,0.1,0.2,0.1,0.2c0,0.1-0.1,0.3-0.1,0.3c-0.1,0.1-0.3,0.1-0.4,0.2c0,0-0.2,0.1-0.3,0.2c-0.1,0.1-0.2,0.2-0.2,0.3
								c0,0.1,0,0.1,0,0.2c0,0-0.1,0-0.1,0C43.9,65.1,43.9,64.7,44,64.3L44,64.3z"/>
						</g>
						<g>
							<path class="st25" d="M22.4,66.4C22.4,66.4,22.4,66.4,22.4,66.4"/>
							<rect x="22.3" y="56.2" class="st26" width="0.3" height="2.3"/>
							<path class="st25" d="M22.5,62.5c0.2,0.2,0.4,0.3,0.5,0.2c0.1,0,0.1-0.1,0.3-0.2c0.1,0,0.2-0.1,0.3,0
								c0.1,0.1,0.2,0.2,0.2,0.2c0,0.2-0.1,0.3-0.1,0.3c-0.1,0.1-0.3,0.2-0.5,0.2c-0.1,0-0.2,0.1-0.4,0.2c-0.1,0.1-0.2,0.2-0.2,0.3
								c0,0.1,0,0.8,0,0.8c0,0-0.1,0-0.1,0C22.4,64.2,22.4,63,22.5,62.5L22.5,62.5L22.5,62.5z"/>
							<path class="st25" d="M22.4,62.7v-1.4c0,0.1,0,0.1,0.1,0.1c0.1,0,0.1,0,0.1-0.1c0.2-0.1,0.4-0.2,0.5-0.1
								c0.1,0,0.1,0.1,0.1,0.1c0,0,0.1,0.1,0.2,0c0.1,0,0.1-0.1,0.3-0.2c0.1,0,0.2-0.1,0.3,0c0.1,0,0.1,0.1,0.1,0.1
								c0.1,0.2-0.1,0.4-0.1,0.4c-0.1,0.1-0.2,0.1-0.4,0.2c-0.1,0.1-0.4,0.2-0.6,0.3C22.8,62.3,22.6,62.5,22.4,62.7L22.4,62.7z"/>
							<path class="st25" d="M22.5,59.5c0.2,0.2,0.4,0.3,0.5,0.2c0.1,0,0.1-0.1,0.3-0.2c0.1,0,0.2-0.1,0.3,0
								c0.1,0.1,0.2,0.2,0.2,0.2c0,0.2-0.1,0.3-0.1,0.3c-0.1,0.1-0.1,0.1-0.5,0.2c-0.2,0.1-0.3,0.1-0.4,0.2
								c-0.1,0.1-0.2,0.3-0.2,0.4c0,0.2,0,0.3,0,0.3c0,0.1,0,0.2,0,0.2c0,0-0.1,0-0.1,0C22.4,60.9,22.4,60,22.5,59.5L22.5,59.5
								L22.5,59.5z"/>
							<path class="st25" d="M23.3,65.6L23.3,65.6c0-0.1-0.1-0.1-0.1-0.2c-0.1,0-0.2,0-0.2,0c-0.1,0.1-0.1,0.2-0.2,0.2
								c0,0,0,0-0.1,0c-0.1,0-0.1-0.1-0.1-0.2c0,0-0.1,0-0.1,0l0,0c-0.1,0-0.1,0-0.2,0c-0.1,0.1-0.1,0.1-0.2,0.2c0,0-0.1,0-0.1,0
								c-0.1,0-0.1-0.1-0.2-0.2c0,0-0.1-0.1-0.2,0c0,0-0.1,0.1-0.1,0.2c0,0.1,0.1,0.2,0.1,0.3c0.1,0.1,0.1,0.1,0.3,0.2
								c0.2,0.1,0.3,0.1,0.3,0.2c0.1,0.1,0.2,0.2,0.2,0.2c0,0,0,0,0,0c0,0,0,0,0,0c0-0.1,0.1-0.1,0.2-0.2c0,0,0.1-0.1,0.3-0.2
								c0.2-0.1,0.3-0.1,0.3-0.2C23.3,65.8,23.3,65.7,23.3,65.6z"/>
							<path class="st25" d="M22.4,66.4C22.4,66.4,22.4,66.4,22.4,66.4"/>
							<path class="st25" d="M22.3,62.5c-0.2,0.2-0.4,0.3-0.5,0.2c-0.1,0-0.1-0.1-0.3-0.2c-0.1,0-0.2-0.1-0.3,0
								c-0.1,0.1-0.2,0.2-0.2,0.2c0,0.2,0.1,0.3,0.1,0.3c0.1,0.1,0.3,0.2,0.5,0.2c0.1,0,0.2,0.1,0.4,0.2c0.1,0.1,0.2,0.2,0.2,0.3
								c0,0.1,0,0.8,0,0.8c0,0,0.1,0,0.1,0C22.4,64.2,22.4,63,22.3,62.5L22.3,62.5L22.3,62.5z"/>
							<path class="st25" d="M22.4,62.7v-1.4c0,0.1,0,0.1-0.1,0.1c-0.1,0-0.1,0-0.1-0.1c-0.2-0.1-0.4-0.2-0.5-0.1
								c-0.1,0-0.1,0.1-0.1,0.1c0,0-0.1,0.1-0.2,0c-0.1,0-0.1-0.1-0.3-0.2c-0.1,0-0.2-0.1-0.3,0c-0.1,0-0.1,0.1-0.1,0.1
								c-0.1,0.2,0.1,0.4,0.1,0.4c0.1,0.1,0.2,0.1,0.4,0.2c0.1,0.1,0.4,0.2,0.6,0.3C22,62.3,22.1,62.5,22.4,62.7L22.4,62.7z"/>
							<path class="st25" d="M22.3,59.5c-0.2,0.2-0.4,0.3-0.5,0.2c-0.1,0-0.1-0.1-0.3-0.2c0,0-0.2-0.1-0.3,0
								c-0.1,0.1-0.2,0.2-0.2,0.2c0,0.2,0.1,0.3,0.1,0.3c0.1,0.1,0.1,0.1,0.5,0.2c0.2,0.1,0.3,0.1,0.4,0.2c0,0,0.1,0.1,0.2,0.3
								c0,0.1,0,0.2,0,0.4c0,0.1,0,0.2,0,0.2c0,0,0.1,0,0.1,0C22.4,60.9,22.4,60,22.3,59.5L22.3,59.5L22.3,59.5z"/>
							<rect x="22.3" y="58.3" class="st25" width="0.2" height="7.5"/>
							<path class="st25" d="M22.3,64.3c0,0-0.1,0.1-0.2,0.1c-0.1,0-0.1,0.1-0.2,0.1c-0.1,0-0.1-0.2-0.2-0.2c-0.1,0-0.2,0-0.3,0
								c0,0-0.1,0.1-0.1,0.2c0,0.1,0.1,0.3,0.1,0.3c0.1,0.1,0.3,0.1,0.4,0.2c0,0,0.2,0.1,0.3,0.2c0.1,0.1,0.2,0.2,0.2,0.3
								c0,0.1,0,0.1,0,0.2c0,0,0.1,0,0.1,0C22.4,65.1,22.4,64.7,22.3,64.3C22.4,64.3,22.3,64.3,22.3,64.3z"/>
							<path class="st25" d="M22.5,64.3c0,0,0.1,0.1,0.2,0.1c0.1,0,0.1,0.1,0.2,0c0.1,0,0.1-0.1,0.2-0.2c0,0,0.2-0.1,0.3,0
								c0.1,0.1,0.1,0.2,0.1,0.2c0,0.1-0.1,0.3-0.1,0.3c-0.1,0.1-0.3,0.1-0.4,0.2c0,0-0.2,0.1-0.3,0.2c-0.1,0.1-0.2,0.2-0.2,0.3
								c0,0.1,0,0.1,0,0.2c0,0-0.1,0-0.1,0C22.4,65.1,22.4,64.7,22.5,64.3L22.5,64.3z"/>
							<path class="st25" d="M22.3,58.4c0,0-0.1,0.1-0.2,0.1c-0.1,0-0.1,0.1-0.2,0.1c-0.1,0-0.1-0.2-0.2-0.2c-0.1,0-0.2,0-0.3,0
								c0,0-0.1,0.1-0.1,0.2c0,0.1,0.1,0.3,0.1,0.3c0.1,0.1,0.3,0.1,0.4,0.2c0,0,0.2,0.1,0.3,0.2c0.1,0.1,0.2,0.2,0.2,0.3
								c0,0.1,0,0.1,0,0.2c0,0,0.1,0,0.1,0C22.4,59.2,22.4,58.8,22.3,58.4C22.4,58.4,22.3,58.4,22.3,58.4z"/>
							<path class="st25" d="M22.5,58.4c0,0,0.1,0.1,0.2,0.1c0.1,0,0.1,0.1,0.2,0c0.1,0,0.1-0.1,0.2-0.2c0,0,0.2-0.1,0.3,0
								c0.1,0.1,0.1,0.2,0.1,0.2c0,0.1-0.1,0.3-0.1,0.3C23.3,59,23.2,59,23,59c0,0-0.2,0.1-0.3,0.2c-0.1,0.1-0.2,0.2-0.2,0.3
								c0,0.1,0,0.1,0,0.2c0,0-0.1,0-0.1,0C22.4,59.2,22.4,58.8,22.5,58.4L22.5,58.4z"/>
						</g>
						<g>
							<path class="st25" d="M30.4,54.9C30.4,54.9,30.4,54.9,30.4,54.9"/>
							<rect x="30.3" y="44.7" class="st26" width="0.3" height="2.3"/>
							<path class="st25" d="M30.5,51.1c0.2,0.2,0.4,0.3,0.5,0.2c0.1,0,0.1-0.1,0.3-0.2c0.1,0,0.2-0.1,0.3,0
								c0.1,0.1,0.2,0.2,0.2,0.2c0,0.2-0.1,0.3-0.1,0.3c-0.1,0.1-0.3,0.2-0.5,0.2c-0.1,0-0.2,0.1-0.4,0.2c-0.1,0.1-0.2,0.2-0.2,0.3
								c0,0.1,0,0.8,0,0.8c0,0-0.1,0-0.1,0C30.4,52.8,30.4,51.6,30.5,51.1L30.5,51.1L30.5,51.1z"/>
							<path class="st25" d="M30.4,51.3v-1.4c0,0.1,0,0.1,0.1,0.1s0.1,0,0.1-0.1c0.2-0.1,0.4-0.2,0.5-0.1c0.1,0,0.1,0.1,0.1,0.1
								c0,0,0.1,0.1,0.2,0c0.1,0,0.1-0.1,0.3-0.2c0.1,0,0.2-0.1,0.3,0c0.1,0,0.1,0.1,0.1,0.1c0.1,0.2-0.1,0.4-0.1,0.4
								c-0.1,0.1-0.2,0.1-0.4,0.2c-0.1,0.1-0.4,0.2-0.6,0.3C30.8,50.9,30.7,51.1,30.4,51.3L30.4,51.3z"/>
							<path class="st25" d="M30.5,48.1c0.2,0.2,0.4,0.3,0.5,0.2c0.1,0,0.1-0.1,0.3-0.2c0.1,0,0.2-0.1,0.3,0
								c0.1,0.1,0.2,0.2,0.2,0.2c0,0.2-0.1,0.3-0.1,0.3c-0.1,0.1-0.1,0.1-0.5,0.2C31,49,30.8,49,30.7,49.1c-0.1,0.1-0.2,0.3-0.2,0.4
								c0,0.2,0,0.3,0,0.3c0,0.1,0,0.2,0,0.2c0,0-0.1,0-0.1,0C30.4,49.5,30.4,48.6,30.5,48.1L30.5,48.1L30.5,48.1z"/>
							<path class="st25" d="M31.3,54.1L31.3,54.1c0-0.1-0.1-0.1-0.1-0.2c-0.1,0-0.2,0-0.2,0c-0.1,0.1-0.1,0.2-0.2,0.2
								c0,0,0,0-0.1,0c-0.1,0-0.1-0.1-0.1-0.2c0,0-0.1,0-0.1,0l0,0c-0.1,0-0.1,0-0.2,0c-0.1,0.1-0.1,0.1-0.2,0.2c0,0-0.1,0-0.1,0
								c-0.1,0-0.1-0.1-0.2-0.2c0,0-0.1-0.1-0.2,0c0,0-0.1,0.1-0.1,0.2c0,0.1,0.1,0.2,0.1,0.3c0.1,0.1,0.1,0.1,0.3,0.2
								c0.2,0.1,0.3,0.1,0.3,0.2c0.1,0.1,0.2,0.2,0.2,0.2c0,0,0,0,0,0c0,0,0,0,0,0c0-0.1,0.1-0.1,0.2-0.2c0,0,0.1-0.1,0.3-0.2
								c0.2-0.1,0.3-0.1,0.3-0.2C31.3,54.4,31.4,54.3,31.3,54.1z"/>
							<path class="st25" d="M30.4,54.9C30.4,54.9,30.4,54.9,30.4,54.9"/>
							<path class="st25" d="M30.3,51.1c-0.2,0.2-0.4,0.3-0.5,0.2c-0.1,0-0.1-0.1-0.3-0.2c-0.1,0-0.2-0.1-0.3,0
								c-0.1,0.1-0.2,0.2-0.2,0.2c0,0.2,0.1,0.3,0.1,0.3c0.1,0.1,0.3,0.2,0.5,0.2c0.1,0,0.2,0.1,0.4,0.2c0.1,0.1,0.2,0.2,0.2,0.3
								c0,0.1,0,0.8,0,0.8c0,0,0.1,0,0.1,0C30.4,52.8,30.4,51.6,30.3,51.1L30.3,51.1L30.3,51.1z"/>
							<path class="st25" d="M30.4,51.3v-1.4c0,0.1,0,0.1-0.1,0.1c-0.1,0-0.1,0-0.1-0.1c-0.2-0.1-0.4-0.2-0.5-0.1
								c-0.1,0-0.1,0.1-0.1,0.1c0,0-0.1,0.1-0.2,0c-0.1,0-0.1-0.1-0.3-0.2c-0.1,0-0.2-0.1-0.3,0c-0.1,0-0.1,0.1-0.1,0.1
								c-0.1,0.2,0.1,0.4,0.1,0.4c0.1,0.1,0.2,0.1,0.4,0.2c0.1,0.1,0.4,0.2,0.6,0.3C30,50.9,30.2,51.1,30.4,51.3L30.4,51.3z"/>
							<path class="st25" d="M30.3,48.1c-0.2,0.2-0.4,0.3-0.5,0.2c-0.1,0-0.1-0.1-0.3-0.2c0,0-0.2-0.1-0.3,0
								c-0.1,0.1-0.2,0.2-0.2,0.2c0,0.2,0.1,0.3,0.1,0.3c0.1,0.1,0.1,0.1,0.5,0.2c0.2,0.1,0.3,0.1,0.4,0.2c0,0,0.1,0.1,0.2,0.3
								c0,0.1,0,0.2,0,0.4c0,0.1,0,0.2,0,0.2c0,0,0.1,0,0.1,0C30.4,49.5,30.4,48.6,30.3,48.1L30.3,48.1L30.3,48.1z"/>
							<rect x="30.3" y="46.9" class="st25" width="0.2" height="7.5"/>
							<path class="st25" d="M30.3,52.8c0,0-0.1,0.1-0.2,0.1c-0.1,0-0.1,0.1-0.2,0.1c-0.1,0-0.1-0.2-0.2-0.2c-0.1,0-0.2,0-0.3,0
								c0,0-0.1,0.1-0.1,0.2c0,0.1,0.1,0.3,0.1,0.3c0.1,0.1,0.3,0.1,0.4,0.2c0,0,0.2,0.1,0.3,0.2c0.1,0.1,0.2,0.2,0.2,0.3
								c0,0.1,0,0.1,0,0.2c0,0,0.1,0,0.1,0C30.4,53.7,30.4,53.3,30.3,52.8C30.4,52.8,30.3,52.8,30.3,52.8z"/>
							<path class="st25" d="M30.5,52.8c0,0,0.1,0.1,0.2,0.1c0.1,0,0.1,0.1,0.2,0c0.1,0,0.1-0.1,0.2-0.2c0,0,0.2-0.1,0.3,0
								c0.1,0.1,0.1,0.2,0.1,0.2c0,0.1-0.1,0.3-0.1,0.3c-0.1,0.1-0.3,0.1-0.4,0.2c0,0-0.2,0.1-0.3,0.2c-0.1,0.1-0.2,0.2-0.2,0.3
								c0,0.1,0,0.1,0,0.2c0,0-0.1,0-0.1,0C30.4,53.7,30.4,53.3,30.5,52.8L30.5,52.8z"/>
							<path class="st25" d="M30.3,46.9c0,0-0.1,0.1-0.2,0.1c-0.1,0-0.1,0.1-0.2,0.1c-0.1,0-0.1-0.2-0.2-0.2c-0.1,0-0.2,0-0.3,0
								c0,0-0.1,0.1-0.1,0.2c0,0.1,0.1,0.3,0.1,0.3c0.1,0.1,0.3,0.1,0.4,0.2c0,0,0.2,0.1,0.3,0.2c0.1,0.1,0.2,0.2,0.2,0.3
								c0,0.1,0,0.1,0,0.2c0,0,0.1,0,0.1,0C30.4,47.8,30.4,47.4,30.3,46.9C30.4,46.9,30.3,46.9,30.3,46.9z"/>
							<path class="st25" d="M30.5,46.9c0,0,0.1,0.1,0.2,0.1c0.1,0,0.1,0.1,0.2,0c0.1,0,0.1-0.1,0.2-0.2c0,0,0.2-0.1,0.3,0
								c0.1,0.1,0.1,0.2,0.1,0.2c0,0.1-0.1,0.3-0.1,0.3c-0.1,0.1-0.3,0.1-0.4,0.2c0,0-0.2,0.1-0.3,0.2c-0.1,0.1-0.2,0.2-0.2,0.3
								c0,0.1,0,0.1,0,0.2c0,0-0.1,0-0.1,0C30.4,47.8,30.4,47.4,30.5,46.9L30.5,46.9z"/>
						</g>
						<g>
							<line class="st21" x1="59.3" y1="63.4" x2="59.4" y2="61.2"/>
							<polyline class="st21" points="58.9,63 59.3,63.4 59.8,63.1 							"/>
							<polyline class="st21" points="58.8,62.4 59.3,62.8 59.9,62.5 							"/>
							<polyline class="st21" points="58.8,61.8 59.4,62.2 60,61.9 							"/>
						</g>
						<g>
							<rect x="40.4" y="44.3" class="st27" width="0.4" height="3.2"/>
							<path class="st22" d="M42.2,48c-0.1,0-0.1,0-0.2-0.1L42.2,48z"/>
							<path class="st22" d="M42.7,48.7c0-0.3-0.2-0.6-0.5-0.7l0,0L42,47.9l-1.5-0.5L39,47.9c-0.4,0.1-0.7,0.4-0.7,0.8
								c0,0.4,0.3,0.8,0.8,0.8c0,0,0.1,0,0.1,0c0,0.1,0,0.1,0,0.2c0,0.4,0.3,0.8,0.8,0.8c0.2,0,0.4-0.1,0.6-0.3
								c0.1,0.2,0.3,0.3,0.6,0.3c0.4,0,0.8-0.3,0.8-0.8c0-0.1,0-0.1,0-0.2c0,0,0,0,0,0C42.3,49.4,42.7,49.1,42.7,48.7z"/>
							<path class="st28" d="M42.7,48.7c0-0.3-0.2-0.6-0.5-0.7l0,0L42,47.9l-1.5-0.5L39,47.9c-0.4,0.1-0.7,0.4-0.7,0.8
								c0,0.4,0.3,0.8,0.8,0.8c0,0,0.1,0,0.1,0c0,0.1,0,0.1,0,0.2c0,0.4,0.3,0.8,0.8,0.8c0.2,0,0.4-0.1,0.6-0.3
								c0.1,0.2,0.3,0.3,0.6,0.3c0.4,0,0.8-0.3,0.8-0.8c0-0.1,0-0.1,0-0.2c0,0,0,0,0,0C42.3,49.4,42.7,49.1,42.7,48.7z"/>
							<path class="st24" d="M41.9,48.3c0-0.2-0.1-0.4-0.3-0.5l0,0l-0.1,0l-1-0.3l-1,0.3c-0.2,0-0.4,0.2-0.4,0.5
								c0,0.3,0.2,0.5,0.5,0.5c0,0,0,0,0,0c0,0,0,0.1,0,0.1c0,0.3,0.2,0.5,0.5,0.5c0.2,0,0.3-0.1,0.4-0.2c0.1,0.1,0.2,0.2,0.4,0.2
								c0.3,0,0.5-0.2,0.5-0.5c0,0,0-0.1,0-0.1c0,0,0,0,0,0C41.7,48.8,41.9,48.6,41.9,48.3z"/>
							<path class="st28" d="M40.1,48.1h1c0-0.1-0.1-0.2-0.2-0.3c-0.1-0.2-0.3-0.2-0.4-0.3c-0.1,0.1-0.2,0.1-0.3,0.3
								C40.1,47.9,40.1,48,40.1,48.1z"/>
						</g>
						<g>
							<rect x="49.7" y="54" class="st19" width="0.4" height="3.2"/>
							<path class="st22" d="M51.5,57.6c-0.1,0-0.1,0-0.2-0.1L51.5,57.6z"/>
							<path class="st22" d="M52,58.3c0-0.3-0.2-0.6-0.5-0.7l0,0l-0.2-0.1l-1.5-0.5l-1.5,0.4c-0.4,0.1-0.7,0.4-0.7,0.8
								c0,0.4,0.3,0.8,0.8,0.8c0,0,0.1,0,0.1,0c0,0.1,0,0.1,0,0.2c0,0.4,0.3,0.8,0.8,0.8c0.2,0,0.4-0.1,0.6-0.3
								c0.1,0.2,0.3,0.3,0.6,0.3c0.4,0,0.8-0.3,0.8-0.8c0-0.1,0-0.1,0-0.2c0,0,0,0,0,0C51.6,59.1,52,58.8,52,58.3z"/>
							<path class="st23" d="M52,58.3c0-0.3-0.2-0.6-0.5-0.7l0,0l-0.2-0.1l-1.5-0.5l-1.5,0.4c-0.4,0.1-0.7,0.4-0.7,0.8
								c0,0.4,0.3,0.8,0.8,0.8c0,0,0.1,0,0.1,0c0,0.1,0,0.1,0,0.2c0,0.4,0.3,0.8,0.8,0.8c0.2,0,0.4-0.1,0.6-0.3
								c0.1,0.2,0.3,0.3,0.6,0.3c0.4,0,0.8-0.3,0.8-0.8c0-0.1,0-0.1,0-0.2c0,0,0,0,0,0C51.6,59.1,52,58.8,52,58.3z"/>
							<path class="st24" d="M51.2,57.9c0-0.2-0.1-0.4-0.3-0.5l0,0l-0.1,0l-1-0.3l-1,0.3c-0.2,0-0.4,0.2-0.4,0.5
								c0,0.3,0.2,0.5,0.5,0.5c0,0,0,0,0,0c0,0,0,0.1,0,0.1c0,0.3,0.2,0.5,0.5,0.5c0.2,0,0.3-0.1,0.4-0.2c0.1,0.1,0.2,0.2,0.4,0.2
								c0.3,0,0.5-0.2,0.5-0.5c0,0,0-0.1,0-0.1c0,0,0,0,0,0C51,58.4,51.2,58.2,51.2,57.9z"/>
							<path class="st23" d="M49.4,57.8h1c0-0.1-0.1-0.2-0.2-0.3c-0.1-0.2-0.3-0.2-0.4-0.3c-0.1,0.1-0.2,0.1-0.3,0.3
								C49.4,57.6,49.4,57.7,49.4,57.8z"/>
						</g>
						<g>
							<path class="st29" d="M26.3,44.1c-0.2,1.6-0.2,4.4-0.1,6c0,0.3,0.5,0.4,0.6,0.1c0.5-1.4,1-2.8,1.6-4.2c0.1-0.3,0.5-0.3,0.6,0
								c0,0.1,0.1,0.1,0.1,0.2c0.3,0.3,0.7-0.2,0.8-0.6c0-0.1,0.1-0.3,0.1-0.5c0.1-0.3,0.5-0.3,0.6,0l0.3,1.2c0.1,0.3,0.5,0.3,0.6,0
								l0.3-1c0.1-0.3,0.6-0.3,0.6,0.1l0.2,2.7c0,0.3,0.5,0.4,0.6,0.1c0.4-1.2,0.8-2.3,1.3-3.5c0.1-0.3,0.5-0.2,0.6,0.1l0.2,0.7
								c0.1,0.3,0.5,0.3,0.6,0c0.1-0.3,0.2-0.6,0.4-0.8c0.1-0.3,0.5-0.2,0.6,0.1c0.1,0.8,0.2,1.5,0.3,2.3c0,0.3,0.5,0.4,0.6,0.1
								c0.2-0.6,0.5-1.3,0.8-1.9c0.1-0.3,0.6-0.2,0.6,0.1l0.1,1.9c0,0.3,0.5,0.4,0.6,0.1l0.8-2.1c0.1-0.3,0.6-0.3,0.6,0.1
								c0,0.4,0.1,0.8,0.1,1.2c0,0.3,0.4,0.4,0.6,0.1c0.1-0.1,0.1-0.3,0.2-0.4c0.1-0.2,0.5-0.2,0.6,0.1c0.1,0.5,0.2,1,0.2,1.5
								c0,0.3,0.5,0.4,0.6,0.1c0.2-0.6,0.3-1.3,0.4-2c0,0,0,0,0,0l0.1-1.4c0-0.2-0.1-0.3-0.3-0.3l-9-0.3c0,0,0,0-0.1,0l-7.9,0.1
								c0,0-0.1,0-0.1,0C26.4,43.9,26.3,44,26.3,44.1z"/>
						</g>
						<g>
							<path class="st30" d="M47.1,53.9c-0.1-0.3,0.2-0.6,0.5-0.6c2.3,0.2,4.7,0.5,7,0.7c0.1,0,0.2,0.1,0.3,0.2
								c0.2,1.5,0.3,3.1,0.3,4.6c0,0.3-0.4,0.4-0.6,0.1c-0.6-1.3-1.1-2.6-1.7-3.9c-0.1-0.2-0.4-0.2-0.5,0c0,0.1-0.1,0.1-0.1,0.2
								c-0.3,0.3-0.7-0.1-0.8-0.5c0-0.1-0.1-0.3-0.1-0.4c-0.1-0.3-0.5-0.3-0.6,0l-0.2,1.2c-0.1,0.3-0.4,0.3-0.6,0l-0.3-0.9
								c-0.1-0.3-0.5-0.2-0.6,0.1l-0.1,2.5c0,0.3-0.5,0.4-0.6,0.1c-0.2-0.7-0.8-1.6-1.2-2.9C47.3,54.4,47.2,54.2,47.1,53.9
								C47.1,53.9,47.1,53.9,47.1,53.9z"/>
						</g>
						<g>
							<path class="st25" d="M54.9,62.8C54.9,62.8,54.9,62.8,54.9,62.8"/>
							<rect x="54.8" y="52.6" class="st26" width="0.3" height="2.3"/>
							<path class="st25" d="M55,59c0.2,0.2,0.4,0.3,0.5,0.2c0.1,0,0.1-0.1,0.3-0.2c0.1,0,0.2-0.1,0.3,0c0.1,0.1,0.2,0.2,0.2,0.2
								c0,0.2-0.1,0.3-0.1,0.3c-0.1,0.1-0.3,0.2-0.5,0.2c-0.1,0-0.2,0.1-0.4,0.2c-0.1,0.1-0.2,0.2-0.2,0.3c0,0.1,0,0.8,0,0.8
								c0,0-0.1,0-0.1,0C54.9,60.6,54.9,59.5,55,59L55,59L55,59z"/>
							<path class="st25" d="M54.9,59.1v-1.4c0,0.1,0,0.1,0.1,0.1c0.1,0,0.1,0,0.1-0.1c0.2-0.1,0.4-0.2,0.5-0.1
								c0.1,0,0.1,0.1,0.1,0.1c0,0,0.1,0.1,0.2,0c0.1,0,0.1-0.1,0.3-0.2c0.1,0,0.2-0.1,0.3,0c0.1,0,0.1,0.1,0.1,0.1
								c0.1,0.2-0.1,0.4-0.1,0.4c-0.1,0.1-0.2,0.1-0.4,0.2c-0.1,0.1-0.4,0.2-0.6,0.3C55.4,58.8,55.2,58.9,54.9,59.1L54.9,59.1z"/>
							<path class="st25" d="M55,56c0.2,0.2,0.4,0.3,0.5,0.2c0.1,0,0.1-0.1,0.3-0.2c0.1,0,0.2-0.1,0.3,0c0.1,0.1,0.2,0.2,0.2,0.2
								c0,0.2-0.1,0.3-0.1,0.3c-0.1,0.1-0.1,0.1-0.5,0.2c-0.2,0.1-0.3,0.1-0.4,0.2c-0.1,0.1-0.2,0.3-0.2,0.4c0,0.2,0,0.3,0,0.3
								c0,0.1,0,0.2,0,0.2c0,0-0.1,0-0.1,0C55,57.4,55,56.5,55,56L55,56L55,56z"/>
							<path class="st25" d="M55.9,62L55.9,62c0-0.1-0.1-0.1-0.1-0.2c-0.1,0-0.2,0-0.2,0c-0.1,0.1-0.1,0.2-0.2,0.2c0,0,0,0-0.1,0
								c-0.1,0-0.1-0.1-0.1-0.2c0,0-0.1,0-0.1,0l0,0c-0.1,0-0.1,0-0.2,0c-0.1,0.1-0.1,0.1-0.2,0.2c0,0-0.1,0-0.1,0
								c-0.1,0-0.1-0.1-0.2-0.2c0,0-0.1-0.1-0.2,0c0,0-0.1,0.1-0.1,0.2c0,0.1,0.1,0.2,0.1,0.3c0.1,0.1,0.1,0.1,0.3,0.2
								c0.2,0.1,0.3,0.1,0.3,0.2c0.1,0.1,0.2,0.2,0.2,0.2c0,0,0,0,0,0c0,0,0,0,0,0c0-0.1,0.1-0.1,0.2-0.2c0,0,0.1-0.1,0.3-0.2
								c0.2-0.1,0.3-0.1,0.3-0.2C55.8,62.2,55.9,62.1,55.9,62z"/>
							<path class="st25" d="M54.9,62.8C54.9,62.8,54.9,62.8,54.9,62.8"/>
							<path class="st25" d="M54.9,59c-0.2,0.2-0.4,0.3-0.5,0.2c-0.1,0-0.1-0.1-0.3-0.2c-0.1,0-0.2-0.1-0.3,0
								c-0.1,0.1-0.2,0.2-0.2,0.2c0,0.2,0.1,0.3,0.1,0.3c0.1,0.1,0.3,0.2,0.5,0.2c0.1,0,0.2,0.1,0.4,0.2c0.1,0.1,0.2,0.2,0.2,0.3
								c0,0.1,0,0.8,0,0.8c0,0,0.1,0,0.1,0C54.9,60.6,54.9,59.5,54.9,59L54.9,59L54.9,59z"/>
							<path class="st25" d="M54.9,59.1v-1.4c0,0.1,0,0.1-0.1,0.1c-0.1,0-0.1,0-0.1-0.1c-0.2-0.1-0.4-0.2-0.5-0.1
								c-0.1,0-0.1,0.1-0.1,0.1c0,0-0.1,0.1-0.2,0c-0.1,0-0.1-0.1-0.3-0.2c-0.1,0-0.2-0.1-0.3,0c-0.1,0-0.1,0.1-0.1,0.1
								c-0.1,0.2,0.1,0.4,0.1,0.4c0.1,0.1,0.2,0.1,0.4,0.2c0.1,0.1,0.4,0.2,0.6,0.3C54.5,58.8,54.7,58.9,54.9,59.1L54.9,59.1z"/>
							<path class="st25" d="M54.8,56c-0.2,0.2-0.4,0.3-0.5,0.2c-0.1,0-0.1-0.1-0.3-0.2c0,0-0.2-0.1-0.3,0c-0.1,0.1-0.2,0.2-0.2,0.2
								c0,0.2,0.1,0.3,0.1,0.3c0.1,0.1,0.1,0.1,0.5,0.2c0.2,0.1,0.3,0.1,0.4,0.2c0,0,0.1,0.1,0.2,0.3c0,0.1,0,0.2,0,0.4
								c0,0.1,0,0.2,0,0.2c0,0,0.1,0,0.1,0C54.9,57.4,54.9,56.5,54.8,56L54.8,56L54.8,56z"/>
							<rect x="54.8" y="54.8" class="st25" width="0.2" height="7.5"/>
							<path class="st25" d="M54.8,60.7c0,0-0.1,0.1-0.2,0.1c-0.1,0-0.1,0.1-0.2,0.1c-0.1,0-0.1-0.2-0.2-0.2c-0.1,0-0.2,0-0.3,0
								c0,0-0.1,0.1-0.1,0.2c0,0.1,0.1,0.3,0.1,0.3c0.1,0.1,0.3,0.1,0.4,0.2c0,0,0.2,0.1,0.3,0.2c0.1,0.1,0.2,0.2,0.2,0.3
								c0,0.1,0,0.1,0,0.2c0,0,0.1,0,0.1,0C54.9,61.6,54.9,61.2,54.8,60.7C54.9,60.7,54.8,60.7,54.8,60.7z"/>
							<path class="st25" d="M55,60.7c0,0,0.1,0.1,0.2,0.1c0.1,0,0.1,0.1,0.2,0c0.1,0,0.1-0.1,0.2-0.2c0,0,0.2-0.1,0.3,0
								c0.1,0.1,0.1,0.2,0.1,0.2c0,0.1-0.1,0.3-0.1,0.3c-0.1,0.1-0.3,0.1-0.4,0.2c0,0-0.2,0.1-0.3,0.2c-0.1,0.1-0.2,0.2-0.2,0.3
								c0,0.1,0,0.1,0,0.2c0,0-0.1,0-0.1,0C55,61.6,55,61.2,55,60.7L55,60.7z"/>
							<path class="st25" d="M54.8,54.8c0,0-0.1,0.1-0.2,0.1c-0.1,0-0.1,0.1-0.2,0.1c-0.1,0-0.1-0.2-0.2-0.2c-0.1,0-0.2,0-0.3,0
								c0,0-0.1,0.1-0.1,0.2c0,0.1,0.1,0.3,0.1,0.3c0.1,0.1,0.3,0.1,0.4,0.2c0,0,0.2,0.1,0.3,0.2c0.1,0.1,0.2,0.2,0.2,0.3
								c0,0.1,0,0.1,0,0.2c0,0,0.1,0,0.1,0C54.9,55.7,54.9,55.3,54.8,54.8C54.9,54.8,54.8,54.8,54.8,54.8z"/>
							<path class="st25" d="M55,54.8c0,0,0.1,0.1,0.2,0.1c0.1,0,0.1,0.1,0.2,0c0.1,0,0.1-0.1,0.2-0.2c0,0,0.2-0.1,0.3,0
								c0.1,0.1,0.1,0.2,0.1,0.2c0,0.1-0.1,0.3-0.1,0.3c-0.1,0.1-0.3,0.1-0.4,0.2c0,0-0.2,0.1-0.3,0.2c-0.1,0.1-0.2,0.2-0.2,0.3
								c0,0.1,0,0.1,0,0.2c0,0-0.1,0-0.1,0C55,55.7,55,55.3,55,54.8L55,54.8z"/>
						</g>
						<g>
							<path class="st29" d="M30.4,55.8C30.4,55.8,30.4,55.8,30.4,55.8l-6,0.6c-0.1,0-0.2,0.1-0.2,0.2c-0.2,1.2-0.3,2.5-0.2,3.7
								c0,0.2,0.3,0.3,0.4,0.1c0.4-1,0.9-2.1,1.3-3.1c0.1-0.2,0.4-0.2,0.4,0c0,0.1,0,0.1,0.1,0.1c0.2,0.2,0.6-0.1,0.6-0.4
								c0-0.1,0.1-0.2,0.1-0.3c0.1-0.2,0.4-0.2,0.4,0l0.2,0.9c0.1,0.2,0.4,0.2,0.4,0l0.3-0.7c0.1-0.2,0.4-0.2,0.4,0.1l0.1,2
								c0,0.3,0.4,0.3,0.4,0.1c0.3-0.9,0.7-1.7,1.1-2.6c0.1-0.2,0.4-0.1,0.4,0.1"/>
						</g>
						<g class="st31">
							<path class="st32" d="M24,42.2c2.1,0.2,4.2,0,6.3-0.5c2.7-0.7,5.4-2.1,8.2-2c1.3,0.1,2.5,0.5,3.8,0.7c3.3,0.7,6.8,0.7,10,1.7
								l2.3-0.6l-11.8-3.3l-12.1-0.8L24,42.2z"/>
						</g>
					</g>
					<g class="st33">
						<g>
							<g>
								<path class="st34" d="M19.2,56.8c-0.1-0.1-0.2-0.1-0.3-0.1c-0.3,0-1.4,0-3.1,0c-0.6,0-1.4,0-2.1,0c-0.2,0-0.3,0.2-0.2,0.4
									c0.3,0.5,0.9,0.8,1.5,0.9c0.1,0,0.3,0,0.4,0.1c0.1,0.1,0.2,0.1,0.3,0.2c0.2,0.2,0.5,0.4,0.8,0.5c0.2,0.1,0.5,0.1,0.7,0.2
									c0.2,0,0.4,0,0.6-0.1c0.4-0.2,0.6-0.5,0.9-0.8c0.2-0.2,0.3-0.4,0.5-0.6C19.2,57.3,19.4,57,19.2,56.8z"/>
							</g>
							<g>
								<path class="st11" d="M17.1,59c-0.5-0.7-0.9-1.4-1.3-2.2c-0.6,0-1.4,0-2.1,0c-0.2,0-0.3,0.2-0.2,0.4
									c0.3,0.5,0.9,0.8,1.5,0.9c0.1,0,0.3,0,0.4,0.1c0.1,0.1,0.2,0.1,0.3,0.2c0.2,0.2,0.5,0.4,0.8,0.5C16.7,58.9,16.9,59,17.1,59z
									"/>
							</g>
						</g>
						<g>
							<g>
								<path class="st34" d="M58.2,50.4c-0.1-0.1-0.2-0.1-0.3-0.1c-0.3,0-1.2,0-2.7,0c-0.6,0-1.2,0-1.9,0c-0.2,0-0.3,0.2-0.2,0.3
									c0.3,0.4,0.8,0.7,1.3,0.8c0.1,0,0.2,0,0.4,0.1c0.1,0,0.2,0.1,0.3,0.2c0.2,0.2,0.4,0.3,0.7,0.4c0.2,0.1,0.4,0.1,0.6,0.1
									c0.2,0,0.3,0,0.5-0.1c0.3-0.1,0.6-0.4,0.8-0.7c0.1-0.2,0.3-0.4,0.4-0.5C58.3,50.7,58.4,50.5,58.2,50.4z"/>
							</g>
							<g>
								<path class="st11" d="M56.4,52.2c-0.4-0.6-0.8-1.2-1.2-1.9c-0.6,0-1.2,0-1.9,0c-0.2,0-0.3,0.2-0.2,0.3
									c0.3,0.4,0.8,0.7,1.3,0.8c0.1,0,0.2,0,0.4,0.1c0.1,0,0.2,0.1,0.3,0.2c0.2,0.2,0.4,0.3,0.7,0.4
									C56.1,52.2,56.2,52.2,56.4,52.2z"/>
							</g>
						</g>
						<path class="st34" d="M37.3,53.1H35v0c0,0.6,0.5,1.2,1.2,1.2l0,0C36.8,54.3,37.3,53.8,37.3,53.1L37.3,53.1z"/>
						<g>
							<g>
								<path class="st11" d="M36.9,53c0.1-0.1,0.2-0.1,0.2-0.1c0.2,0,0.9,0,1.9,0c0.4,0,0.8,0,1.3,0c0.1,0,0.2,0.1,0.1,0.2
									c-0.2,0.3-0.5,0.5-0.9,0.6c-0.1,0-0.2,0-0.3,0.1c-0.1,0-0.1,0.1-0.2,0.1c-0.1,0.1-0.3,0.2-0.5,0.3c-0.1,0.1-0.3,0.1-0.4,0.1
									c-0.1,0-0.2,0-0.3-0.1c-0.2-0.1-0.4-0.3-0.6-0.5c-0.1-0.1-0.2-0.3-0.3-0.4C36.9,53.3,36.8,53.1,36.9,53z"/>
							</g>
							<g>
								<path class="st34" d="M38.2,54.3c0.3-0.4,0.6-0.9,0.8-1.4c0.4,0,0.8,0,1.3,0c0.1,0,0.2,0.1,0.1,0.2
									c-0.2,0.3-0.5,0.5-0.9,0.6c-0.1,0-0.2,0-0.3,0.1c-0.1,0-0.1,0.1-0.2,0.1c-0.1,0.1-0.3,0.2-0.5,0.3
									C38.5,54.3,38.4,54.3,38.2,54.3z"/>
							</g>
						</g>
						<g>
							<path class="st11" d="M26.4,50L26.4,50l-3.3,0v0c0,0.9,0.7,1.7,1.7,1.7c0.1,0,0.2,0,0.3,0c0.4-0.1,0.7-0.2,0.9-0.5
								C26.2,50.9,26.4,50.4,26.4,50z"/>
						</g>
					</g>
				</g>
				<g>
					<g>
						
							<linearGradient id="SVGID_16_" gradientUnits="userSpaceOnUse" x1="789.3308" y1="-677.8788" x2="789.3308" y2="-96.1764" gradientTransform="matrix(2.777778e-02 0 0 -2.777778e-02 0.9722 27.9181)">
							<stop  offset="0" style="stop-color:#295071"/>
							<stop  offset="1" style="stop-color:#41A0B5"/>
						</linearGradient>
						<path class="st35" d="M30.7,46.7c-1.3-4.9-2.1-8.7-2.6-11.4c-0.3-1.5-0.6-3.3-2.1-4.2c-1.4-0.9-3.6-0.8-4.7,0.3
							c-1.4,1.3-2,2.8-2.5,4.6c-0.7,2.5-1.8,5.9-3.5,10.3C20.3,46.5,25.5,46.6,30.7,46.7z"/>
					</g>
					<g>
						
							<linearGradient id="SVGID_17_" gradientUnits="userSpaceOnUse" x1="2015.4459" y1="-668.7111" x2="2015.4459" y2="-84.0367" gradientTransform="matrix(2.777778e-02 0 0 -2.777778e-02 0.9722 27.9181)">
							<stop  offset="0" style="stop-color:#295071"/>
							<stop  offset="1" style="stop-color:#41A0B5"/>
						</linearGradient>
						<path class="st36" d="M64.7,46.4c-1.3-4.9-2.1-8.6-2.6-11.3c-0.3-1.5-0.6-3.3-2.1-4.2c-1.4-0.9-3.6-0.8-4.7,0.3
							c-1.4,1.3-2,2.8-2.5,4.6c-0.7,2.5-1.8,6.4-3.5,10.8C54.4,46.6,59.4,46.4,64.7,46.4z"/>
					</g>
					<polygon class="st11" points="63.3,46.3 54.3,49.4 43.3,52.9 30.6,52.3 25,49.8 21,48 17.4,46.3 29.5,28.3 32.7,23.5 
						32.9,23.1 35.7,26.9 36,27.2 36.6,27 37.3,26.7 39.5,25.8 43.3,29.1 					"/>
					<g>
						
							<linearGradient id="SVGID_18_" gradientUnits="userSpaceOnUse" x1="1482.89" y1="-899.4293" x2="1482.89" y2="172.0556" gradientTransform="matrix(2.777778e-02 0 0 -2.777778e-02 0.9722 27.9181)">
							<stop  offset="0" style="stop-color:#4182B5"/>
							<stop  offset="1" style="stop-color:#41A0B5"/>
						</linearGradient>
						<path class="st37" d="M63.3,46.4l-8.9,3l-11,3.5l-12.7-0.6L25,49.8L21,48c2.8-3.3,7.9-3.3,11.7-5.4c0.7-0.4,1.4-0.9,1.4-1.7
							c0-1.3-1.8-1.7-2.3-2.9c-0.5-1.1,0.4-2.4,1.5-2.9s2.4-0.6,3.5-0.9c1.2-0.3,2.4-1.2,2.5-2.4c0.1-1.3-1-2.3-2.1-2.8
							c-1.1-0.5-2.4-0.8-3.4-1.6c-1.1-0.9-1.5-2.5-1.1-3.8l0.2-0.4l2.8,3.7l0.3,0.4l3.5-1.4L63.3,46.4z"/>
					</g>
					<polygon class="st13" points="25.8,50.2 30.6,52.4 43.3,52.9 60.3,47.5 56.8,47.9 44.7,49.9 28.5,49.9 23.3,49 					"/>
				</g>
				<g>
					<path class="st38" d="M82.6,70.6H70.4c-0.6,0-1-0.5-1-1l0,0c0-0.6,0.5-1,1-1h12.1c0.6,0,1,0.5,1,1l0,0
						C83.6,70.2,83.1,70.6,82.6,70.6z"/>
					<path class="st38" d="M5.7,75.8H-6.4c-0.6,0-1-0.5-1-1l0,0c0-0.6,0.5-1,1-1H5.7c0.6,0,1,0.5,1,1l0,0
						C6.8,75.4,6.3,75.8,5.7,75.8z"/>
					<path class="st38" d="M73.7,55.6H61.6c-0.6,0-1-0.5-1-1l0,0c0-0.6,0.5-1,1-1h12.1c0.6,0,1,0.5,1,1l0,0
						C74.7,55.1,74.3,55.6,73.7,55.6z"/>
					<path class="st38" d="M9.3,51.4H-2.8c-0.6,0-1-0.5-1-1l0,0c0-0.6,0.5-1,1-1H9.3c0.6,0,1,0.5,1,1l0,0
						C10.4,50.9,9.9,51.4,9.3,51.4z"/>
					<path class="st38" d="M44.5,61.5H32.3c-0.6,0-1-0.5-1-1l0,0c0-0.6,0.5-1,1-1h12.1c0.6,0,1,0.5,1,1l0,0
						C45.5,61,45,61.5,44.5,61.5z"/>
					<path class="st38" d="M21.8,57.7H9.7c-0.6,0-1-0.5-1-1l0,0c0-0.6,0.5-1,1-1h12.1c0.6,0,1,0.5,1,1l0,0
						C22.9,57.3,22.4,57.7,21.8,57.7z"/>
					<path class="st38" d="M18.1,59.9H5.9c-0.6,0-1-0.5-1-1l0,0c0-0.6,0.5-1,1-1h12.1c0.6,0,1,0.5,1,1l0,0
						C19.1,59.4,18.6,59.9,18.1,59.9z"/>
					<path class="st38" d="M45.7,63.5H33.6c-0.6,0-1-0.5-1-1l0,0c0-0.6,0.5-1,1-1h12.1c0.6,0,1,0.5,1,1l0,0
						C46.8,63.1,46.3,63.5,45.7,63.5z"/>
				</g>
				<g>
					<g>
						<path class="st15" d="M42.3,38.5h2.9c0.2,0,0.3-0.3,0.3-0.5c-0.2-0.7-0.4-1.6-0.6-2.4c-0.3-0.8-0.6-1.6-0.8-2.2
							c-0.1-0.3-0.4-0.3-0.5,0c-0.3,0.7-0.6,1.4-0.9,2.3c-0.3,0.9-0.5,1.7-0.6,2.4C41.9,38.3,42.1,38.5,42.3,38.5z"/>
						<circle class="st16" cx="43.7" cy="36.2" r="0.2"/>
						<circle class="st16" cx="43.8" cy="37.2" r="0.2"/>
						<circle class="st16" cx="44.4" cy="36.7" r="0.2"/>
						<circle class="st16" cx="44.4" cy="37.7" r="0.2"/>
						<circle class="st16" cx="42.8" cy="37" r="0.2"/>
						<rect x="43.2" y="38.5" class="st17" width="0.8" height="2.8"/>
					</g>
					<g>
						
							<linearGradient id="SVGID_19_" gradientUnits="userSpaceOnUse" x1="1071.656" y1="-160.4145" x2="1071.656" y2="-7.7926" gradientTransform="matrix(2.777778e-02 0 0 -2.777778e-02 0.9722 27.9181)">
							<stop  offset="0" style="stop-color:#295071"/>
							<stop  offset="1" style="stop-color:#41A0B5"/>
						</linearGradient>
						<path class="st39" d="M34.7,32.3c-0.3,0-0.7,0-1,0c-0.1,0-0.2,0-0.3,0h-2.6c0-0.1,0-0.1,0-0.2c0,0.1,0,0.1-0.1,0.2
							c0,0,0,0,0,0c-1.3,0-2.6,0.1-3.9,0c0.5-1.1,0.7-2.2,0.9-2.8c0.1-0.5,0.3-0.8,0.7-1.2c0.3-0.3,0.9-0.3,1.2-0.1
							c0.4,0.2,0.5,0.7,0.5,1.1c0,0.2,0.1,0.4,0.1,0.6c0.1,0.3,0.3,0.5,0.6,0.5l0,0c0.3,0,0.5-0.2,0.6-0.5c0.1-0.2,0.1-0.3,0.1-0.5
							c0.1-0.5,0.3-0.8,0.7-1.2c0.3-0.3,0.9-0.3,1.2-0.1c0.4,0.2,0.5,0.7,0.5,1.1C34.2,30.1,34.4,31,34.7,32.3z"/>
					</g>
					<g>
						
							<linearGradient id="SVGID_20_" gradientUnits="userSpaceOnUse" x1="1772.443" y1="-791.689" x2="1772.443" y2="-429.55" gradientTransform="matrix(2.777778e-02 0 0 -2.777778e-02 0.9722 27.9181)">
							<stop  offset="0" style="stop-color:#295071"/>
							<stop  offset="1" style="stop-color:#41A0B5"/>
						</linearGradient>
						<path class="st40" d="M41.1,49.9c0-2.5-0.4-6.1,0.8-8.2c0.7-1.1,1.7-1.8,2.9-1.9c1.1,0,2.2,0.6,3,1.7c0.5,0.7,0.8,1.6,1.4,2
							c0.6,0.4,1.4,0.2,2-0.2c0.6-0.4,1.1-1,1.7-1.6c1.3-1.2,3.3-1.8,4.6-0.4c1.4,1.5,1.2,4.2,1.8,6.3"/>
					</g>
					<g>
						<line class="st21" x1="60.5" y1="42" x2="60.6" y2="44.3"/>
						<line class="st21" x1="60.1" y1="42.4" x2="60.5" y2="42"/>
						<line class="st21" x1="60" y1="43" x2="60.6" y2="42.7"/>
						<line class="st21" x1="60" y1="43.6" x2="60.6" y2="43.3"/>
						<line class="st21" x1="61" y1="42.4" x2="60.6" y2="42"/>
						<line class="st21" x1="61.1" y1="43" x2="60.6" y2="42.7"/>
						<line class="st21" x1="61.1" y1="43.6" x2="60.5" y2="43.3"/>
					</g>
					<g>
						<g>
							<defs>
								<rect id="SVGID_21_" x="21.2" y="38.9" width="4.3" height="7.4"/>
							</defs>
							<clipPath id="SVGID_22_">
								<use xlink:href="#SVGID_21_"  style="overflow:visible;"/>
							</clipPath>
							<g style="clip-path:url(#SVGID_22_);">
								
									<use xlink:href="#RoundTree"  width="103" height="176.5" x="-51.5" y="-88.2" transform="matrix(4.215192e-02 0 0 -4.215192e-02 23.3407 42.6261)" style="overflow:visible;"/>
							</g>
						</g>
						<g>
							<defs>
								<rect id="SVGID_23_" x="52.5" y="40.6" width="4.3" height="7.4"/>
							</defs>
							<clipPath id="SVGID_24_">
								<use xlink:href="#SVGID_23_"  style="overflow:visible;"/>
							</clipPath>
							<g transform="matrix(1 0 0 1 0 -3.814697e-06)" style="clip-path:url(#SVGID_24_);">
								
									<use xlink:href="#RoundTree"  width="103" height="176.5" x="-51.5" y="-88.2" transform="matrix(4.215192e-02 0 0 -4.215192e-02 54.6595 44.2701)" style="overflow:visible;"/>
							</g>
						</g>
						<g>
							<defs>
								<rect id="SVGID_25_" x="38.7" y="28.7" width="4.3" height="7.4"/>
							</defs>
							<clipPath id="SVGID_26_">
								<use xlink:href="#SVGID_25_"  style="overflow:visible;"/>
							</clipPath>
							<g style="clip-path:url(#SVGID_26_);">
								
									<use xlink:href="#RoundTree"  width="103" height="176.5" x="-51.5" y="-88.2" transform="matrix(4.215192e-02 0 0 -4.215192e-02 40.8759 32.4675)" style="overflow:visible;"/>
							</g>
						</g>
					</g>
					<g>
						<line class="st21" x1="28.4" y1="26.9" x2="28.5" y2="29.2"/>
						<polyline class="st21" points="28,27.3 28.4,26.9 28.9,27.3 						"/>
						<polyline class="st21" points="27.9,27.9 28.4,27.6 29,27.8 						"/>
						<polyline class="st21" points="27.9,28.5 28.5,28.2 29.1,28.4 						"/>
					</g>
					<g>
						<path class="st15" d="M37.8,25.7h2.9c0.2,0,0.3-0.3,0.3-0.5c-0.2-0.7-0.4-1.6-0.6-2.4c-0.3-0.8-0.6-1.6-0.8-2.2
							c-0.1-0.3-0.4-0.3-0.5,0c-0.3,0.7-0.6,1.4-0.9,2.3c-0.3,0.9-0.5,1.7-0.6,2.4C37.5,25.4,37.6,25.7,37.8,25.7z"/>
						<circle class="st16" cx="39.3" cy="23.4" r="0.2"/>
						<circle class="st16" cx="39.4" cy="24.3" r="0.2"/>
						<circle class="st16" cx="40" cy="23.9" r="0.2"/>
						<circle class="st16" cx="40" cy="24.9" r="0.2"/>
						<circle class="st16" cx="38.4" cy="24.2" r="0.2"/>
						<path class="st17" d="M39.2,28.5L39.2,28.5c-0.2,0-0.4-0.2-0.4-0.4v-2.4h0.8v2.4C39.6,28.3,39.4,28.5,39.2,28.5z"/>
					</g>
					<g>
						<g>
							<polygon class="st19" points="27.6,29.4 26.8,31.6 28.7,30.9 							"/>
							<polygon class="st19" points="27.5,31.4 26.6,33 28.5,33 							"/>
							<polygon class="st19" points="27.6,33 26.4,35.1 28.8,34.9 							"/>
							<g>
								<line class="st20" x1="27.6" y1="30.4" x2="27.6" y2="35.6"/>
							</g>
						</g>
						<g>
							<polygon class="st19" points="34.8,20.3 34.1,22.5 35.9,21.8 							"/>
							<polygon class="st19" points="34.8,22.2 33.9,23.9 35.8,23.9 							"/>
							<polygon class="st19" points="34.8,23.9 33.6,25.9 36,25.8 							"/>
							<g>
								<line class="st20" x1="34.9" y1="21.2" x2="34.9" y2="28.6"/>
							</g>
						</g>
						<g>
							<polygon class="st19" points="47.8,39.7 47,41.9 48.9,41.2 							"/>
							<polygon class="st19" points="47.7,41.6 46.8,43.2 48.7,43.2 							"/>
							<polygon class="st19" points="47.8,43.2 46.5,45.3 49,45.2 							"/>
							<g>
								<line class="st20" x1="47.8" y1="40.6" x2="47.8" y2="48"/>
							</g>
						</g>
						<g>
							<polygon class="st19" points="36.1,32.6 35.3,34.8 37.2,34.1 							"/>
							<polygon class="st19" points="36,34.5 35.2,36.2 37.1,36.2 							"/>
							<polygon class="st19" points="36.1,36.2 34.9,38.2 37.3,38.1 							"/>
							<g>
								<line class="st20" x1="36.1" y1="33.5" x2="36.1" y2="40.9"/>
							</g>
						</g>
					</g>
					<g>
						<line class="st21" x1="59.3" y1="29.3" x2="59.4" y2="31.6"/>
						<polyline class="st21" points="58.9,29.7 59.3,29.3 59.8,29.7 						"/>
						<polyline class="st21" points="58.8,30.3 59.3,30 59.9,30.2 						"/>
						<polyline class="st21" points="58.8,30.9 59.4,30.6 60,30.8 						"/>
					</g>
					<g>
						<g>
							<rect x="30.2" y="27.3" class="st19" width="0.4" height="3.2"/>
							<path class="st22" d="M32,26.8c-0.1,0-0.1,0-0.2,0.1L32,26.8z"/>
							<path class="st22" d="M32.5,26.1c0,0.3-0.2,0.6-0.5,0.7l0,0l-0.2,0.1l-1.5,0.5l-1.5-0.4c-0.4-0.1-0.7-0.4-0.7-0.8
								c0-0.4,0.3-0.8,0.8-0.8c0,0,0.1,0,0.1,0c0-0.1,0-0.1,0-0.2c0-0.4,0.3-0.8,0.8-0.8c0.2,0,0.4,0.1,0.6,0.3
								c0.1-0.2,0.3-0.3,0.6-0.3c0.4,0,0.8,0.3,0.8,0.8c0,0.1,0,0.1,0,0.2c0,0,0,0,0,0C32.2,25.3,32.5,25.7,32.5,26.1z"/>
							<path class="st23" d="M32.5,26.1c0,0.3-0.2,0.6-0.5,0.7l0,0l-0.2,0.1l-1.5,0.5l-1.5-0.4c-0.4-0.1-0.7-0.4-0.7-0.8
								c0-0.4,0.3-0.8,0.8-0.8c0,0,0.1,0,0.1,0c0-0.1,0-0.1,0-0.2c0-0.4,0.3-0.8,0.8-0.8c0.2,0,0.4,0.1,0.6,0.3
								c0.1-0.2,0.3-0.3,0.6-0.3c0.4,0,0.8,0.3,0.8,0.8c0,0.1,0,0.1,0,0.2c0,0,0,0,0,0C32.2,25.3,32.5,25.7,32.5,26.1z"/>
							<path class="st24" d="M31.8,26.5c0,0.2-0.1,0.4-0.3,0.5l0,0l-0.1,0l-1,0.3l-1-0.3c-0.2,0-0.4-0.2-0.4-0.5
								c0-0.3,0.2-0.5,0.5-0.5c0,0,0,0,0,0c0,0,0-0.1,0-0.1c0-0.3,0.2-0.5,0.5-0.5c0.2,0,0.3,0.1,0.4,0.2c0.1-0.1,0.2-0.2,0.4-0.2
								c0.3,0,0.5,0.2,0.5,0.5c0,0,0,0.1,0,0.1c0,0,0,0,0,0C31.5,26,31.8,26.2,31.8,26.5z"/>
							<path class="st23" d="M29.9,26.7h1c0,0.1-0.1,0.2-0.2,0.3c-0.1,0.2-0.3,0.2-0.4,0.3c-0.1-0.1-0.2-0.1-0.3-0.3
								C30,26.9,29.9,26.8,29.9,26.7z"/>
						</g>
						<g>
							<rect x="40.4" y="45.2" class="st27" width="0.4" height="3.2"/>
							<path class="st22" d="M42.2,44.8c-0.1,0-0.1,0-0.2,0.1L42.2,44.8z"/>
							<path class="st22" d="M42.7,44.1c0,0.3-0.2,0.6-0.5,0.7l0,0L42,44.8l-1.5,0.5L39,44.8c-0.4-0.1-0.7-0.4-0.7-0.8
								c0-0.4,0.3-0.8,0.8-0.8c0,0,0.1,0,0.1,0c0-0.1,0-0.1,0-0.2c0-0.4,0.3-0.8,0.8-0.8c0.2,0,0.4,0.1,0.6,0.3
								c0.1-0.2,0.3-0.3,0.6-0.3c0.4,0,0.8,0.3,0.8,0.8c0,0.1,0,0.1,0,0.2c0,0,0,0,0,0C42.3,43.3,42.7,43.6,42.7,44.1z"/>
							<path class="st28" d="M42.7,44.1c0,0.3-0.2,0.6-0.5,0.7l0,0L42,44.8l-1.5,0.5L39,44.8c-0.4-0.1-0.7-0.4-0.7-0.8
								c0-0.4,0.3-0.8,0.8-0.8c0,0,0.1,0,0.1,0c0-0.1,0-0.1,0-0.2c0-0.4,0.3-0.8,0.8-0.8c0.2,0,0.4,0.1,0.6,0.3
								c0.1-0.2,0.3-0.3,0.6-0.3c0.4,0,0.8,0.3,0.8,0.8c0,0.1,0,0.1,0,0.2c0,0,0,0,0,0C42.3,43.3,42.7,43.6,42.7,44.1z"/>
							<path class="st24" d="M41.9,44.5c0,0.2-0.1,0.4-0.3,0.5l0,0l-0.1,0l-1,0.3l-1-0.3c-0.2,0-0.4-0.2-0.4-0.5
								c0-0.3,0.2-0.5,0.5-0.5c0,0,0,0,0,0c0,0,0-0.1,0-0.1c0-0.3,0.2-0.5,0.5-0.5c0.2,0,0.3,0.1,0.4,0.2c0.1-0.1,0.2-0.2,0.4-0.2
								c0.3,0,0.5,0.2,0.5,0.5c0,0,0,0.1,0,0.1c0,0,0,0,0,0C41.7,44,41.9,44.2,41.9,44.5z"/>
							<path class="st28" d="M40.1,44.6h1c0,0.1-0.1,0.2-0.2,0.3c-0.1,0.2-0.3,0.2-0.4,0.3c-0.1-0.1-0.2-0.1-0.3-0.3
								C40.1,44.8,40.1,44.7,40.1,44.6z"/>
						</g>
						<g>
							<rect x="49.7" y="35.6" class="st19" width="0.4" height="3.2"/>
							<path class="st22" d="M51.5,35.1c-0.1,0-0.1,0-0.2,0.1L51.5,35.1z"/>
							<path class="st22" d="M52,34.4c0,0.3-0.2,0.6-0.5,0.7l0,0l-0.2,0.1l-1.5,0.5l-1.5-0.4c-0.4-0.1-0.7-0.4-0.7-0.8
								c0-0.4,0.3-0.8,0.8-0.8c0,0,0.1,0,0.1,0c0-0.1,0-0.1,0-0.2c0-0.4,0.3-0.8,0.8-0.8c0.2,0,0.4,0.1,0.6,0.3
								c0.1-0.2,0.3-0.3,0.6-0.3c0.4,0,0.8,0.3,0.8,0.8c0,0.1,0,0.1,0,0.2c0,0,0,0,0,0C51.6,33.6,52,34,52,34.4z"/>
							<path class="st23" d="M52,34.4c0,0.3-0.2,0.6-0.5,0.7l0,0l-0.2,0.1l-1.5,0.5l-1.5-0.4c-0.4-0.1-0.7-0.4-0.7-0.8
								c0-0.4,0.3-0.8,0.8-0.8c0,0,0.1,0,0.1,0c0-0.1,0-0.1,0-0.2c0-0.4,0.3-0.8,0.8-0.8c0.2,0,0.4,0.1,0.6,0.3
								c0.1-0.2,0.3-0.3,0.6-0.3c0.4,0,0.8,0.3,0.8,0.8c0,0.1,0,0.1,0,0.2c0,0,0,0,0,0C51.6,33.6,52,34,52,34.4z"/>
							<path class="st24" d="M51.2,34.8c0,0.2-0.1,0.4-0.3,0.5l0,0l-0.1,0l-1,0.3l-1-0.3c-0.2,0-0.4-0.2-0.4-0.5
								c0-0.3,0.2-0.5,0.5-0.5c0,0,0,0,0,0c0,0,0-0.1,0-0.1c0-0.3,0.2-0.5,0.5-0.5c0.2,0,0.3,0.1,0.4,0.2c0.1-0.1,0.2-0.2,0.4-0.2
								c0.3,0,0.5,0.2,0.5,0.5c0,0,0,0.1,0,0.1c0,0,0,0,0,0C51,34.3,51.2,34.5,51.2,34.8z"/>
							<path class="st23" d="M49.4,35h1c0,0.1-0.1,0.2-0.2,0.3c-0.1,0.2-0.3,0.2-0.4,0.3c-0.1-0.1-0.2-0.1-0.3-0.3
								C49.4,35.2,49.4,35.1,49.4,35z"/>
						</g>
					</g>
					<g>
						<path class="st29" d="M26.3,48.6c-0.2-1.6-0.2-4.4-0.1-6c0-0.3,0.5-0.4,0.6-0.1c0.5,1.4,1,2.8,1.6,4.2c0.1,0.3,0.5,0.3,0.6,0
							c0-0.1,0.1-0.1,0.1-0.2c0.3-0.3,0.7,0.2,0.8,0.6c0,0.1,0.1,0.3,0.1,0.5c0.1,0.3,0.5,0.3,0.6,0l0.3-1.2c0.1-0.3,0.5-0.3,0.6,0
							l0.3,1c0.1,0.3,0.6,0.3,0.6-0.1l0.2-2.7c0-0.3,0.5-0.4,0.6-0.1c0.4,1.2,0.8,2.3,1.3,3.5c0.1,0.3,0.5,0.2,0.6-0.1l0.2-0.7
							c0.1-0.3,0.5-0.3,0.6,0c0.1,0.3,0.2,0.6,0.4,0.8c0.1,0.3,0.5,0.2,0.6-0.1c0.1-0.8,0.2-1.5,0.3-2.3c0-0.3,0.5-0.4,0.6-0.1
							c0.2,0.6,0.5,1.3,0.8,1.9c0.1,0.3,0.6,0.2,0.6-0.1l0.1-1.9c0-0.3,0.5-0.4,0.6-0.1l0.8,2.1c0.1,0.3,0.6,0.3,0.6-0.1
							c0-0.4,0.1-0.8,0.1-1.2c0-0.3,0.4-0.4,0.6-0.1c0.1,0.1,0.1,0.3,0.2,0.4c0.1,0.2,0.5,0.2,0.6-0.1c0.1-0.5,0.2-1,0.2-1.5
							c0-0.3,0.5-0.4,0.6-0.1c0.2,0.6,0.3,1.3,0.4,2c0,0,0,0,0,0l0.1,1.4c0,0.2-0.1,0.3-0.3,0.3l-9,0.3c0,0,0,0-0.1,0l-7.9-0.1
							c0,0-0.1,0-0.1,0C26.4,48.8,26.3,48.8,26.3,48.6z"/>
					</g>
					<g>
						<path class="st30" d="M52.3,48.4c0.1-1.5,0.1-3.1-0.1-4.6c0-0.3-0.5-0.3-0.6-0.1c-0.4,1.3-0.9,2.7-1.3,4
							c-0.1,0.2-0.4,0.3-0.5,0c0-0.1-0.1-0.1-0.1-0.2c-0.3-0.3-0.7,0.2-0.7,0.6c0,0.1,0,0.3-0.1,0.4c-0.1,0.3-0.5,0.3-0.6,0L48,47.5
							c-0.1-0.3-0.5-0.3-0.6,0l-0.3,0.9c-0.1,0.3-0.5,0.3-0.6,0l-0.3-2.5c0-0.3-0.5-0.3-0.6,0c-0.3,1.1-0.6,2.2-1.1,3.3
							c-0.1,0.2-0.5,0.2-0.5,0l-0.2-0.6c-0.1-0.3-0.5-0.3-0.5,0s-0.2,0.5-0.3,0.8c-0.1,0.2-0.5,0.2-0.5-0.1
							c-0.1-0.7-0.3-1.4-0.3-2.1c0-0.3-0.5-0.3-0.6-0.1c-0.2,0.6-0.4,1.2-0.7,1.8c-0.1,0.3-0.5,0.2-0.5-0.1l-0.1-1.7
							c0-0.3-0.5-0.4-0.6-0.1l-0.6,2c-0.1,0.3-0.5,0.3-0.6,0c-0.1-0.4-0.1-0.7-0.1-1.1c0-0.3-0.4-0.4-0.6-0.1
							c-0.1,0.1-0.1,0.3-0.2,0.4c-0.1,0.2-0.5,0.2-0.5-0.1c-0.1-0.5-0.2-0.9-0.2-1.4c0-0.3-0.5-0.4-0.6,0c-0.1,0.6-0.2,1.2-0.3,1.9
							c0,0,0,0,0,0l-0.1,1.3c0,0.2,0.1,0.3,0.3,0.3l8.5,0c0,0,0,0,0.1,0l7.4-1.4C52.2,48.6,52.3,48.5,52.3,48.4z"/>
					</g>
					<g>
						<path class="st30" d="M47.1,38.9c-0.1,0.3,0.2,0.6,0.5,0.6c2.3-0.2,4.7-0.5,7-0.7c0.1,0,0.2-0.1,0.3-0.2
							c0.2-1.5,0.3-3.1,0.3-4.6c0-0.3-0.4-0.4-0.6-0.1c-0.6,1.3-1.1,2.6-1.7,3.9c-0.1,0.2-0.4,0.2-0.5,0c0-0.1-0.1-0.1-0.1-0.2
							c-0.3-0.3-0.7,0.1-0.8,0.5c0,0.1-0.1,0.3-0.1,0.4c-0.1,0.3-0.5,0.3-0.6,0l-0.2-1.2c-0.1-0.3-0.4-0.3-0.6,0l-0.3,0.9
							c-0.1,0.3-0.5,0.2-0.6-0.1l-0.1-2.5c0-0.3-0.5-0.4-0.6-0.1c-0.2,0.7-0.8,1.6-1.2,2.9C47.3,38.4,47.2,38.6,47.1,38.9
							C47.1,38.9,47.1,38.9,47.1,38.9z"/>
					</g>
					<g>
						<g>
							<path class="st25" d="M43.9,20.5C43.9,20.5,43.9,20.5,43.9,20.5"/>
							<rect x="43.7" y="28.4" class="st26" width="0.3" height="2.3"/>
							<path class="st25" d="M43.9,24.3c0.2-0.2,0.4-0.3,0.5-0.2c0.1,0,0.1,0.1,0.3,0.2c0.1,0,0.2,0.1,0.3,0
								c0.1-0.1,0.2-0.2,0.2-0.2c0-0.2-0.1-0.3-0.1-0.3c-0.1-0.1-0.3-0.2-0.5-0.2c-0.1,0-0.2-0.1-0.4-0.2C44,23.2,44,23.1,43.9,23
								c0-0.1,0-0.8,0-0.8c0,0-0.1,0-0.1,0C43.8,22.7,43.8,23.8,43.9,24.3L43.9,24.3L43.9,24.3z"/>
							<path class="st25" d="M43.8,24.2v1.4c0-0.1,0-0.1,0.1-0.1c0.1,0,0.1,0,0.1,0.1c0.2,0.1,0.4,0.2,0.5,0.1
								c0.1,0,0.1-0.1,0.1-0.1c0,0,0.1-0.1,0.2,0c0.1,0,0.1,0.1,0.3,0.2c0.1,0,0.2,0.1,0.3,0c0.1,0,0.1-0.1,0.1-0.1
								c0.1-0.2-0.1-0.4-0.1-0.4c-0.1-0.1-0.2-0.1-0.4-0.2c-0.1-0.1-0.4-0.2-0.6-0.3C44.3,24.5,44.1,24.4,43.8,24.2L43.8,24.2z"/>
							<path class="st25" d="M43.9,27.3c0.2-0.2,0.4-0.3,0.5-0.2c0.1,0,0.1,0.1,0.3,0.2c0.1,0,0.2,0.1,0.3,0
								c0.1-0.1,0.2-0.2,0.2-0.2c0-0.2-0.1-0.3-0.1-0.3c-0.1-0.1-0.1-0.1-0.5-0.2c-0.2-0.1-0.3-0.1-0.4-0.2C44,26.2,44,26,44,25.9
								c0-0.2,0-0.3,0-0.3c0-0.1,0-0.2,0-0.2c0,0-0.1,0-0.1,0C43.9,25.9,43.9,26.8,43.9,27.3L43.9,27.3L43.9,27.3z"/>
							<path class="st25" d="M44.8,21.3L44.8,21.3c0,0.1-0.1,0.1-0.1,0.2c-0.1,0-0.2,0-0.2,0c-0.1-0.1-0.1-0.2-0.2-0.2
								c0,0,0,0-0.1,0c-0.1,0-0.1,0.1-0.1,0.2c0,0-0.1,0-0.1,0l0,0c-0.1,0-0.1,0-0.2,0c-0.1-0.1-0.1-0.1-0.2-0.2c0,0-0.1,0-0.1,0
								c-0.1,0-0.1,0.1-0.2,0.2c0,0-0.1,0.1-0.2,0c0,0-0.1-0.1-0.1-0.2c0-0.1,0.1-0.2,0.1-0.3c0.1-0.1,0.1-0.1,0.3-0.2
								c0.2-0.1,0.3-0.1,0.3-0.2c0.1-0.1,0.2-0.2,0.2-0.2c0,0,0,0,0,0c0,0,0,0,0,0c0,0.1,0.1,0.1,0.2,0.2c0,0,0.1,0.1,0.3,0.2
								c0.2,0.1,0.3,0.1,0.3,0.2C44.7,21.1,44.8,21.2,44.8,21.3z"/>
							<path class="st25" d="M43.9,20.5C43.9,20.5,43.9,20.5,43.9,20.5"/>
							<path class="st25" d="M43.8,24.3c-0.2-0.2-0.4-0.3-0.5-0.2c-0.1,0-0.1,0.1-0.3,0.2c-0.1,0-0.2,0.1-0.3,0
								c-0.1-0.1-0.2-0.2-0.2-0.2c0-0.2,0.1-0.3,0.1-0.3c0.1-0.1,0.3-0.2,0.5-0.2c0.1,0,0.2-0.1,0.4-0.2c0.1-0.1,0.2-0.2,0.2-0.3
								c0-0.1,0-0.8,0-0.8c0,0,0.1,0,0.1,0C43.9,22.7,43.9,23.8,43.8,24.3L43.8,24.3L43.8,24.3z"/>
							<path class="st25" d="M43.9,24.2v1.4c0-0.1,0-0.1-0.1-0.1c-0.1,0-0.1,0-0.1,0.1c-0.2,0.1-0.4,0.2-0.5,0.1
								c-0.1,0-0.1-0.1-0.1-0.1c0,0-0.1-0.1-0.2,0c-0.1,0-0.1,0.1-0.3,0.2c-0.1,0-0.2,0.1-0.3,0c-0.1,0-0.1-0.1-0.1-0.1
								c-0.1-0.2,0.1-0.4,0.1-0.4c0.1-0.1,0.2-0.1,0.4-0.2c0.1-0.1,0.4-0.2,0.6-0.3C43.4,24.5,43.6,24.4,43.9,24.2L43.9,24.2z"/>
							<path class="st25" d="M43.8,27.3c-0.2-0.2-0.4-0.3-0.5-0.2c-0.1,0-0.1,0.1-0.3,0.2c0,0-0.2,0.1-0.3,0
								c-0.1-0.1-0.2-0.2-0.2-0.2c0-0.2,0.1-0.3,0.1-0.3c0.1-0.1,0.1-0.1,0.5-0.2c0.2-0.1,0.3-0.1,0.4-0.2c0,0,0.1-0.1,0.2-0.3
								c0-0.1,0-0.2,0-0.4c0-0.1,0-0.2,0-0.2c0,0,0.1,0,0.1,0C43.8,25.9,43.8,26.8,43.8,27.3L43.8,27.3L43.8,27.3z"/>
							<rect x="43.8" y="21" class="st25" width="0.2" height="7.5"/>
							<path class="st25" d="M43.8,22.6c0,0-0.1-0.1-0.2-0.1c-0.1,0-0.1-0.1-0.2-0.1c-0.1,0-0.1,0.2-0.2,0.2c-0.1,0-0.2,0-0.3,0
								c0,0-0.1-0.1-0.1-0.2c0-0.1,0.1-0.3,0.1-0.3c0.1-0.1,0.3-0.1,0.4-0.2c0,0,0.2-0.1,0.3-0.2c0.1-0.1,0.2-0.2,0.2-0.3
								c0-0.1,0-0.1,0-0.2c0,0,0.1,0,0.1,0C43.8,21.7,43.8,22.1,43.8,22.6C43.8,22.6,43.8,22.6,43.8,22.6z"/>
							<path class="st25" d="M44,22.6c0,0,0.1-0.1,0.2-0.1c0.1,0,0.1-0.1,0.2,0c0.1,0,0.1,0.1,0.2,0.2c0,0,0.2,0.1,0.3,0
								c0.1-0.1,0.1-0.2,0.1-0.2c0-0.1-0.1-0.3-0.1-0.3c-0.1-0.1-0.3-0.1-0.4-0.2c0,0-0.2-0.1-0.3-0.2c-0.1-0.1-0.2-0.2-0.2-0.3
								c0-0.1,0-0.1,0-0.2c0,0-0.1,0-0.1,0C43.9,21.7,43.9,22.1,44,22.6L44,22.6z"/>
							<path class="st25" d="M43.8,28.5c0,0-0.1-0.1-0.2-0.1c-0.1,0-0.1-0.1-0.2-0.1c-0.1,0-0.1,0.2-0.2,0.2c-0.1,0-0.2,0-0.3,0
								c0,0-0.1-0.1-0.1-0.2c0-0.1,0.1-0.3,0.1-0.3c0.1-0.1,0.3-0.1,0.4-0.2c0,0,0.2-0.1,0.3-0.2c0.1-0.1,0.2-0.2,0.2-0.3
								c0-0.1,0-0.1,0-0.2c0,0,0.1,0,0.1,0C43.8,27.6,43.8,28,43.8,28.5L43.8,28.5z"/>
							<path class="st25" d="M44,28.5c0,0,0.1-0.1,0.2-0.1c0.1,0,0.1-0.1,0.2,0c0.1,0,0.1,0.1,0.2,0.2c0,0,0.2,0.1,0.3,0
								c0.1-0.1,0.1-0.2,0.1-0.2c0-0.1-0.1-0.3-0.1-0.3c-0.1-0.1-0.3-0.1-0.4-0.2c0,0-0.2-0.1-0.3-0.2c-0.1-0.1-0.2-0.2-0.2-0.3
								c0-0.1,0-0.1,0-0.2c0,0-0.1,0-0.1,0C43.9,27.6,43.9,28,44,28.5L44,28.5z"/>
						</g>
						<g>
							<path class="st25" d="M22.4,26.4C22.4,26.4,22.4,26.4,22.4,26.4"/>
							<rect x="22.3" y="34.3" class="st26" width="0.3" height="2.3"/>
							<path class="st25" d="M22.5,30.2c0.2-0.2,0.4-0.3,0.5-0.2c0.1,0,0.1,0.1,0.3,0.2c0.1,0,0.2,0.1,0.3,0
								c0.1-0.1,0.2-0.2,0.2-0.2c0-0.2-0.1-0.3-0.1-0.3c-0.1-0.1-0.3-0.2-0.5-0.2c-0.1,0-0.2-0.1-0.4-0.2c-0.1-0.1-0.2-0.2-0.2-0.3
								c0-0.1,0-0.8,0-0.8c0,0-0.1,0-0.1,0C22.4,28.6,22.4,29.7,22.5,30.2L22.5,30.2L22.5,30.2z"/>
							<path class="st25" d="M22.4,30.1v1.4c0-0.1,0-0.1,0.1-0.1c0.1,0,0.1,0,0.1,0.1c0.2,0.1,0.4,0.2,0.5,0.1
								c0.1,0,0.1-0.1,0.1-0.1c0,0,0.1-0.1,0.2,0c0.1,0,0.1,0.1,0.3,0.2c0.1,0,0.2,0.1,0.3,0c0.1,0,0.1-0.1,0.1-0.1
								c0.1-0.2-0.1-0.4-0.1-0.4c-0.1-0.1-0.2-0.1-0.4-0.2c-0.1-0.1-0.4-0.2-0.6-0.3C22.8,30.4,22.6,30.3,22.4,30.1L22.4,30.1z"/>
							<path class="st25" d="M22.5,33.2c0.2-0.2,0.4-0.3,0.5-0.2c0.1,0,0.1,0.1,0.3,0.2c0.1,0,0.2,0.1,0.3,0
								c0.1-0.1,0.2-0.2,0.2-0.2c0-0.2-0.1-0.3-0.1-0.3c-0.1-0.1-0.1-0.1-0.5-0.2c-0.2-0.1-0.3-0.1-0.4-0.2
								c-0.1-0.1-0.2-0.3-0.2-0.4c0-0.2,0-0.3,0-0.3c0-0.1,0-0.2,0-0.2c0,0-0.1,0-0.1,0C22.4,31.8,22.4,32.7,22.5,33.2L22.5,33.2
								L22.5,33.2z"/>
							<path class="st25" d="M23.3,27.2L23.3,27.2c0,0.1-0.1,0.1-0.1,0.2c-0.1,0-0.2,0-0.2,0c-0.1-0.1-0.1-0.2-0.2-0.2
								c0,0,0,0-0.1,0c-0.1,0-0.1,0.1-0.1,0.2c0,0-0.1,0-0.1,0l0,0c-0.1,0-0.1,0-0.2,0c-0.1-0.1-0.1-0.1-0.2-0.2c0,0-0.1,0-0.1,0
								c-0.1,0-0.1,0.1-0.2,0.2c0,0-0.1,0.1-0.2,0c0,0-0.1-0.1-0.1-0.2c0-0.1,0.1-0.2,0.1-0.3c0.1-0.1,0.1-0.1,0.3-0.2
								c0.2-0.1,0.3-0.1,0.3-0.2c0.1-0.1,0.2-0.2,0.2-0.2c0,0,0,0,0,0c0,0,0,0,0,0c0,0.1,0.1,0.1,0.2,0.2c0,0,0.1,0.1,0.3,0.2
								c0.2,0.1,0.3,0.1,0.3,0.2C23.3,27,23.3,27.1,23.3,27.2z"/>
							<path class="st25" d="M22.4,26.4C22.4,26.4,22.4,26.4,22.4,26.4"/>
							<path class="st25" d="M22.3,30.2C22.1,30,22,30,21.9,30c-0.1,0-0.1,0.1-0.3,0.2c-0.1,0-0.2,0.1-0.3,0
								c-0.1-0.1-0.2-0.2-0.2-0.2c0-0.2,0.1-0.3,0.1-0.3c0.1-0.1,0.3-0.2,0.5-0.2c0.1,0,0.2-0.1,0.4-0.2c0.1-0.1,0.2-0.2,0.2-0.3
								c0-0.1,0-0.8,0-0.8c0,0,0.1,0,0.1,0C22.4,28.6,22.4,29.7,22.3,30.2L22.3,30.2L22.3,30.2z"/>
							<path class="st25" d="M22.4,30.1v1.4c0-0.1,0-0.1-0.1-0.1s-0.1,0-0.1,0.1c-0.2,0.1-0.4,0.2-0.5,0.1c-0.1,0-0.1-0.1-0.1-0.1
								c0,0-0.1-0.1-0.2,0c-0.1,0-0.1,0.1-0.3,0.2c-0.1,0-0.2,0.1-0.3,0c-0.1,0-0.1-0.1-0.1-0.1c-0.1-0.2,0.1-0.4,0.1-0.4
								c0.1-0.1,0.2-0.1,0.4-0.2c0.1-0.1,0.4-0.2,0.6-0.3C22,30.4,22.1,30.3,22.4,30.1L22.4,30.1z"/>
							<path class="st25" d="M22.3,33.2C22.1,33,21.9,33,21.9,33c-0.1,0-0.1,0.1-0.3,0.2c0,0-0.2,0.1-0.3,0
								c-0.1-0.1-0.2-0.2-0.2-0.2c0-0.2,0.1-0.3,0.1-0.3c0.1-0.1,0.1-0.1,0.5-0.2c0.2-0.1,0.3-0.1,0.4-0.2c0,0,0.1-0.1,0.2-0.3
								c0-0.1,0-0.2,0-0.4c0-0.1,0-0.2,0-0.2c0,0,0.1,0,0.1,0C22.4,31.8,22.4,32.7,22.3,33.2L22.3,33.2L22.3,33.2z"/>
							<rect x="22.3" y="26.9" class="st25" width="0.2" height="7.5"/>
							<path class="st25" d="M22.3,28.5c0,0-0.1-0.1-0.2-0.1c-0.1,0-0.1-0.1-0.2-0.1c-0.1,0-0.1,0.2-0.2,0.2c-0.1,0-0.2,0-0.3,0
								c0,0-0.1-0.1-0.1-0.2c0-0.1,0.1-0.3,0.1-0.3c0.1-0.1,0.3-0.1,0.4-0.2c0,0,0.2-0.1,0.3-0.2c0.1-0.1,0.2-0.2,0.2-0.3
								c0-0.1,0-0.1,0-0.2c0,0,0.1,0,0.1,0C22.4,27.6,22.4,28,22.3,28.5L22.3,28.5z"/>
							<path class="st25" d="M22.5,28.5c0,0,0.1-0.1,0.2-0.1c0.1,0,0.1-0.1,0.2,0c0.1,0,0.1,0.1,0.2,0.2c0,0,0.2,0.1,0.3,0
								c0.1-0.1,0.1-0.2,0.1-0.2c0-0.1-0.1-0.3-0.1-0.3c-0.1-0.1-0.3-0.1-0.4-0.2c0,0-0.2-0.1-0.3-0.2c-0.1-0.1-0.2-0.2-0.2-0.3
								c0-0.1,0-0.1,0-0.2c0,0-0.1,0-0.1,0C22.4,27.6,22.4,28,22.5,28.5L22.5,28.5z"/>
							<path class="st25" d="M22.3,34.4c0,0-0.1-0.1-0.2-0.1c-0.1,0-0.1-0.1-0.2-0.1c-0.1,0-0.1,0.2-0.2,0.2c-0.1,0-0.2,0-0.3,0
								c0,0-0.1-0.1-0.1-0.2c0-0.1,0.1-0.3,0.1-0.3c0.1-0.1,0.3-0.1,0.4-0.2c0,0,0.2-0.1,0.3-0.2c0.1-0.1,0.2-0.2,0.2-0.3
								c0-0.1,0-0.1,0-0.2c0,0,0.1,0,0.1,0C22.4,33.5,22.4,33.9,22.3,34.4L22.3,34.4z"/>
							<path class="st25" d="M22.5,34.4c0,0,0.1-0.1,0.2-0.1c0.1,0,0.1-0.1,0.2,0c0.1,0,0.1,0.1,0.2,0.2c0,0,0.2,0.1,0.3,0
								c0.1-0.1,0.1-0.2,0.1-0.2c0-0.1-0.1-0.3-0.1-0.3c-0.1-0.1-0.3-0.1-0.4-0.2c0,0-0.2-0.1-0.3-0.2c-0.1-0.1-0.2-0.2-0.2-0.3
								c0-0.1,0-0.1,0-0.2c0,0-0.1,0-0.1,0C22.4,33.5,22.4,33.9,22.5,34.4L22.5,34.4z"/>
						</g>
						<g>
							<path class="st25" d="M30.4,37.8C30.4,37.8,30.4,37.8,30.4,37.8"/>
							<rect x="30.3" y="45.7" class="st26" width="0.3" height="2.3"/>
							<path class="st25" d="M30.5,41.7c0.2-0.2,0.4-0.3,0.5-0.2c0.1,0,0.1,0.1,0.3,0.2c0.1,0,0.2,0.1,0.3,0
								c0.1-0.1,0.2-0.2,0.2-0.2c0-0.2-0.1-0.3-0.1-0.3c-0.1-0.1-0.3-0.2-0.5-0.2c-0.1,0-0.2-0.1-0.4-0.2c-0.1-0.1-0.2-0.2-0.2-0.3
								c0-0.1,0-0.8,0-0.8c0,0-0.1,0-0.1,0C30.4,40,30.4,41.1,30.5,41.7L30.5,41.7L30.5,41.7z"/>
							<path class="st25" d="M30.4,41.5v1.4c0-0.1,0-0.1,0.1-0.1c0.1,0,0.1,0,0.1,0.1C30.8,43,31,43,31.1,43c0.1,0,0.1-0.1,0.1-0.1
								c0,0,0.1-0.1,0.2,0c0.1,0,0.1,0.1,0.3,0.2c0.1,0,0.2,0.1,0.3,0c0.1,0,0.1-0.1,0.1-0.1c0.1-0.2-0.1-0.4-0.1-0.4
								c-0.1-0.1-0.2-0.1-0.4-0.2c-0.1-0.1-0.4-0.2-0.6-0.3C30.8,41.8,30.7,41.7,30.4,41.5L30.4,41.5z"/>
							<path class="st25" d="M30.5,44.7c0.2-0.2,0.4-0.3,0.5-0.2c0.1,0,0.1,0.1,0.3,0.2c0.1,0,0.2,0.1,0.3,0
								c0.1-0.1,0.2-0.2,0.2-0.2c0-0.2-0.1-0.3-0.1-0.3c-0.1-0.1-0.1-0.1-0.5-0.2c-0.2-0.1-0.3-0.1-0.4-0.2
								c-0.1-0.1-0.2-0.3-0.2-0.4c0-0.2,0-0.3,0-0.3c0-0.1,0-0.2,0-0.2c0,0-0.1,0-0.1,0C30.4,43.2,30.4,44.1,30.5,44.7L30.5,44.7
								L30.5,44.7z"/>
							<path class="st25" d="M31.3,38.6L31.3,38.6c0,0.1-0.1,0.1-0.1,0.2c-0.1,0-0.2,0-0.2,0c-0.1-0.1-0.1-0.2-0.2-0.2
								c0,0,0,0-0.1,0c-0.1,0-0.1,0.1-0.1,0.2c0,0-0.1,0-0.1,0l0,0c-0.1,0-0.1,0-0.2,0c-0.1-0.1-0.1-0.1-0.2-0.2c0,0-0.1,0-0.1,0
								c-0.1,0-0.1,0.1-0.2,0.2c0,0-0.1,0.1-0.2,0c0,0-0.1-0.1-0.1-0.2c0-0.1,0.1-0.2,0.1-0.3c0.1-0.1,0.1-0.1,0.3-0.2
								c0.2-0.1,0.3-0.1,0.3-0.2c0.1-0.1,0.2-0.2,0.2-0.2c0,0,0,0,0,0c0,0,0,0,0,0c0,0.1,0.1,0.1,0.2,0.2c0,0,0.1,0.1,0.3,0.2
								c0.2,0.1,0.3,0.1,0.3,0.2C31.3,38.4,31.4,38.5,31.3,38.6z"/>
							<path class="st25" d="M30.4,37.8C30.4,37.8,30.4,37.8,30.4,37.8"/>
							<path class="st25" d="M30.3,41.7c-0.2-0.2-0.4-0.3-0.5-0.2c-0.1,0-0.1,0.1-0.3,0.2c-0.1,0-0.2,0.1-0.3,0
								c-0.1-0.1-0.2-0.2-0.2-0.2c0-0.2,0.1-0.3,0.1-0.3c0.1-0.1,0.3-0.2,0.5-0.2c0.1,0,0.2-0.1,0.4-0.2c0.1-0.1,0.2-0.2,0.2-0.3
								c0-0.1,0-0.8,0-0.8c0,0,0.1,0,0.1,0C30.4,40,30.4,41.1,30.3,41.7L30.3,41.7L30.3,41.7z"/>
							<path class="st25" d="M30.4,41.5v1.4c0-0.1,0-0.1-0.1-0.1c-0.1,0-0.1,0-0.1,0.1C30.1,43,29.9,43,29.7,43
								c-0.1,0-0.1-0.1-0.1-0.1c0,0-0.1-0.1-0.2,0c-0.1,0-0.1,0.1-0.3,0.2c-0.1,0-0.2,0.1-0.3,0c-0.1,0-0.1-0.1-0.1-0.1
								c-0.1-0.2,0.1-0.4,0.1-0.4c0.1-0.1,0.2-0.1,0.4-0.2c0.1-0.1,0.4-0.2,0.6-0.3C30,41.8,30.2,41.7,30.4,41.5L30.4,41.5z"/>
							<path class="st25" d="M30.3,44.7c-0.2-0.2-0.4-0.3-0.5-0.2c-0.1,0-0.1,0.1-0.3,0.2c0,0-0.2,0.1-0.3,0
								c-0.1-0.1-0.2-0.2-0.2-0.2c0-0.2,0.1-0.3,0.1-0.3c0.1-0.1,0.1-0.1,0.5-0.2c0.2-0.1,0.3-0.1,0.4-0.2c0,0,0.1-0.1,0.2-0.3
								c0-0.1,0-0.2,0-0.4c0-0.1,0-0.2,0-0.2c0,0,0.1,0,0.1,0C30.4,43.2,30.4,44.1,30.3,44.7L30.3,44.7L30.3,44.7z"/>
							<rect x="30.3" y="38.4" class="st25" width="0.2" height="7.5"/>
							<path class="st25" d="M30.3,39.9c0,0-0.1-0.1-0.2-0.1c-0.1,0-0.1-0.1-0.2-0.1c-0.1,0-0.1,0.2-0.2,0.2c-0.1,0-0.2,0-0.3,0
								c0,0-0.1-0.1-0.1-0.2c0-0.1,0.1-0.3,0.1-0.3c0.1-0.1,0.3-0.1,0.4-0.2c0,0,0.2-0.1,0.3-0.2c0.1-0.1,0.2-0.2,0.2-0.3
								c0-0.1,0-0.1,0-0.2c0,0,0.1,0,0.1,0C30.4,39,30.4,39.5,30.3,39.9L30.3,39.9z"/>
							<path class="st25" d="M30.5,39.9c0,0,0.1-0.1,0.2-0.1c0.1,0,0.1-0.1,0.2,0c0.1,0,0.1,0.1,0.2,0.2c0,0,0.2,0.1,0.3,0
								c0.1-0.1,0.1-0.2,0.1-0.2c0-0.1-0.1-0.3-0.1-0.3c-0.1-0.1-0.3-0.1-0.4-0.2c0,0-0.2-0.1-0.3-0.2c-0.1-0.1-0.2-0.2-0.2-0.3
								c0-0.1,0-0.1,0-0.2c0,0-0.1,0-0.1,0C30.4,39,30.4,39.5,30.5,39.9L30.5,39.9z"/>
							<path class="st25" d="M30.3,45.8c0,0-0.1-0.1-0.2-0.1c-0.1,0-0.1-0.1-0.2-0.1c-0.1,0-0.1,0.2-0.2,0.2c-0.1,0-0.2,0-0.3,0
								c0,0-0.1-0.1-0.1-0.2c0-0.1,0.1-0.3,0.1-0.3c0.1-0.1,0.3-0.1,0.4-0.2c0,0,0.2-0.1,0.3-0.2c0.1-0.1,0.2-0.2,0.2-0.3
								c0-0.1,0-0.1,0-0.2c0,0,0.1,0,0.1,0C30.4,44.9,30.4,45.4,30.3,45.8C30.4,45.8,30.3,45.8,30.3,45.8z"/>
							<path class="st25" d="M30.5,45.8c0,0,0.1-0.1,0.2-0.1c0.1,0,0.1-0.1,0.2,0c0.1,0,0.1,0.1,0.2,0.2c0,0,0.2,0.1,0.3,0
								c0.1-0.1,0.1-0.2,0.1-0.2c0-0.1-0.1-0.3-0.1-0.3c-0.1-0.1-0.3-0.1-0.4-0.2c0,0-0.2-0.1-0.3-0.2c-0.1-0.1-0.2-0.2-0.2-0.3
								c0-0.1,0-0.1,0-0.2c0,0-0.1,0-0.1,0C30.4,44.9,30.4,45.4,30.5,45.8L30.5,45.8z"/>
						</g>
						<g>
							<path class="st25" d="M54.9,29.9C54.9,29.9,54.9,29.9,54.9,29.9"/>
							<rect x="54.8" y="37.8" class="st26" width="0.3" height="2.3"/>
							<path class="st25" d="M55,33.8c0.2-0.2,0.4-0.3,0.5-0.2c0.1,0,0.1,0.1,0.3,0.2c0.1,0,0.2,0.1,0.3,0c0.1-0.1,0.2-0.2,0.2-0.2
								c0-0.2-0.1-0.3-0.1-0.3C56,33.1,55.8,33,55.6,33c-0.1,0-0.2-0.1-0.4-0.2c-0.1-0.1-0.2-0.2-0.2-0.3c0-0.1,0-0.8,0-0.8
								c0,0-0.1,0-0.1,0C54.9,32.1,54.9,33.3,55,33.8L55,33.8L55,33.8z"/>
							<path class="st25" d="M54.9,33.6V35c0-0.1,0-0.1,0.1-0.1c0.1,0,0.1,0,0.1,0.1c0.2,0.1,0.4,0.2,0.5,0.1c0.1,0,0.1-0.1,0.1-0.1
								c0,0,0.1-0.1,0.2,0c0.1,0,0.1,0.1,0.3,0.2c0.1,0,0.2,0.1,0.3,0c0.1,0,0.1-0.1,0.1-0.1c0.1-0.2-0.1-0.4-0.1-0.4
								c-0.1-0.1-0.2-0.1-0.4-0.2c-0.1-0.1-0.4-0.2-0.6-0.3C55.4,33.9,55.2,33.8,54.9,33.6L54.9,33.6z"/>
							<path class="st25" d="M55,36.8c0.2-0.2,0.4-0.3,0.5-0.2c0.1,0,0.1,0.1,0.3,0.2c0.1,0,0.2,0.1,0.3,0c0.1-0.1,0.2-0.2,0.2-0.2
								c0-0.2-0.1-0.3-0.1-0.3c-0.1-0.1-0.1-0.1-0.5-0.2c-0.2-0.1-0.3-0.1-0.4-0.2c-0.1-0.1-0.2-0.3-0.2-0.4c0-0.2,0-0.3,0-0.3
								c0-0.1,0-0.2,0-0.2c0,0-0.1,0-0.1,0C55,35.4,55,36.3,55,36.8L55,36.8L55,36.8z"/>
							<path class="st25" d="M55.9,30.7L55.9,30.7c0,0.1-0.1,0.1-0.1,0.2c-0.1,0-0.2,0-0.2,0c-0.1-0.1-0.1-0.2-0.2-0.2
								c0,0,0,0-0.1,0c-0.1,0-0.1,0.1-0.1,0.2c0,0-0.1,0-0.1,0l0,0c-0.1,0-0.1,0-0.2,0c-0.1-0.1-0.1-0.1-0.2-0.2c0,0-0.1,0-0.1,0
								c-0.1,0-0.1,0.1-0.2,0.2c0,0-0.1,0.1-0.2,0c0,0-0.1-0.1-0.1-0.2c0-0.1,0.1-0.2,0.1-0.3c0.1-0.1,0.1-0.1,0.3-0.2
								c0.2-0.1,0.3-0.1,0.3-0.2c0.1-0.1,0.2-0.2,0.2-0.2c0,0,0,0,0,0c0,0,0,0,0,0c0,0.1,0.1,0.1,0.2,0.2c0,0,0.1,0.1,0.3,0.2
								c0.2,0.1,0.3,0.1,0.3,0.2C55.8,30.5,55.9,30.6,55.9,30.7z"/>
							<path class="st25" d="M54.9,29.9C54.9,29.9,54.9,29.9,54.9,29.9"/>
							<path class="st25" d="M54.9,33.8c-0.2-0.2-0.4-0.3-0.5-0.2c-0.1,0-0.1,0.1-0.3,0.2c-0.1,0-0.2,0.1-0.3,0
								c-0.1-0.1-0.2-0.2-0.2-0.2c0-0.2,0.1-0.3,0.1-0.3c0.1-0.1,0.3-0.2,0.5-0.2c0.1,0,0.2-0.1,0.4-0.2c0.1-0.1,0.2-0.2,0.2-0.3
								c0-0.1,0-0.8,0-0.8c0,0,0.1,0,0.1,0C54.9,32.1,54.9,33.3,54.9,33.8L54.9,33.8L54.9,33.8z"/>
							<path class="st25" d="M54.9,33.6V35c0-0.1,0-0.1-0.1-0.1c-0.1,0-0.1,0-0.1,0.1c-0.2,0.1-0.4,0.2-0.5,0.1
								c-0.1,0-0.1-0.1-0.1-0.1c0,0-0.1-0.1-0.2,0c-0.1,0-0.1,0.1-0.3,0.2c-0.1,0-0.2,0.1-0.3,0c-0.1,0-0.1-0.1-0.1-0.1
								c-0.1-0.2,0.1-0.4,0.1-0.4c0.1-0.1,0.2-0.1,0.4-0.2c0.1-0.1,0.4-0.2,0.6-0.3C54.5,33.9,54.7,33.8,54.9,33.6L54.9,33.6z"/>
							<path class="st25" d="M54.8,36.8c-0.2-0.2-0.4-0.3-0.5-0.2c-0.1,0-0.1,0.1-0.3,0.2c0,0-0.2,0.1-0.3,0
								c-0.1-0.1-0.2-0.2-0.2-0.2c0-0.2,0.1-0.3,0.1-0.3c0.1-0.1,0.1-0.1,0.5-0.2c0.2-0.1,0.3-0.1,0.4-0.2c0,0,0.1-0.1,0.2-0.3
								c0-0.1,0-0.2,0-0.4c0-0.1,0-0.2,0-0.2c0,0,0.1,0,0.1,0C54.9,35.4,54.9,36.3,54.8,36.8L54.8,36.8L54.8,36.8z"/>
							<rect x="54.8" y="30.5" class="st25" width="0.2" height="7.5"/>
							<path class="st25" d="M54.8,32c0,0-0.1-0.1-0.2-0.1c-0.1,0-0.1-0.1-0.2-0.1c-0.1,0-0.1,0.2-0.2,0.2c-0.1,0-0.2,0-0.3,0
								c0,0-0.1-0.1-0.1-0.2c0-0.1,0.1-0.3,0.1-0.3c0.1-0.1,0.3-0.1,0.4-0.2c0,0,0.2-0.1,0.3-0.2c0.1-0.1,0.2-0.2,0.2-0.3
								c0-0.1,0-0.1,0-0.2c0,0,0.1,0,0.1,0C54.9,31.1,54.9,31.6,54.8,32L54.8,32z"/>
							<path class="st25" d="M55,32c0,0,0.1-0.1,0.2-0.1c0.1,0,0.1-0.1,0.2,0c0.1,0,0.1,0.1,0.2,0.2c0,0,0.2,0.1,0.3,0
								c0.1-0.1,0.1-0.2,0.1-0.2c0-0.1-0.1-0.3-0.1-0.3c-0.1-0.1-0.3-0.1-0.4-0.2c0,0-0.2-0.1-0.3-0.2c-0.1-0.1-0.2-0.2-0.2-0.3
								c0-0.1,0-0.1,0-0.2c0,0-0.1,0-0.1,0C55,31.1,55,31.6,55,32L55,32z"/>
							<path class="st25" d="M54.8,37.9c0,0-0.1-0.1-0.2-0.1c-0.1,0-0.1-0.1-0.2-0.1c-0.1,0-0.1,0.2-0.2,0.2c-0.1,0-0.2,0-0.3,0
								c0,0-0.1-0.1-0.1-0.2c0-0.1,0.1-0.3,0.1-0.3c0.1-0.1,0.3-0.1,0.4-0.2c0,0,0.2-0.1,0.3-0.2c0.1-0.1,0.2-0.2,0.2-0.3
								c0-0.1,0-0.1,0-0.2c0,0,0.1,0,0.1,0C54.9,37,54.9,37.5,54.8,37.9L54.8,37.9z"/>
							<path class="st25" d="M55,37.9c0,0,0.1-0.1,0.2-0.1c0.1,0,0.1-0.1,0.2,0c0.1,0,0.1,0.1,0.2,0.2c0,0,0.2,0.1,0.3,0
								c0.1-0.1,0.1-0.2,0.1-0.2c0-0.1-0.1-0.3-0.1-0.3c-0.1-0.1-0.3-0.1-0.4-0.2c0,0-0.2-0.1-0.3-0.2c-0.1-0.1-0.2-0.2-0.2-0.3
								c0-0.1,0-0.1,0-0.2c0,0-0.1,0-0.1,0C55,37,55,37.5,55,37.9L55,37.9z"/>
						</g>
					</g>
					<g>
						<path class="st29" d="M30.4,36.9C30.4,36.9,30.4,36.9,30.4,36.9l-6-0.6c-0.1,0-0.2-0.1-0.2-0.2c-0.2-1.2-0.3-2.5-0.2-3.7
							c0-0.2,0.3-0.3,0.4-0.1c0.4,1,0.9,2.1,1.3,3.1c0.1,0.2,0.4,0.2,0.4,0c0-0.1,0-0.1,0.1-0.1c0.2-0.2,0.6,0.1,0.6,0.4
							c0,0.1,0.1,0.2,0.1,0.3c0.1,0.2,0.4,0.2,0.4,0l0.2-0.9c0.1-0.2,0.4-0.2,0.4,0l0.3,0.7c0.1,0.2,0.4,0.2,0.4-0.1l0.1-2
							c0-0.3,0.4-0.3,0.4-0.1c0.3,0.9,0.7,1.7,1.1,2.6c0.1,0.2,0.4,0.1,0.4-0.1"/>
					</g>
				</g>
				<g>
					<g class="st41">
						<g>
							<path class="st32" d="M58.4,33c-4.8-0.6-9.7-0.7-14.6-0.3c-0.6,0.1-1.3,0.1-1.9-0.1c-0.6-0.2-1.2-0.7-1.2-1.3
								c0-0.3,0.1-0.7,0.4-0.8c0.2-0.1,0.5,0,0.7,0.1c0.5,0.2,0.9,0.5,1.3,0.6s1,0.1,1.4-0.3c0.2-0.3,0.2-0.6,0.3-1
								c0.3-1.4,1.4-2.5,2.8-2.9c1.4-0.4,2.9,0.1,3.8,1.2c0.9,1.1,1.4,2.8,2.8,3.1c0.7,0.2,1.5-0.1,2.2-0.3c0.7-0.2,1.5-0.3,2.1,0.1
								s0.7,1.6,0,1.8"/>
						</g>
						<g>
							<path class="st32" d="M32.9,40.7c-4.8-0.5-9.7-0.5-14.6,0c-0.6,0.1-1.3,0.1-1.9,0c-0.6-0.2-1.2-0.7-1.3-1.3
								c0-0.3,0.1-0.7,0.4-0.8c0.2-0.1,0.5-0.1,0.7,0c0.5,0.2,0.9,0.5,1.3,0.6c0.5,0.1,1,0.1,1.3-0.3c0.2-0.3,0.2-0.6,0.3-1
								c0.3-1.4,1.3-2.6,2.7-2.9s2.9,0,3.8,1.1c1,1,1.5,2.7,2.9,3c0.7,0.2,1.5-0.1,2.2-0.3s1.5-0.4,2.1,0c0.6,0.4,0.7,1.5,0,1.8"/>
						</g>
						<g>
							<path class="st32" d="M45.9,43.9c4.8-0.8,9.7-1.1,14.5-1c0.6,0,1.3,0,1.9-0.2c0.6-0.2,1.2-0.7,1.2-1.4c0-0.3-0.1-0.7-0.4-0.8
								c-0.2-0.1-0.5,0-0.7,0.1c-0.4,0.2-0.8,0.5-1.3,0.7c-0.5,0.2-1,0.2-1.4-0.2c-0.2-0.3-0.3-0.6-0.4-0.9
								c-0.4-1.4-1.5-2.5-2.9-2.8c-1.4-0.3-2.9,0.2-3.8,1.3c-0.9,1.1-1.3,2.8-2.7,3.2c-0.7,0.2-1.5,0-2.2-0.2
								c-0.7-0.2-1.5-0.2-2.1,0.2s-0.6,1.6,0.1,1.8"/>
						</g>
					</g>
					<g>
						<g class="st41">
							<path class="st42" d="M3.1,20.3c2.4-0.1,8.2,0.1,22.4,0.9c0-2.1-2.1-3.7-4.2-3.9c-2.1-0.2-4.1,0.6-6,1.4
								c-0.5,0.2-0.9,0.3-1.4,0.3c-0.5-0.1-1-0.4-1.4-0.8c-1.4-1.2-2.7-2.6-3.8-4.2c-0.3-0.5-0.7-1-1.2-1.2
								c-1.1-0.5-2.4,0.5-2.8,1.6c-0.4,1.1-0.3,2.4-0.5,3.6c0,0.2-0.1,0.5-0.3,0.7c-0.2,0.2-0.5,0.2-0.8,0.2c-0.7,0.1-1.2,0.3-2,0.6
								c-0.5,0.2-0.9,0.4-0.9,0.5C0.4,20.4,2.7,20.3,3.1,20.3z"/>
						</g>
						<g class="st41">
							<path class="st42" d="M68.9,18.5c0.6-1,0.3-2.3-0.5-3.1s-2.2-0.9-3.1-0.2c-1.1,0.8-1.9,2.5-3.2,2.3c-0.5-0.1-0.9-0.4-1.2-0.8
								c-2.4-2.2-4.9-4.6-7.9-5.9c-1.3-0.6-2.9-1-4.1-0.1c-0.8,0.6-1.2,1.7-1.2,2.7c0,1,0.4,2,0.9,3c-2.1,0.4-4.3,0.5-6.4,0.3
								c-0.7-0.1-1.7,0.1-1.6,0.8c0,0.4,0.8,0.8,1.1,0.9C43.9,19.4,60.4,18.8,68.9,18.5z"/>
						</g>
					</g>
				</g>
				<g>
					<g class="st31">
						<path class="st32" d="M24,50.5c2.1-0.2,4.2,0,6.3,0.5c2.7,0.7,5.4,2.1,8.2,2c1.3-0.1,2.5-0.5,3.8-0.7c3.3-0.7,6.8-0.7,10-1.7
							l2.3,0.6l-11.8,3.3l-12.1,0.8L24,50.5z"/>
					</g>
					<g>
						<g>
							<path class="st34" d="M19.2,56.7c-0.1,0.1-0.2,0.1-0.3,0.1c-0.3,0-1.4,0-3.1,0c-0.6,0-1.4,0-2.1,0c-0.2,0-0.3-0.2-0.2-0.4
								c0.3-0.5,0.9-0.8,1.5-0.9c0.1,0,0.3,0,0.4-0.1c0.1-0.1,0.2-0.1,0.3-0.2c0.2-0.2,0.5-0.4,0.8-0.5c0.2-0.1,0.5-0.1,0.7-0.2
								c0.2,0,0.4,0,0.6,0.1c0.4,0.2,0.6,0.5,0.9,0.8c0.2,0.2,0.3,0.4,0.5,0.6C19.2,56.3,19.4,56.6,19.2,56.7z"/>
						</g>
						<g>
							<path class="st11" d="M17.1,54.6c-0.5,0.7-0.9,1.4-1.3,2.2c-0.6,0-1.4,0-2.1,0c-0.2,0-0.3-0.2-0.2-0.4
								c0.3-0.5,0.9-0.8,1.5-0.9c0.1,0,0.3,0,0.4-0.1c0.1-0.1,0.2-0.1,0.3-0.2c0.2-0.2,0.5-0.4,0.8-0.5
								C16.7,54.7,16.9,54.6,17.1,54.6z"/>
						</g>
					</g>
					<g>
						<g>
							<path class="st34" d="M58.2,50.3c-0.1,0.1-0.2,0.1-0.3,0.1c-0.3,0-1.2,0-2.7,0c-0.6,0-1.2,0-1.9,0c-0.2,0-0.3-0.2-0.2-0.3
								c0.3-0.4,0.8-0.7,1.3-0.8c0.1,0,0.2,0,0.4-0.1c0.1,0,0.2-0.1,0.3-0.2c0.2-0.2,0.4-0.3,0.7-0.4c0.2-0.1,0.4-0.1,0.6-0.1
								c0.2,0,0.3,0,0.5,0.1c0.3,0.1,0.6,0.4,0.8,0.7c0.1,0.2,0.3,0.4,0.4,0.5C58.3,49.9,58.4,50.2,58.2,50.3z"/>
						</g>
						<g>
							<path class="st11" d="M56.4,48.4c-0.4,0.6-0.8,1.2-1.2,1.9c-0.6,0-1.2,0-1.9,0c-0.2,0-0.3-0.2-0.2-0.3
								c0.3-0.4,0.8-0.7,1.3-0.8c0.1,0,0.2,0,0.4-0.1c0.1,0,0.2-0.1,0.3-0.2c0.2-0.2,0.4-0.3,0.7-0.4C56.1,48.5,56.2,48.4,56.4,48.4
								z"/>
						</g>
					</g>
					<path class="st34" d="M37.3,53.1H35v0c0-0.6,0.5-1.2,1.2-1.2l0,0C36.8,51.9,37.3,52.5,37.3,53.1L37.3,53.1z"/>
					<g>
						<g>
							<path class="st11" d="M36.9,53.2c0.1,0.1,0.2,0.1,0.2,0.1c0.2,0,0.9,0,1.9,0c0.4,0,0.8,0,1.3,0c0.1,0,0.2-0.1,0.1-0.2
								c-0.2-0.3-0.5-0.5-0.9-0.6c-0.1,0-0.2,0-0.3-0.1c-0.1,0-0.1-0.1-0.2-0.1c-0.1-0.1-0.3-0.2-0.5-0.3c-0.1-0.1-0.3-0.1-0.4-0.1
								c-0.1,0-0.2,0-0.3,0.1c-0.2,0.1-0.4,0.3-0.6,0.5c-0.1,0.1-0.2,0.3-0.3,0.4C36.9,53,36.8,53.1,36.9,53.2z"/>
						</g>
						<g>
							<path class="st34" d="M38.2,51.9c0.3,0.4,0.6,0.9,0.8,1.4c0.4,0,0.8,0,1.3,0c0.1,0,0.2-0.1,0.1-0.2c-0.2-0.3-0.5-0.5-0.9-0.6
								c-0.1,0-0.2,0-0.3-0.1c-0.1,0-0.1-0.1-0.2-0.1c-0.1-0.1-0.3-0.2-0.5-0.3C38.5,51.9,38.4,51.9,38.2,51.9z"/>
						</g>
					</g>
					<g>
						<path class="st11" d="M26.4,49.9L26.4,49.9l-3.3,0v0c0-0.9,0.7-1.7,1.7-1.7c0.1,0,0.2,0,0.3,0c0.4,0.1,0.7,0.2,0.9,0.5
							C26.2,49,26.4,49.5,26.4,49.9z"/>
					</g>
				</g>
				<g>
					<polygon class="st43" points="44,2.4 14.8,46.8 19.7,47.7 40.6,15.6 41,15 41,15 48.9,2.4 					"/>
					<polygon class="st44" points="59.5,2.4 29.1,51.6 24.2,50.7 54.7,2.4 					"/>
					<polygon class="st45" points="32.7,52.3 64.5,2.2 67.9,2.2 36.3,53.2 					"/>
					<polygon class="st46" points="26,2.4 -2.5,47.4 -7.3,46.5 21.3,2.4 					"/>
					<polygon class="st46" points="99.8,2.6 71.3,47.6 66.5,46.7 95.1,2.6 					"/>
				</g>
			</g>
		</g>
		<g>
			<g class="st47">
				<path class="st48" d="M34.6,63.1c0,0.1,0.1,0.2,0.2,0.3c0,0.1,0.1,0.1,0.2,0.1c0.2,0.1,0.4-0.1,0.4-0.1c0,0-0.3-0.3-0.3-0.6
					c0-0.3,0.3-0.5,0.4-0.6c0.4-0.3,0.9-0.3,1.5-0.3c0.9,0,1.5,0,1.8,0c0.2,0,1.2,0,2.1,0c0,0,0.8,0,1.7,0.3c0.1,0,0.3,0.1,0.5,0.3
					c0.3,0.3,0.2,0.7,0.2,0.8c0.1,0,0.2,0.1,0.4,0.1c0.1,0,0.1,0,0.2,0c0.2-0.1,0.3-0.5,0.3-0.6c0-0.2,0-0.4,0-0.7
					c0-0.2-0.1-0.6-0.4-0.9c0,0-0.1-0.2-0.3-0.3c-0.6-0.6-2.9-0.3-4.6-0.3c0,0-3.1,0-3.8,0.5c-0.2,0.1-0.3,0.3-0.3,0.3
					c-0.2,0.2-0.2,0.4-0.3,0.4c-0.1,0.3-0.1,0.6-0.1,0.8C34.5,62.8,34.6,63,34.6,63.1z"/>
				<path class="st49" d="M43.1,62.5c-0.1-0.1-0.2-0.2-0.5-0.4c-0.5-0.2-1.7-0.3-1.7-0.3l0,0c-1,0-1.9,0-2.1,0c-0.3,0-1,0-1.8,0
					c-0.6,0-1.1,0-1.5,0.3c-0.1,0.1-0.4,0.3-0.4,0.6c0,0.2,0.1,0.4,0.2,0.5c0,0,0.1,0,0.1,0c0-0.1,0-0.1,0.1-0.2
					c0-0.1,0.1-0.3,0.3-0.5c0.2-0.2,0.5-0.3,0.7-0.3c1.2-0.2,1.9-0.2,1.9-0.2c0.9,0,1.9,0,3.9,0c0.1,0,0.4,0,0.7,0.2
					c0.2,0.1,0.3,0.3,0.3,0.3c0.1,0.2,0.2,0.4,0.2,0.5C43.3,63.1,43.3,62.8,43.1,62.5z"/>
			</g>
			<g>
				<path class="st48" d="M34.6,58.7c0-0.1,0.1-0.2,0.2-0.3c0-0.1,0.1-0.1,0.2-0.1c0.2-0.1,0.4,0.1,0.4,0.1c0,0-0.3,0.3-0.3,0.6
					c0,0.3,0.3,0.5,0.4,0.6c0.4,0.3,0.9,0.3,1.5,0.3c0.9,0,1.5,0,1.8,0c0.2,0,1.2,0,2.1,0c0,0,0.8,0,1.7-0.3c0.1,0,0.3-0.1,0.5-0.3
					c0.3-0.3,0.2-0.7,0.2-0.8c0.1,0,0.2-0.1,0.4-0.1c0.1,0,0.1,0,0.2,0c0.2,0.1,0.3,0.5,0.3,0.6c0,0.2,0,0.4,0,0.7
					c0,0.2-0.1,0.6-0.4,0.9c0,0-0.1,0.2-0.3,0.3c-0.6,0.6-2.9,0.3-4.6,0.3c0,0-3.1,0-3.8-0.5c-0.2-0.1-0.3-0.3-0.3-0.3
					c-0.2-0.2-0.2-0.4-0.3-0.4c-0.1-0.3-0.1-0.6-0.1-0.8C34.5,58.9,34.6,58.8,34.6,58.7z"/>
				<path class="st49" d="M43.1,59.2c-0.1,0.1-0.2,0.2-0.5,0.4c-0.5,0.2-1.7,0.3-1.7,0.3l0,0c-1,0-1.9,0-2.1,0c-0.3,0-1,0-1.8,0
					c-0.6,0-1.1,0-1.5-0.3c-0.1-0.1-0.4-0.3-0.4-0.6c0-0.2,0.1-0.4,0.2-0.5c0,0,0.1,0,0.1,0c0,0.1,0,0.1,0.1,0.2
					c0,0.1,0.1,0.3,0.3,0.5c0.2,0.2,0.5,0.3,0.7,0.3c1.2,0.2,1.9,0.2,1.9,0.2c0.9,0,1.9,0,3.9,0c0.1,0,0.4,0,0.7-0.2
					c0.2-0.1,0.3-0.3,0.3-0.3c0.1-0.2,0.2-0.4,0.2-0.5C43.3,58.7,43.3,59,43.1,59.2z"/>
			</g>
		</g>
	</g>
</g>
</svg>
