<?xml version="1.0" encoding="utf-8"?>
<!-- Generator: Adobe Illustrator 24.2.0, SVG Export Plug-In . SVG Version: 6.00 Build 0)  -->
<svg version="1.1" id="Layer_1" xmlns="http://www.w3.org/2000/svg" xmlns:xlink="http://www.w3.org/1999/xlink" x="0px" y="0px"
	 viewBox="0 0 80 80" style="enable-background:new 0 0 80 80;" xml:space="preserve">
<style type="text/css">
	.st0{fill:url(#SVGID_1_);}
	.st1{fill:#E6E7E8;}
	.st2{fill:#152B52;}
	.st3{enable-background:new    ;}
</style>
<defs>
    <filter id="f3" x="-0.1" y="-0.1" width="200%" height="200%">
	  	<feDropShadow dx="-0.5" dy="0.5" stdDeviation="0.5" flood-color="#333" flood-opacity="0.9" />
    </filter>
</defs>
<linearGradient id="SVGID_1_" gradientUnits="userSpaceOnUse" x1="74.864" y1="5.136" x2="5.136" y2="74.864">
	<stop  offset="0" style="stop-color:#DBDBDB"/>
	<stop  offset="1" style="stop-color:#88B4C6"/>
</linearGradient>
<path class="st0" d="M68.5,77.5h-57c-5,0-9-4-9-9v-57c0-5,4-9,9-9h57c5,0,9,4,9,9v57C77.5,73.5,73.5,77.5,68.5,77.5z" filter = "url(#f3)"/>

		<path class="st1" d="M71.5,26.7c-0.2-2.6-0.4-3.8-0.7-4.2c-0.3-0.4-0.4-0.6-1-0.7c-0.4-0.1-1-0.1-1.8,0.2l-3.8,1.3
			c-1.9,0.6-3.3,0.8-4.2,0.7c-1.3-0.1-1.7-0.2-3.3-1.2c-1.6-1.1-5.5-4.4-5.9-4.6c-0.4-0.3-1.1-0.5-2-0.5c-0.9,0-1.5,0.2-1.9,0.6
			l-0.1,21.9c0.2-0.8,0.5-1.2,0.7-1.5c0.4-0.3,2.2-0.3,2.5-0.2c0.3,0.1,0.6,0.5,0.8,0.9c0.2,0.4,1.3,5.1,2,8.4
			c0.7,3.3,0.6,4.4,0.5,6.7c-0.1,2.3-0.5,4.8-0.6,5.7c0,0.9,0,1.3,0.6,1.8c0.6,0.5,2.1-1.1,3.9-3.1c1.8-2,2.3-2.6,4.9-6.4
			c2.6-3.8,6.8-13.5,7.8-16.6C71,33,71.7,29.3,71.5,26.7z M53.3,34.9c0,0,1.2-8.4,10.6-5.8C63.9,29.1,63.1,39.9,53.3,34.9z"/>
		<path class="st2" d="M49.4,38.5c-1.3-0.8-0.9-2.8-0.9-2.8c0.3,0.9,1,0.8,1,0.8c-0.9-0.2-0.6-3.5,2.8-1.4c3.4,2.1,6.1,1.7,6.1,1.7
			c-0.3,0.7,0,2.4,0.3,1.2c0.3-1.2,1.9-2.1,1.9-2.1s0.7,0.4,1.9-0.6c1.2-1,1.1-2.6,1.1-2.6c1.3-0.4,0.6-3.1,0.9-2.9s0.4,0.9,0.4,1.3
			c0,0.3,0.5-0.1,0.7-1.2c0.1-1.1-0.4-1.7-0.4-1.7c0.3-0.4,0.2-1.1,0.1-1.6C65.2,26,65,26,65,26.5c0,0.5-0.6,0.9-1.8,0.7
			c-1.2-0.2-1.3,0.6-1.3,0.6c-3.3-0.9-5.9,0.8-7.6,2.6c-1.7,1.8-2.8,0.1-2.8,0.1c0.8-0.6,1-2.3,1-2.3c-1.6,2.7-4.7,0.6-4.7,0.6
			c3.5-0.6,4-5.3,4-5.3c-1.9,2.7-3.4,0.4-3.4,0.4c0.2,0.4,2.1,1.3,2.6-2.1c0.3-2.5-0.6-3.6-1.2-4c-1-0.3-2.1,0-2.1,0
			c-1.5,0.3-4.4,4-7.8,5.6C34.8,25.7,28,19,26.9,23c-1.1,4-0.5,6.7,0.2,10c0.7,3.3,0.6,3.2,5.9,6.2c5.4,3,9.8,3.9,12.2,4.2
			c0,0,1,0.3,1.3-1.9c0.2-1.5,0.4-1.9,0.4-1.9s0.2-0.9,1-1 M34,29.1c9.4-2.6,10.6,5.8,10.6,5.8C34.8,39.9,34,29.1,34,29.1z
			 M53.3,34.9c0,0,1.2-8.4,10.6-5.8C63.9,29.1,63.1,39.9,53.3,34.9z"/>

	<path class="st2" d="M53,48.8c0.4,2.5,0.4,4.9,0.1,8.5c-1.2,6.7,0.7,6,4.9,0.9c7.6-8.8,11.6-20.8,12.3-23c0.2-0.7,0.4-1.2,0.6-2.2
		c0.2-0.9,0.4-1.9,0.5-2.7c-0.5,2.2-1.5,5.6-2.9,6.5c-1.4,0.9-1.8,2.6-2.3,5c-0.5,2.4-1.2,3.6-1.2,2.7c0-0.9-1.3-5.7-1-0.9
		c0.4,4.8-2.5,3.2-2.7,4.8c-0.2,1.6,0.5,2.8,0.5,2.8c-1.3,1.6-2.6,0.7-3.4,1.2c-0.8,0.4-1,2.2-1,2.2s-1.2,0.8-2-1
		c-0.7-1.9,1.2-2.7-0.1-2.5c-1.3,0.3-1.5,2-1.5,2"/>

<g class="st3">
	<path class="st2" d="M8.4,62.1V44h2.6v8.3h0.1l3.8-8.3h2.6L14,51.2l4.2,10.9h-2.8l-3-8.1l-1.4,2.6v5.4H8.4z"/>
	<path class="st2" d="M19,44h2.6v14.5c0,0.5,0.1,0.8,0.3,1c0.2,0.2,0.5,0.3,1,0.3v2.4c-0.6,0-1.1,0-1.6-0.1
		c-0.5-0.1-0.9-0.3-1.2-0.5c-0.3-0.3-0.6-0.6-0.8-1.1c-0.2-0.5-0.3-1.1-0.3-1.8V44z"/>
	<path class="st2" d="M23.7,53.5c0-0.5,0-1,0.1-1.5c0.1-0.4,0.2-0.8,0.4-1.2c0.3-0.6,0.7-1,1.3-1.4c0.6-0.3,1.3-0.5,2.1-0.5
		s1.5,0.2,2.1,0.5c0.6,0.3,1,0.8,1.3,1.4c0.2,0.3,0.3,0.7,0.4,1.2c0.1,0.4,0.1,0.9,0.1,1.5v4.3c0,0.5,0,1-0.1,1.5
		c-0.1,0.4-0.2,0.8-0.4,1.2c-0.3,0.6-0.7,1-1.3,1.4c-0.6,0.3-1.3,0.5-2.1,0.5s-1.5-0.2-2.1-0.5c-0.6-0.3-1-0.8-1.3-1.4
		c-0.2-0.3-0.3-0.7-0.4-1.2c-0.1-0.4-0.1-0.9-0.1-1.5V53.5z M26.3,58.2c0,0.5,0.1,0.9,0.3,1.1c0.2,0.2,0.5,0.4,0.9,0.4
		c0.4,0,0.7-0.1,0.9-0.4c0.2-0.2,0.3-0.6,0.3-1.1v-5.1c0-0.5-0.1-0.9-0.3-1.1c-0.2-0.2-0.5-0.4-0.9-0.4c-0.4,0-0.7,0.1-0.9,0.4
		c-0.2,0.2-0.3,0.6-0.3,1.1V58.2z"/>
	<path class="st2" d="M38.3,62.1v-1.3h-0.1c-0.3,0.5-0.7,0.8-1,1.1c-0.3,0.3-0.8,0.4-1.5,0.4c-0.3,0-0.6,0-0.9-0.1
		c-0.3-0.1-0.6-0.3-0.9-0.5c-0.3-0.2-0.5-0.6-0.7-1c-0.2-0.5-0.3-1-0.3-1.7c0-0.7,0.1-1.4,0.2-1.9c0.1-0.6,0.3-1,0.7-1.4
		c0.3-0.4,0.7-0.6,1.3-0.8c0.5-0.2,1.2-0.3,2-0.3c0.1,0,0.2,0,0.3,0c0.1,0,0.2,0,0.3,0c0.1,0,0.2,0,0.3,0c0.1,0,0.2,0,0.4,0v-1.4
		c0-0.4-0.1-0.8-0.3-1.1c-0.2-0.3-0.5-0.4-1-0.4c-0.3,0-0.7,0.1-0.9,0.3c-0.3,0.2-0.5,0.5-0.5,1H33c0.1-1.2,0.5-2.1,1.2-2.8
		c0.3-0.3,0.7-0.6,1.2-0.8c0.5-0.2,1-0.3,1.6-0.3c0.5,0,1.1,0.1,1.5,0.3c0.5,0.2,0.9,0.4,1.3,0.8c0.3,0.3,0.6,0.8,0.8,1.3
		s0.3,1.1,0.3,1.8v9H38.3z M38.3,56.6c-0.3-0.1-0.5-0.1-0.7-0.1c-0.6,0-1,0.1-1.4,0.4c-0.4,0.3-0.6,0.7-0.6,1.4
		c0,0.5,0.1,0.9,0.4,1.2c0.2,0.3,0.6,0.5,1,0.5c0.4,0,0.8-0.1,1-0.4c0.2-0.3,0.4-0.7,0.4-1.2V56.6z"/>
	<path class="st2" d="M42.8,62.1V44h2.6v10.9h0.1l3.1-5.6h2.6l-3.1,5.3l3.7,7.7H49l-2.3-5.6l-1.3,2v3.6H42.8z"/>
</g>
</svg>
