<svg version="1.1" id="Layer_1" xmlns="http://www.w3.org/2000/svg" xmlns:xlink="http://www.w3.org/1999/xlink" x="0px" y="0px"
	 viewBox="0 0 80 80" style="enable-background:new 0 0 80 80;" xml:space="preserve">
<style type="text/css">
	.st0{fill:url(#SVGID_1_);}
	.st1{fill:#FFFFFF;}
</style>
<defs>
    <filter id="f3" x="-0.1" y="-0.1" width="200%" height="200%">
	  	<feDropShadow dx="-0.5" dy="0.5" stdDeviation="0.5" flood-color="#000" flood-opacity="1" />
    </filter>
</defs>
<g>
<linearGradient id="SVGID_1_" gradientUnits="userSpaceOnUse" x1="74.864" y1="5.7803" x2="5.136" y2="75.5082">
	<stop  offset="0" style="stop-color:#ED9798"/>
	<stop  offset="1" style="stop-color:#EB5556"/>
</linearGradient>
	<path class="st0" d="M68.5,78.1h-57c-5,0-9-4-9-9v-57c0-5,4-9,9-9h57c5,0,9,4,9,9v57C77.5,74.1,73.5,78.1,68.5,78.1z" filter="url(#f3)" />
	<path class="st1" d="M72.3,42.4c-1.6-1.5-3.8-2.1-5.9-1.7c2.3-1.5,4.8-3.1,6-5.6c1.6-3.2,0.7-7-0.1-10.5c-1.2,3.3-3.8,6-7,7.4
		c3.2-5.4,2.9-12.7-0.8-17.8c0.1,3.6-1.4,7.2-4,9.7c0,0-0.1,0.1-0.1,0.1c-2.4,2.2-6.6,2.4-9.8,2c-5.9-0.7-10.7-1.8-16.6,5.8
		c-5.9-7.6-10.7-6.4-16.6-5.8c-5.9,0.7-10-1.8-10-1.8c-3.1,7.6-2.6,14.5,3.3,19.4c4,3.3,9.3,2.7,13.9,1c2.9-1.1,5.4-3.3,8.5-3.9
		c6.5-1.3,10.7,5.7,16.5,7c0.6,0.1,1.2,0.2,1.7,0.5c0.4,0.2,0.8,0.5,1.1,0.8c4.7,4.4,9.6,11.1,7.1,17.8c2.4-0.6,4.3-2.6,5.3-4.9
		c1-2.3,1.1-4.9,0.9-7.4c-0.2-1.7-0.6-3.4-1.5-4.8c-0.9-1.4-2.2-2.4-3.7-3.3c0.5-0.2,1-0.4,1.5-0.6c1.8-0.8,3.7-1.7,5.7-1.9
		c2.8-0.2,5.7,1.5,6.9,4.1C74.7,46.1,73.9,43.9,72.3,42.4z M21.5,39c-4.5,0-8.4-5.8-8.4-5.8c2.1,1.7,4.7,0.3,8.4,0
		c3.7-0.3,7.3,3.2,7.3,3.2S26,39,21.5,39z M46.3,33.2c3.7,0.3,6.3,1.7,8.4,0c0,0-3.9,5.8-8.4,5.8S39,36.4,39,36.4S42.7,33,46.3,33.2
		z"/>
</g>
</svg>
