<svg version="1.1" id="Layer_1" xmlns="http://www.w3.org/2000/svg" xmlns:xlink="http://www.w3.org/1999/xlink" x="0px" y="0px"
	 viewBox="0 0 80 80" style="enable-background:new 0 0 80 80;" xml:space="preserve">
<style type="text/css">
	.st0{fill:url(#SVGID_1_);}
	.st1{fill-rule:evenodd;clip-rule:evenodd;fill:#FFFFFF;}
	.st2{fill:#F05E5D;}
</style>
<defs>
    <filter id="f3" x="-0.1" y="-0.1" width="200%" height="200%">
	  	<feDropShadow dx="-0.5" dy="0.5" stdDeviation="0.5" flood-color="#000" flood-opacity="1" />
    </filter>
</defs>
<linearGradient id="SVGID_1_" gradientUnits="userSpaceOnUse" x1="-1.5114" y1="63.9666" x2="81.5114" y2="16.0334">
	<stop  offset="0" style="stop-color:#4d4c71"/>
	<stop  offset="1" style="stop-color:#9695b2"/>
</linearGradient>
<path class="st0" d="M68.5,77.5h-57c-5,0-9-4-9-9v-57c0-5,4-9,9-9h57c5,0,9,4,9,9v57C77.5,73.5,73.5,77.5,68.5,77.5z" filter="url(#f3)"/>
<g>
	<path class="st1" d="M20.4,14.6h27.8c3.6,0,6.6,3,6.6,6.6v11.3H38.1c-3.9,0-7.2,3.2-7.2,7.2v2.8h-3.3l-3.8,10.2l-3.8-10.2
		c-3.5-0.1-6.3-3-6.3-6.6V21.1C13.8,17.5,16.8,14.6,20.4,14.6z"/>
	<path class="st1" d="M38.1,34.2h22.7c3,0,5.4,2.4,5.4,5.4v12.1c0,3-2.4,5.4-5.4,5.4H44.1L41,65.4L37.9,57c-2.9-0.1-5.2-2.5-5.2-5.4
		V39.6C32.7,36.6,35.1,34.2,38.1,34.2L38.1,34.2z"/>
	<path class="st2" d="M53.8,43.2v-1.6c0-2.4-2-4.4-4.4-4.4c-2.4,0-4.4,2-4.4,4.4v1.6c-1.2,0.1-2.1,1.1-2.1,2.3v5.6
		c0,1.3,1,2.3,2.3,2.3h8.4c1.3,0,2.3-1,2.3-2.3v-5.6C56,44.3,55,43.3,53.8,43.2z M50.4,50.3c0,0.2-0.1,0.3-0.3,0.3h-1.6
		c-0.2,0-0.3-0.2-0.3-0.3l0.5-2c-0.4-0.2-0.7-0.6-0.7-1.1c0-0.7,0.6-1.2,1.2-1.2s1.2,0.6,1.2,1.2c0,0.5-0.3,0.9-0.7,1.1L50.4,50.3z
		 M51.6,43.1h-4.3v-1.6c0-1.2,1-2.2,2.2-2.2c1.2,0,2.2,1,2.2,2.2V43.1z"/>
	<path class="st2" d="M41.5,27.5c0-1.2-0.9-2.2-2.1-2.3v-1.6c0-2.4-2-4.4-4.4-4.4s-4.4,2-4.4,4.4v1.6c-1.2,0.1-2.1,1.1-2.1,2.3v5.6
		c0,1.3,1,2.3,2.3,2.3h1.5c1.3-1.8,3.4-3,5.8-3h3.4V27.5z M36,32.3c0,0.2-0.1,0.3-0.3,0.3h-1.6c-0.2,0-0.3-0.2-0.3-0.3l0.5-2
		c-0.4-0.2-0.7-0.6-0.7-1.1c0-0.7,0.6-1.2,1.2-1.2c0.7,0,1.2,0.6,1.2,1.2c0,0.5-0.3,0.9-0.7,1.1L36,32.3z M37.1,25.1h-4.3v-1.6
		c0-1.2,1-2.2,2.2-2.2c1.2,0,2.2,1,2.2,2.2V25.1z"/>
</g>
</svg>
