<?xml version="1.0" encoding="UTF-8" standalone="no"?><!-- Generator: Gravit.io --><svg xmlns="http://www.w3.org/2000/svg" xmlns:xlink="http://www.w3.org/1999/xlink" style="isolation:isolate" viewBox="0 0 566.93 425.2" width="566.93pt" height="425.2pt"><defs><clipPath id="_clipPath_YDDflZ6HjtBkA1vawwB5dQe5hxGNgIQh"><rect width="566.93" height="425.2"/></clipPath></defs><g clip-path="url(#_clipPath_YDDflZ6HjtBkA1vawwB5dQe5hxGNgIQh)"><g><path d=" M 96.296 81.202 L 96.52 81.105 C 96.506 81.043 96.48 80.936 96.44 80.786 L 96 81.013 C 96.038 81.152 96.061 81.25 96.073 81.302 L 96.52 81.105 L 96.296 81.202 L 96.519 81.103 C 96.506 81.044 96.48 80.936 96.44 80.786 L 96 81.013 C 96.038 81.152 96.062 81.252 96.072 81.299 L 96.519 81.103 L 96.296 81.202 Z " fill="rgb(53,47,45)"/><path d=" M 96.307 81.25 L 96.531 81.153 L 96.524 81.123 L 96.076 81.316 L 96.083 81.347 L 96.531 81.153 L 96.307 81.25 L 96.531 81.153 L 96.524 81.123 L 96.076 81.316 L 96.083 81.347 L 96.531 81.153 L 96.307 81.25 Z " fill="rgb(53,47,45)"/><path d=" M 96.3 81.219 L 96.525 81.127 L 96.521 81.11 L 96.071 81.295 L 96.075 81.312 L 96.525 81.127 L 96.3 81.219 L 96.525 81.127 L 96.521 81.11 L 96.071 81.295 L 96.075 81.312 L 96.525 81.127 L 96.3 81.219 Z " fill="rgb(53,47,45)"/><path d=" M 96.22 80.899 L 96.386 80.67 L 96.385 80.669 L 96.053 81.128 L 96.054 81.128 L 96.386 80.67 L 96.22 80.899 L 96.386 80.67 L 96.385 80.669 L 96.053 81.128 L 96.054 81.128 L 96.386 80.67 L 96.22 80.899 Z " fill="rgb(53,47,45)"/><path d=" M 105.928 123.994 L 105.702 124.084 L 105.703 124.088 L 105.706 124.103 L 105.714 124.128 L 106.153 123.901 L 106.149 123.884 L 105.702 124.084 L 105.928 123.994 L 105.707 124.105 L 105.711 124.12 L 105.932 124.01 L 106.151 123.893 L 106.148 123.881 L 105.929 123.999 L 106.155 123.91 L 106.154 123.905 L 105.928 123.994 L 105.707 124.105 L 105.928 123.994 Z " fill="rgb(53,47,45)"/><g><path d=" M 344.741 72.036 C 349.554 71.899 353.554 73.149 355.521 74.587 C 357.488 76.024 378.804 94.133 387.741 99.953 C 396.679 105.774 398.554 105.923 405.741 106.619 Q 412.929 107.314 428.741 102.587 L 449.741 95.53 Q 456.261 93.61 459.741 94.566 C 463.221 95.523 463.824 96.246 465.439 98.587 C 467.054 100.927 468.528 107.337 469.509 121.587 C 470.491 135.837 466.366 155.899 460.741 172.587 C 455.116 189.274 432.241 242.712 417.741 263.587 C 403.241 284.462 400.616 287.837 390.741 298.587 C 380.866 309.337 372.617 318.29 369.304 315.626 C 365.991 312.962 365.93 310.824 366.148 305.768 C 366.366 300.712 368.652 287.212 369.197 274.587 C 369.741 261.962 370.555 255.649 366.617 237.587 C 362.679 219.524 356.707 194.086 355.818 191.743 C 354.929 189.399 353.304 187.024 351.654 186.607 C 350.004 186.19 339.929 185.774 337.741 187.587 Q 335.554 189.399 333.741 195.587 L 334.482 75.587 Q 337.304 72.274 344.741 72.036 Z " fill="rgb(219,219,219)"/><clipPath id="_clipPath_8rJLTrQ7awxzTyvGfONG9iI1nLv226tE"><path d=" M 212.654 59.1 L 212.654 335.1 L 478.654 335.1 L 478.654 59.1 L 212.654 59.1 Z " fill="rgb(255,255,255)"/></clipPath><g clip-path="url(#_clipPath_8rJLTrQ7awxzTyvGfONG9iI1nLv226tE)"><path d=" M 466.612 100.933 L 466.83 100.813 C 466.076 98.161 464.848 96.328 463.244 95.185 C 461.639 94.04 459.671 93.573 457.41 93.573 C 454.042 93.575 450.012 94.61 445.536 96.071 C 442.36 97.108 438.958 98.359 435.409 99.609 C 426.861 102.621 417.465 105.626 408.356 105.625 C 403.762 105.625 399.241 104.862 394.937 102.954 C 391.484 101.424 388.14 99.49 384.928 97.339 C 379.334 93.593 374.144 89.191 369.491 85.128 C 365.828 81.93 362.497 78.943 359.558 76.651 C 356.618 74.359 354.073 72.756 351.948 72.346 C 349.394 71.855 347.144 71.692 345.278 71.692 C 341.548 71.692 339.355 72.346 339.342 72.35 L 339.391 72.667 L 339.355 72.347 C 337.239 72.813 334.698 74.443 331.759 76.744 C 322.951 83.651 310.574 96.662 296.371 102.954 C 292.066 104.862 287.546 105.625 282.951 105.625 C 273.842 105.626 264.446 102.621 255.898 99.609 C 247.348 96.599 239.655 93.576 233.898 93.573 C 231.637 93.573 229.668 94.04 228.064 95.185 C 226.459 96.328 225.232 98.161 224.477 100.813 C 221.995 109.52 221.035 117.164 221.035 124.353 L 221.035 124.353 C 221.036 135.138 223.192 144.885 225.576 155.695 C 226.569 160.197 227.259 163.565 228.205 166.365 C 228.915 168.465 229.773 170.241 231.002 171.902 C 234.695 176.88 241.648 180.824 258.163 190.107 C 287.551 206.615 312.007 211.303 325.262 213.341 L 325.288 213.018 L 325.244 213.337 C 325.256 213.34 325.482 213.398 325.856 213.399 C 326.616 213.4 327.994 213.152 329.373 211.675 C 330.753 210.199 332.115 207.508 332.876 202.704 C 333.522 198.624 334.108 196.043 334.53 194.487 C 334.741 193.71 334.911 193.188 335.026 192.865 C 335.084 192.704 335.128 192.591 335.157 192.521 L 335.189 192.447 L 335.195 192.431 L 335.196 192.43 L 335.217 192.388 L 335.226 192.34 L 335.241 192.279 C 335.315 191.956 335.705 190.432 336.588 189.01 C 337.473 187.587 338.827 186.266 340.888 186.263 C 345.451 186.263 345.654 186.263 345.654 186.263 C 345.655 186.263 345.705 186.263 346.326 186.263 C 346.947 186.263 348.139 186.263 350.42 186.263 C 352.618 186.266 354.014 187.768 354.89 189.295 C 355.326 190.058 355.626 190.825 355.815 191.398 C 355.91 191.685 355.977 191.924 356.02 192.089 C 356.042 192.171 356.058 192.236 356.068 192.279 L 356.082 192.34 L 356.091 192.388 L 356.111 192.43 L 356.112 192.431 C 356.153 192.519 357.18 194.799 358.432 202.704 C 358.584 203.659 358.761 204.522 358.954 205.314 L 359.176 205.211 L 359.112 204.899 L 359.109 204.9 L 358.864 204.997 L 358.988 205.451 L 359.207 205.337 L 358.985 205.443 C 359.089 205.857 359.196 206.258 359.31 206.635 L 359.526 206.509 L 359.307 206.623 C 365.069 227.769 369.599 244.488 369.598 265.577 C 369.598 272.833 369.062 280.608 367.854 289.263 C 366.909 296.03 366.442 301.36 366.442 305.424 C 366.443 308.988 366.798 311.582 367.534 313.33 C 367.902 314.202 368.372 314.86 368.935 315.293 C 369.498 315.726 370.149 315.931 370.873 315.931 C 372.06 315.929 373.448 315.388 375.046 314.389 C 379.836 311.388 386.552 304.223 395.09 294.443 C 434.289 249.526 456.925 183.579 462.429 168.141 L 462.218 167.998 L 462.421 168.162 C 463.755 165.018 464.517 161.203 465.733 155.695 C 468.116 144.886 470.272 135.14 470.273 124.355 C 470.273 120.76 470.033 117.051 469.482 113.153 C 468.932 109.255 468.071 105.167 466.83 100.813 L 466.612 100.933 L 466.394 101.052 C 468.856 109.692 469.803 117.246 469.803 124.355 C 469.804 135.016 467.669 144.693 465.284 155.506 C 464.068 161.024 463.306 164.801 462.016 167.833 L 462.012 167.843 L 462.008 167.855 C 456.511 183.284 433.891 249.145 394.791 293.943 C 389.105 300.458 384.227 305.806 380.213 309.518 C 378.206 311.373 376.416 312.819 374.853 313.798 C 373.29 314.776 371.956 315.283 370.873 315.281 C 370.212 315.281 369.646 315.096 369.163 314.725 C 368.44 314.168 367.882 313.178 367.496 311.645 C 367.111 310.115 366.911 308.052 366.911 305.424 C 366.911 301.428 367.372 296.13 368.314 289.387 C 369.528 280.695 370.067 272.877 370.067 265.577 C 370.067 244.35 365.505 227.533 359.746 206.394 L 359.744 206.388 L 359.743 206.383 C 359.634 206.025 359.53 205.636 359.429 205.231 L 359.428 205.227 L 359.393 205.098 L 359.173 205.213 L 359.238 205.524 L 359.241 205.523 L 359.477 205.429 L 359.399 205.107 C 359.211 204.336 359.038 203.497 358.891 202.565 C 357.589 194.357 356.526 192.123 356.502 192.07 L 356.307 192.25 L 356.532 192.16 C 356.526 192.136 356.189 190.523 355.258 188.893 C 354.332 187.263 352.784 185.611 350.42 185.613 C 348.139 185.613 346.947 185.613 346.326 185.613 C 345.705 185.613 345.655 185.613 345.654 185.613 C 345.654 185.613 345.451 185.613 340.888 185.613 C 338.524 185.611 336.976 187.263 336.05 188.893 C 335.119 190.523 334.782 192.136 334.776 192.16 L 335.001 192.25 L 334.806 192.07 C 334.782 192.123 333.719 194.357 332.417 202.565 C 331.671 207.265 330.363 209.794 329.086 211.162 C 327.809 212.529 326.546 212.749 325.856 212.75 C 325.687 212.75 325.553 212.736 325.463 212.723 C 325.417 212.717 325.383 212.71 325.361 212.706 L 325.337 212.701 L 325.332 212.699 L 325.323 212.697 L 325.314 212.695 C 312.077 210.66 287.673 205.982 258.34 189.505 C 243.66 181.263 236.543 177.207 232.649 173.019 C 230.702 170.926 229.554 168.816 228.63 166.09 C 227.708 163.364 227.018 160.014 226.024 155.506 C 223.639 144.692 221.504 135.015 221.504 124.353 C 221.505 117.244 222.451 109.692 224.914 101.052 C 225.636 98.527 226.77 96.842 228.279 95.762 C 229.788 94.684 231.682 94.222 233.898 94.222 C 239.542 94.219 247.23 97.222 255.783 100.238 C 264.338 103.252 273.768 106.274 282.951 106.274 C 287.583 106.274 292.153 105.505 296.514 103.572 C 306.049 99.346 314.741 92.133 322.076 85.76 C 325.743 82.574 329.071 79.597 331.99 77.309 C 334.908 75.02 337.422 73.425 339.428 72.988 L 339.435 72.986 L 339.441 72.984 C 339.441 72.984 339.472 72.975 339.537 72.958 C 339.992 72.837 342.049 72.341 345.278 72.341 C 347.124 72.341 349.352 72.503 351.884 72.989 C 353.894 73.372 356.41 74.938 359.328 77.216 C 368.093 84.048 380.492 97.232 394.794 103.572 C 399.155 105.505 403.724 106.274 408.356 106.274 C 417.539 106.273 426.969 103.252 435.525 100.238 C 444.078 97.222 451.766 94.219 457.41 94.222 C 459.625 94.222 461.52 94.684 463.029 95.762 C 464.537 96.842 465.672 98.527 466.394 101.052 L 466.612 100.933 Z " fill="none"/><path d=" M 419.867 168.348 C 426.288 162.668 425.878 154.068 425.878 154.068 C 433.239 151.998 429.075 137.069 430.893 137.921 C 432.711 138.773 433.15 143.073 432.975 144.906 C 432.799 146.74 435.937 144.412 436.699 138.327 C 437.461 132.241 434.588 129.239 434.588 129.239 C 436.054 126.805 435.878 123.072 435.291 120.395 C 434.705 117.717 433.825 117.636 433.825 120.152 C 433.825 122.667 430.775 125.02 424.207 123.803 C 417.638 122.586 417.051 127.292 417.051 127.292 C 398.753 122.099 384.722 131.612 375.469 141.572 C 366.216 151.531 360.162 142.347 360.162 142.347 C 364.502 139.145 365.909 129.483 365.909 129.483 C 356.936 144.412 340.045 132.674 340.045 132.674 C 359.517 129.429 361.94 103.464 361.94 103.464 C 351.696 118.285 343.251 105.845 343.251 105.845 C 344.58 107.792 354.981 113.093 357.405 94.485 C 359.191 80.779 353.725 74.709 350.719 72.459 C 343.781 71.357 339.391 72.667 339.391 72.667 C 331.146 74.476 315.445 94.842 296.442 103.263 C 268.185 115.785 230.877 79.249 224.696 100.933 C 218.515 122.617 221.826 137.582 225.8 155.601 C 229.773 173.62 228.89 173.314 258.251 189.806 C 287.612 206.298 312.042 210.982 325.288 213.018 C 325.288 213.018 330.77 214.467 332.646 202.634 C 333.944 194.451 335.001 192.25 335.001 192.25 C 335.001 192.25 336.326 185.938 340.888 185.938 C 345.451 185.938 345.654 185.938 345.654 185.938 C 345.654 185.938 345.791 185.938 348.315 185.938 C 340.925 181.483 343.036 171.107 343.036 171.107 C 344.913 176.137 348.725 175.407 348.725 175.407 C 344.021 174.178 345.519 156.258 364.131 167.618 C 382.742 178.977 397.404 176.867 397.404 176.867 C 395.791 180.965 397.257 190.214 398.929 183.399 C 400.6 176.583 409.456 171.796 409.456 171.796 C 409.456 171.796 413.444 174.028 419.867 168.348 Z " fill="rgb(4,41,83)"/><path d=" M 369.401 166.365 C 369.401 166.365 376.104 120.327 427.546 134.493 C 427.546 134.493 423.157 193.706 369.401 166.365 Z " fill="rgb(254,254,254)"/><path d=" M 369.401 166.365 C 369.401 166.365 376.104 120.327 427.546 134.493 C 427.546 134.493 423.157 193.706 369.401 166.365 Z " fill="rgb(254,254,254)"/><path d=" M 321.907 166.365 C 321.907 166.365 315.203 120.327 263.762 134.493 C 263.762 134.493 268.15 193.706 321.907 166.365 Z " fill="rgb(254,254,254)"/><path d=" M 356.296 192.202 L 356.52 192.105 C 356.506 192.043 356.48 191.936 356.44 191.786 L 356 192.013 C 356.038 192.152 356.061 192.25 356.073 192.302 L 356.52 192.105 L 356.296 192.202 L 356.519 192.103 C 356.506 192.044 356.48 191.936 356.44 191.786 L 356 192.013 C 356.038 192.152 356.062 192.252 356.072 192.299 L 356.519 192.103 L 356.296 192.202 Z " fill="rgb(53,47,45)"/><path d=" M 356.307 192.25 L 356.531 192.153 L 356.524 192.123 L 356.076 192.316 L 356.083 192.347 L 356.531 192.153 L 356.307 192.25 L 356.531 192.153 L 356.524 192.123 L 356.076 192.316 L 356.083 192.347 L 356.531 192.153 L 356.307 192.25 Z " fill="rgb(53,47,45)"/><path d=" M 356.3 192.219 L 356.525 192.127 L 356.521 192.11 L 356.071 192.295 L 356.075 192.312 L 356.525 192.127 L 356.3 192.219 L 356.525 192.127 L 356.521 192.11 L 356.071 192.295 L 356.075 192.312 L 356.525 192.127 L 356.3 192.219 Z " fill="rgb(53,47,45)"/><path d=" M 356.22 191.899 L 356.386 191.67 L 356.385 191.669 L 356.053 192.128 L 356.054 192.128 L 356.386 191.67 L 356.22 191.899 L 356.386 191.67 L 356.385 191.669 L 356.053 192.128 L 356.054 192.128 L 356.386 191.67 L 356.22 191.899 Z " fill="rgb(53,47,45)"/><path d=" M 365.928 234.994 L 365.702 235.084 L 365.703 235.088 L 365.706 235.103 L 365.714 235.128 L 366.153 234.901 L 366.149 234.884 L 365.702 235.084 L 365.928 234.994 L 365.707 235.105 L 365.711 235.12 L 365.932 235.01 L 366.151 234.893 L 366.148 234.881 L 365.929 234.999 L 366.155 234.91 L 366.154 234.905 L 365.928 234.994 L 365.707 235.105 L 365.928 234.994 Z " fill="rgb(53,47,45)"/><path d=" M 462.218 167.998 C 463.53 164.91 464.293 161.114 465.508 155.601 C 466.609 150.611 467.657 145.856 468.469 141.127 C 465.597 153.035 460.079 171.946 452.495 176.813 C 444.91 181.682 442.642 191.31 440.062 204.508 C 437.481 217.707 433.65 224.09 433.65 219.33 C 433.65 214.57 426.299 188.281 428.254 214.462 C 430.209 240.643 414.647 231.988 413.552 240.967 C 412.457 249.946 416.445 256.545 416.445 256.545 C 409.329 265.308 402.213 260.656 397.756 262.928 C 393.299 265.2 392.439 274.936 392.439 274.936 C 392.439 274.936 385.635 279.588 381.569 269.419 C 377.502 259.249 388.137 254.489 380.787 255.896 C 373.436 257.303 372.81 266.715 372.81 266.715 C 373.905 254.598 368.184 243.786 368.184 243.786 L 368.184 243.788 C 370.215 257.33 370.577 271.471 368.084 289.325 C 362.77 327.376 372.677 319.703 394.941 294.193 C 434.09 249.336 456.718 183.432 462.218 167.998 Z " fill="rgb(4,41,83)"/><path d=" M 746.156 170.394 C 727.416 169.449 711.266 168.306 700.663 166.7 C 652.41 159.386 764.243 155.457 722.114 151.855 C 684.565 148.644 643.973 146.648 662.171 140.532 C 646.898 133.66 634.481 127.954 627.42 126.598 C 619.724 125.121 614.783 126.598 614.783 126.598 C 607.744 128.142 595.319 133.714 580.049 140.539 C 598.201 146.65 557.626 148.646 520.089 151.855 C 477.961 155.457 589.791 159.386 541.536 166.7 C 530.935 168.306 514.788 169.449 496.045 170.394 C 494.921 181.098 496.103 190.448 498.027 200.177 C 521.446 201.652 537.71 203.379 537.71 205.884 C 537.71 210.396 519.216 212.245 500.874 213.445 C 501.546 216.484 502.12 218.938 502.838 221.047 C 535.534 223.175 577.534 225.611 577.534 229.678 C 577.534 236.054 541.569 233.425 611.18 244.875 C 612.023 243.064 613.597 240.88 616.293 240.88 C 620.896 240.88 621.101 240.88 621.101 240.88 C 621.101 240.88 621.307 240.88 625.91 240.88 C 628.606 240.88 630.18 243.065 631.023 244.875 C 700.635 233.425 664.667 236.054 664.667 229.678 C 664.667 225.611 706.668 223.175 739.366 221.047 C 740.084 218.938 740.657 216.484 741.328 213.445 C 722.987 212.245 704.491 210.396 704.491 205.884 C 704.491 203.379 720.758 201.652 744.176 200.177 C 746.099 190.448 747.282 181.098 746.156 170.394 Z " fill="rgb(53,47,45)"/></g></g><path d=" M 138.654 314.78 L 124.374 314.78 L 124.374 215.1 L 138.654 215.1 L 138.654 260.6 L 138.934 260.6 L 159.794 215.1 L 174.074 215.1 L 154.614 255 L 177.714 314.78 L 162.594 314.78 L 146.354 270.54 L 138.654 284.96 L 138.654 314.78 Z  M 182.334 295.74 L 182.334 215.1 L 196.614 215.1 L 196.614 294.76 L 196.614 294.76 Q 196.614 298.82 198.084 300.29 L 198.084 300.29 L 198.084 300.29 Q 199.554 301.76 203.614 302.18 L 203.614 302.18 L 203.614 315.62 L 203.614 315.62 Q 198.714 315.62 194.794 314.85 L 194.794 314.85 L 194.794 314.85 Q 190.874 314.08 188.074 311.84 L 188.074 311.84 L 188.074 311.84 Q 185.274 309.74 183.804 305.89 L 183.804 305.89 L 183.804 305.89 Q 182.334 302.04 182.334 295.74 L 182.334 295.74 Z  M 207.954 290.98 L 207.954 267.6 L 207.954 267.6 Q 207.954 263.26 208.514 259.62 L 208.514 259.62 L 208.514 259.62 Q 209.074 255.98 210.614 253.18 L 210.614 253.18 L 210.614 253.18 Q 213.134 248.56 217.824 245.76 L 217.824 245.76 L 217.824 245.76 Q 222.514 242.96 229.234 242.96 L 229.234 242.96 L 229.234 242.96 Q 235.954 242.96 240.644 245.76 L 240.644 245.76 L 240.644 245.76 Q 245.334 248.56 247.854 253.18 L 247.854 253.18 L 247.854 253.18 Q 249.394 255.98 249.954 259.62 L 249.954 259.62 L 249.954 259.62 Q 250.514 263.26 250.514 267.6 L 250.514 267.6 L 250.514 290.98 L 250.514 290.98 Q 250.514 295.32 249.954 298.96 L 249.954 298.96 L 249.954 298.96 Q 249.394 302.6 247.854 305.4 L 247.854 305.4 L 247.854 305.4 Q 245.334 310.02 240.644 312.82 L 240.644 312.82 L 240.644 312.82 Q 235.954 315.62 229.234 315.62 L 229.234 315.62 L 229.234 315.62 Q 222.514 315.62 217.824 312.82 L 217.824 312.82 L 217.824 312.82 Q 213.134 310.02 210.614 305.4 L 210.614 305.4 L 210.614 305.4 Q 209.074 302.6 208.514 298.96 L 208.514 298.96 L 208.514 298.96 Q 207.954 295.32 207.954 290.98 L 207.954 290.98 Z  M 222.234 265.36 L 222.234 293.22 L 222.234 293.22 Q 222.234 297.28 224.124 299.31 L 224.124 299.31 L 224.124 299.31 Q 226.014 301.34 229.234 301.34 L 229.234 301.34 L 229.234 301.34 Q 232.454 301.34 234.344 299.31 L 234.344 299.31 L 234.344 299.31 Q 236.234 297.28 236.234 293.22 L 236.234 293.22 L 236.234 265.36 L 236.234 265.36 Q 236.234 261.3 234.344 259.27 L 234.344 259.27 L 234.344 259.27 Q 232.454 257.24 229.234 257.24 L 229.234 257.24 L 229.234 257.24 Q 226.014 257.24 224.124 259.27 L 224.124 259.27 L 224.124 259.27 Q 222.234 261.3 222.234 265.36 L 222.234 265.36 Z  M 302.314 314.78 L 288.034 314.78 L 288.034 307.5 L 287.754 307.5 L 287.754 307.5 Q 284.954 311.42 282.084 313.52 L 282.084 313.52 L 282.084 313.52 Q 279.214 315.62 274.034 315.62 L 274.034 315.62 L 274.034 315.62 Q 271.514 315.62 268.924 314.85 L 268.924 314.85 L 268.924 314.85 Q 266.334 314.08 263.954 311.98 L 263.954 311.98 L 263.954 311.98 Q 261.574 310.02 260.104 306.31 L 260.104 306.31 L 260.104 306.31 Q 258.634 302.6 258.634 296.72 L 258.634 296.72 L 258.634 296.72 Q 258.634 290.7 259.614 286.15 L 259.614 286.15 L 259.614 286.15 Q 260.594 281.6 263.254 278.52 L 263.254 278.52 L 263.254 278.52 Q 265.774 275.58 270.114 274.11 L 270.114 274.11 L 270.114 274.11 Q 274.454 272.64 281.174 272.64 L 281.174 272.64 L 281.174 272.64 Q 281.874 272.64 282.714 272.64 L 282.714 272.64 L 282.714 272.64 Q 283.554 272.64 284.254 272.78 L 284.254 272.78 L 284.254 272.78 Q 284.954 272.92 285.934 272.92 L 285.934 272.92 L 285.934 272.92 Q 286.914 272.92 288.034 273.06 L 288.034 273.06 L 288.034 265.64 L 288.034 265.64 Q 288.034 262 286.494 259.62 L 286.494 259.62 L 286.494 259.62 Q 284.954 257.24 280.894 257.24 L 280.894 257.24 L 280.894 257.24 Q 278.094 257.24 275.784 259.06 L 275.784 259.06 L 275.784 259.06 Q 273.474 260.88 272.774 264.38 L 272.774 264.38 L 258.914 264.38 L 258.914 264.38 Q 259.474 254.86 265.354 248.98 L 265.354 248.98 L 265.354 248.98 Q 268.154 246.18 272.074 244.57 L 272.074 244.57 L 272.074 244.57 Q 275.994 242.96 280.894 242.96 L 280.894 242.96 L 280.894 242.96 Q 285.374 242.96 289.294 244.36 L 289.294 244.36 L 289.294 244.36 Q 293.214 245.76 296.154 248.56 L 296.154 248.56 L 296.154 248.56 Q 298.954 251.36 300.634 255.56 L 300.634 255.56 L 300.634 255.56 Q 302.314 259.76 302.314 265.36 L 302.314 265.36 L 302.314 314.78 Z  M 288.034 293.92 L 288.034 284.26 L 288.034 284.26 Q 285.654 283.84 284.114 283.84 L 284.114 283.84 L 284.114 283.84 Q 279.494 283.84 276.204 286.01 L 276.204 286.01 L 276.204 286.01 Q 272.914 288.18 272.914 293.92 L 272.914 293.92 L 272.914 293.92 Q 272.914 297.98 274.874 300.5 L 274.874 300.5 L 274.874 300.5 Q 276.834 303.02 280.334 303.02 L 280.334 303.02 L 280.334 303.02 Q 283.974 303.02 286.004 300.64 L 286.004 300.64 L 286.004 300.64 Q 288.034 298.26 288.034 293.92 L 288.034 293.92 Z  M 327.094 314.78 L 312.814 314.78 L 312.814 215.1 L 327.094 215.1 L 327.094 274.74 L 327.374 274.74 L 344.594 243.8 L 358.874 243.8 L 341.934 272.64 L 362.374 314.78 L 346.834 314.78 L 333.954 284.12 L 327.094 294.9 L 327.094 314.78 Z " fill="rgb(4,41,83)"/></g></g></svg>