<?xml version="1.0" encoding="UTF-8" standalone="no"?>
<!DOCTYPE svg PUBLIC "-//W3C//DTD SVG 1.1//EN" "http://www.w3.org/Graphics/SVG/1.1/DTD/svg11.dtd">
<svg width="100%" height="100%" viewBox="0 0 70 41" version="1.1" xmlns="http://www.w3.org/2000/svg" xmlns:xlink="http://www.w3.org/1999/xlink" xml:space="preserve" xmlns:serif="http://www.serif.com/" style="fill-rule:evenodd;clip-rule:evenodd;stroke-linejoin:round;stroke-miterlimit:2;">
    <g transform="matrix(1,0,0,1,-553.5,-297.809)">
        <g>
            <g transform="matrix(0.534351,0,0,0.679389,262.813,95.3511)">
                <path d="M675,303C675,300.24 672.151,298 668.643,298L550.357,298C546.849,298 544,300.24 544,303C544,305.76 546.849,308 550.357,308L668.643,308C672.151,308 675,305.76 675,303Z" style="fill:rgb(235,235,235);"/>
            </g>
            <g transform="matrix(0.534351,0,0,0.679389,262.813,112.145)">
                <path d="M675,303C675,300.24 672.151,298 668.643,298L550.357,298C546.849,298 544,300.24 544,303C544,305.76 546.849,308 550.357,308L668.643,308C672.151,308 675,305.76 675,303Z" style="fill:rgb(235,235,235);"/>
            </g>
            <g transform="matrix(0.534351,0,0,0.679389,262.813,128.939)">
                <path d="M675,303C675,300.24 672.151,298 668.643,298L550.357,298C546.849,298 544,300.24 544,303C544,305.76 546.849,308 550.357,308L668.643,308C672.151,308 675,305.76 675,303Z" style="fill:rgb(235,235,235);"/>
            </g>
        </g>
    </g>
</svg>
