<?xml version="1.0" encoding="UTF-8" standalone="no"?>
<!DOCTYPE svg PUBLIC "-//W3C//DTD SVG 1.1//EN" "http://www.w3.org/Graphics/SVG/1.1/DTD/svg11.dtd">
<svg width="100%" height="100%" viewBox="0 0 198 198" version="1.1" xmlns="http://www.w3.org/2000/svg" xmlns:xlink="http://www.w3.org/1999/xlink" xml:space="preserve" xmlns:serif="http://www.serif.com/" style="fill-rule:evenodd;clip-rule:evenodd;stroke-linejoin:round;stroke-miterlimit:2;">
    <g transform="matrix(1,0,0,1,-692,-350)">
        <g>
            <path d="M791,350C845.64,350 890,394.36 890,449C890,503.64 845.64,548 791,548C736.36,548 692,503.64 692,449C692,394.36 736.36,350 791,350ZM791,361.21C839.452,361.21 878.79,400.548 878.79,449C878.79,497.452 839.452,536.79 791,536.79C742.548,536.79 703.21,497.452 703.21,449C703.21,400.548 742.548,361.21 791,361.21Z" style="fill:rgb(146,146,146);"/>
        </g>
        <g transform="matrix(6.12323e-17,1,-0.78125,4.78378e-17,1022.44,-590)">
            <path d="M1039,254L1071,318L1007,318L1039,254Z" style="fill:rgb(146,146,146);"/>
        </g>
    </g>
</svg>
