<svg id="morphLoop" xmlns="http://www.w3.org/2000/svg" viewBox="-45 15 400 255">
<style type="text/css">
.st0{fill:#00000000;}
</style>
  <g id="endPaths">
    <path id="end0" class="st0" d="M352.8,72c-1-14.2-2.5-20.7-4.1-23s-2.2-3.1-5.7-4c-2.3-0.6-5.7-0.3-10,1l-21,7.1c-10.5,3.2-18.2,4.5-23,4
		c-7.2-0.7-9.1-0.8-18-6.7c-8.9-5.8-30.3-23.9-32.2-25.4c-2-1.4-6-2.7-10.8-2.6c-5,0.2-8.4,1.3-10.3,3.6L217,146
		c1.2-4.1,2.5-6.8,4-8c2.2-1.8,12.3-1.4,13.9-1c1.7,0.4,3.3,2.8,4.2,5.1s6.9,27.8,10.8,45.8c3.9,18.1,3.1,24.4,2.6,37
		s-2.8,26.1-3,31.2c-0.2,5.1-0.2,7.2,3.2,9.9c3.4,2.7,11.6-6.3,21.4-17s12.5-14.1,27-35s37.4-74.3,43-91S353.8,86.2,352.8,72z
			M252.7,116.8c0,0,6.7-46,58.1-31.9C310.9,84.9,306.5,144.1,252.7,116.8z"/>
    <path id="end1" class="st0" d="M231.2,136.7c-7.4-4.5-4.9-15.2-4.9-15.2c1.9,5,5.7,4.3,5.7,4.3c-4.7-1.2-3.2-19.1,15.4-7.8
		c18.6,11.4,33.3,9.2,33.3,9.2c-1.6,4.1-0.1,13.3,1.5,6.5c1.7-6.8,10.5-11.6,10.5-11.6s4,2.2,10.4-3.4c6.4-5.7,6-14.3,6-14.3
		c7.4-2.1,3.2-17,5-16.1s2.3,5.2,2.1,7c-0.2,1.8,3-0.5,3.7-6.6c0.8-6.1-2.1-9.1-2.1-9.1c1.5-2.4,1.3-6.2,0.7-8.8
		c-0.6-2.7-1.5-2.8-1.5-0.2c0,2.5-3,4.9-9.6,3.7c-6.6-1.2-7.2,3.5-7.2,3.5c-18.3-5.2-32.3,4.3-41.6,14.3
		c-9.3,10-15.3,0.8-15.3,0.8C247.6,89.7,249,80,249,80c-9,14.9-25.9,3.2-25.9,3.2C242.6,80,245,54,245,54
		c-10.2,14.8-18.7,2.4-18.7,2.4c1.3,1.9,11.7,7.2,14.2-11.4c1.8-13.7-3.4-19.6-6.4-21.8c-5.3-1.4-11.6,0-11.6,0
		c-8.2,1.8-23.9,22.2-42.9,30.6c-28.3,12.5-65.6-24-71.7-2.3c-6.2,21.7-2.9,36.6,1.1,54.7c4,18,3.1,17.7,32.5,34.2
		s53.8,21.2,67,23.2c0,0,5.5,1.4,7.4-10.4c1.3-8.2,2.4-10.4,2.4-10.4s1.1-4.8,5.6-5.6 M147.1,84.9c51.4-14.2,58.1,31.9,58.1,31.9
		C151.5,144.1,147.1,84.9,147.1,84.9z M252.7,116.8c0,0,6.7-46,58.1-31.9C310.9,84.9,306.5,144.1,252.7,116.8z"/>
    <path id="end2" class="st0" d="M251,192.8c2,13.5,2.2,26.8,0.5,46.9c-6.5,36.8,3.7,32.8,26.9,4.9c42-48,63.4-114.2,67.3-126.2
		c1.3-3.7,2.2-6.3,3.4-11.8c1.1-5,2-10.3,2.9-15c-2.9,11.9-8.4,30.8-16,35.7s-9.9,14.5-12.4,27.7c-2.6,13.2-6.4,19.6-6.4,14.8
		s-7.4-31-5.4-4.9c2,26.2-13.6,17.5-14.7,26.5S300,207,300,207c-7.1,8.8-14.2,4.1-18.7,6.4s-5.3,12-5.3,12s-6.8,4.7-10.9-5.5
		s6.6-14.9-0.8-13.5s-8,10.8-8,10.8"/>
    <path id="end3" class="st0" d="M6.7,266.3v-99.7H21v45.5h0.3l20.9-45.5h14.3L37,206.5l23.1,59.8H44.9L28.7,222L21,236.4v29.8H6.7V266.3z"/>
    <path id="end4" class="st0" d="M64.7,166.6H79v79.7c0,2.7,0.5,4.5,1.5,5.5s2.8,1.6,5.5,1.9v13.4c-3.3,0-6.2-0.3-8.8-0.8
		c-2.6-0.5-4.9-1.5-6.7-3c-1.9-1.4-3.3-3.4-4.3-5.9c-1-2.6-1.5-6-1.5-10.2V166.6z"/>
    <path id="end5" class="st0" d="M90.3,219.1c0-2.9,0.2-5.6,0.6-8s1.1-4.6,2.1-6.4c1.7-3.1,4.1-5.6,7.2-7.4c3.1-1.9,6.9-2.8,11.4-2.8
		s8.3,0.9,11.4,2.8c3.1,1.9,5.5,4.3,7.2,7.4c1,1.9,1.7,4,2.1,6.4c0.4,2.4,0.6,5.1,0.6,8v23.4c0,2.9-0.2,5.6-0.6,8
		c-0.4,2.4-1.1,4.6-2.1,6.4c-1.7,3.1-4.1,5.6-7.2,7.4c-3.1,1.9-6.9,2.8-11.4,2.8s-8.3-0.9-11.4-2.8s-5.5-4.3-7.2-7.4
		c-1-1.9-1.7-4-2.1-6.4s-0.6-5.1-0.6-8V219.1z M104.6,244.7c0,2.7,0.6,4.7,1.9,6.1c1.3,1.4,3,2,5.1,2s3.9-0.7,5.1-2
		c1.3-1.4,1.9-3.4,1.9-6.1v-27.9c0-2.7-0.6-4.7-1.9-6.1c-1.3-1.4-3-2-5.1-2s-3.9,0.7-5.1,2c-1.3,1.4-1.9,3.4-1.9,6.1V244.7z"/>
    <path id="end6" class="st0" d="M170.4,266.3V259h-0.3c-1.9,2.6-3.8,4.6-5.7,6s-4.6,2.1-8.1,2.1c-1.7,0-3.4-0.3-5.1-0.8
		c-1.7-0.5-3.4-1.5-5-2.9c-1.6-1.3-2.9-3.2-3.8-5.7c-1-2.5-1.5-5.7-1.5-9.6c0-4,0.3-7.5,1-10.6c0.7-3,1.9-5.6,3.6-7.6
		c1.7-2,4-3.4,6.9-4.4s6.6-1.5,11.1-1.5c0.5,0,1,0,1.5,0s1.1,0,1.5,0.1c0.5,0.1,1,0.1,1.7,0.1s1.4,0,2.1,0.1v-7.4
		c0-2.4-0.5-4.4-1.5-6s-2.9-2.4-5.6-2.4c-1.9,0-3.6,0.6-5.1,1.8s-2.5,3-3,5.3h-13.9c0.4-6.3,2.5-11.5,6.4-15.4
		c1.9-1.9,4.1-3.3,6.7-4.4c2.6-1.1,5.6-1.6,8.8-1.6c3,0,5.8,0.5,8.4,1.4c2.6,0.9,4.9,2.3,6.9,4.2c1.9,1.9,3.4,4.2,4.5,7
		s1.7,6.1,1.7,9.8V266h-14.2L170.4,266.3L170.4,266.3z M170.4,235.7c-1.6-0.3-2.9-0.4-3.9-0.4c-3.1,0-5.7,0.7-7.9,2.2
		c-2.2,1.4-3.3,4.1-3.3,7.9c0,2.7,0.7,4.9,2,6.6c1.3,1.7,3.1,2.5,5.5,2.5s4.3-0.8,5.7-2.4c1.4-1.6,2-3.8,2-6.7v-9.7L170.4,235.7
		L170.4,235.7z"/>
    <path id="end7" class="st0" d="M195.2,266.3v-99.7h14.3v59.6h0.3l17.2-30.9h14.3l-16.9,28.8l20.4,42.1h-15.5l-12.9-30.7l-6.9,10.8v19.9
		h-14.3L195.2,266.3L195.2,266.3z"/>
  </g>
  <g id="startPaths">
	<path id="start0" class="st0" d="M195.2,144.4l10-7.6L195.2,144.4z"/>
	<path id="start1" class="st0" d="M195.2,144.4l10-7.6L195.2,144.4z"/>
	<path id="start2" class="st0" d="M195.2,144.4l10-7.6L195.2,144.4z"/>
	<path id="start3" class="st0" d="M195.2,144.4l10-7.6L195.2,144.4z"/>
	<path id="start4" class="st0" d="M195.2,144.4l10-7.6L195.2,144.4z"/>
	<path id="start5" class="st0" d="M195.2,144.4l10-7.6L195.2,144.4z"/>
	<path id="start6" class="st0" d="M195.2,144.4l10-7.6L195.2,144.4z"/>
	<path id="start7" class="st0" d="M195.2,144.4l10-7.6L195.2,144.4z"/>
  </g>
</svg>