<svg version="1.1" id="Layer_1" xmlns="http://www.w3.org/2000/svg" xmlns:xlink="http://www.w3.org/1999/xlink" x="0px" y="0px"
	 viewBox="0 0 80 80" style="enable-background:new 0 0 80 80;" xml:space="preserve">
<style type="text/css">
	.st0{fill:url(#SVGID_1_);}
	.st1{fill:#FFFFFF;}
</style>
<defs>
    <filter id="f3" x="-0.1" y="-0.1" width="200%" height="200%">
	  	<feDropShadow dx="-0.5" dy="0.5" stdDeviation="0.5" flood-color="#000" flood-opacity="1" />
    </filter>
</defs>

<linearGradient id="SVGID_1_" gradientUnits="userSpaceOnUse" x1="-1.5114" y1="63.9666" x2="81.5114" y2="16.0334">
	<stop  offset="0.2005" style="stop-color:#23b993;stop-opacity:1"/>
	<stop  offset="1" style="stop-color:#92d3c3"/>
</linearGradient>
<path class="st0" d="M68.5,77.5h-57c-5,0-9-4-9-9v-57c0-5,4-9,9-9h57c5,0,9,4,9,9v57C77.5,73.5,73.5,77.5,68.5,77.5z" data-bind = "attr: { filter : networkConnect() ? null : 'url(#f3)' }" />

	<path class="st1" d="M14,50.1v9.7C14,61,15,62,16.1,62h4.8l-0.2,1.8h-1.4v1.9h10.1v-1.9H28L27.8,62h4.8c1.1,0,2.1-0.9,2.1-2.1v-8
		h10.5v8c0,1.1,0.9,2.1,2.1,2.1H52l-0.2,1.8h-1.4v1.9h10.1v-1.9H59L58.8,62h4.8c1.1,0,2.1-0.9,2.1-2.1v-9.6
		c2.8-1.8,4.7-4.9,4.7-8.5V40c0-5.6-4.6-10.1-10.2-10.1h-2.7c-0.2-1.7-1.3-5.3-5.3-6.8c-2.9-1-5.4-0.6-6.7-0.2
		c-2.4-5.2-7.5-8.5-13.3-8.5c-8.1,0-14.6,6.6-14.6,14.6c0,0.4,0,0.7,0.1,1.1c-4.7,1-8.1,5-8.1,9.9v1.8C9.6,45.3,11.4,48.3,14,50.1
		z M22.6,63.8l0.2-1.8h3l0.2,1.8H22.6z M53.7,63.8l0.2-1.8h3l0.2,1.8H53.7z M63.7,48.2c0.1,0,0.2,0.1,0.2,0.2v11.5
		c0,0.1-0.1,0.2-0.2,0.2H47.2c-0.1,0-0.2-0.1-0.2-0.2V48.4c0-0.1,0.1-0.2,0.2-0.2L63.7,48.2z M23.3,35.9h12.3
		c0.4-2,2.2-3.6,4.4-3.6s4,1.5,4.4,3.6h12v10.4h-1.9v-8.5H44.4c-0.4,2-2.2,3.6-4.4,3.6s-4-1.5-4.4-3.6H25.2v8.5h-1.9V35.9z
			M15.9,48.4c0-0.1,0.1-0.2,0.2-0.2h16.5c0.1,0,0.2,0.1,0.2,0.2v11.5c0,0.1-0.1,0.2-0.2,0.2H16.1c-0.1,0-0.2-0.1-0.2-0.2
		C15.9,59.9,15.9,48.4,15.9,48.4z"/>
	<ellipse class="st1" cx="40" cy="36.8" rx="2.6" ry="2.6"/>

</svg>